G75*
%MOIN*%
%OFA0B0*%
%FSLAX24Y24*%
%IPPOS*%
%LPD*%
%AMOC8*
5,1,8,0,0,1.08239X$1,22.5*
%
%ADD10C,0.0050*%
%ADD11C,0.0000*%
%ADD12OC8,0.0760*%
%ADD13C,0.0650*%
%ADD14R,0.0551X0.0551*%
%ADD15C,0.0551*%
%ADD16C,0.1299*%
%ADD17C,0.0100*%
%ADD18C,0.0396*%
%ADD19C,0.0436*%
D10*
X000350Y000350D02*
X000350Y028950D01*
X032150Y028950D01*
X032150Y000350D01*
X000350Y000350D01*
D11*
X000717Y001150D02*
X000719Y001191D01*
X000725Y001232D01*
X000735Y001272D01*
X000748Y001311D01*
X000765Y001348D01*
X000786Y001384D01*
X000810Y001418D01*
X000837Y001449D01*
X000866Y001477D01*
X000899Y001503D01*
X000933Y001525D01*
X000970Y001544D01*
X001008Y001559D01*
X001048Y001571D01*
X001088Y001579D01*
X001129Y001583D01*
X001171Y001583D01*
X001212Y001579D01*
X001252Y001571D01*
X001292Y001559D01*
X001330Y001544D01*
X001366Y001525D01*
X001401Y001503D01*
X001434Y001477D01*
X001463Y001449D01*
X001490Y001418D01*
X001514Y001384D01*
X001535Y001348D01*
X001552Y001311D01*
X001565Y001272D01*
X001575Y001232D01*
X001581Y001191D01*
X001583Y001150D01*
X001581Y001109D01*
X001575Y001068D01*
X001565Y001028D01*
X001552Y000989D01*
X001535Y000952D01*
X001514Y000916D01*
X001490Y000882D01*
X001463Y000851D01*
X001434Y000823D01*
X001401Y000797D01*
X001367Y000775D01*
X001330Y000756D01*
X001292Y000741D01*
X001252Y000729D01*
X001212Y000721D01*
X001171Y000717D01*
X001129Y000717D01*
X001088Y000721D01*
X001048Y000729D01*
X001008Y000741D01*
X000970Y000756D01*
X000934Y000775D01*
X000899Y000797D01*
X000866Y000823D01*
X000837Y000851D01*
X000810Y000882D01*
X000786Y000916D01*
X000765Y000952D01*
X000748Y000989D01*
X000735Y001028D01*
X000725Y001068D01*
X000719Y001109D01*
X000717Y001150D01*
X000717Y028150D02*
X000719Y028191D01*
X000725Y028232D01*
X000735Y028272D01*
X000748Y028311D01*
X000765Y028348D01*
X000786Y028384D01*
X000810Y028418D01*
X000837Y028449D01*
X000866Y028477D01*
X000899Y028503D01*
X000933Y028525D01*
X000970Y028544D01*
X001008Y028559D01*
X001048Y028571D01*
X001088Y028579D01*
X001129Y028583D01*
X001171Y028583D01*
X001212Y028579D01*
X001252Y028571D01*
X001292Y028559D01*
X001330Y028544D01*
X001366Y028525D01*
X001401Y028503D01*
X001434Y028477D01*
X001463Y028449D01*
X001490Y028418D01*
X001514Y028384D01*
X001535Y028348D01*
X001552Y028311D01*
X001565Y028272D01*
X001575Y028232D01*
X001581Y028191D01*
X001583Y028150D01*
X001581Y028109D01*
X001575Y028068D01*
X001565Y028028D01*
X001552Y027989D01*
X001535Y027952D01*
X001514Y027916D01*
X001490Y027882D01*
X001463Y027851D01*
X001434Y027823D01*
X001401Y027797D01*
X001367Y027775D01*
X001330Y027756D01*
X001292Y027741D01*
X001252Y027729D01*
X001212Y027721D01*
X001171Y027717D01*
X001129Y027717D01*
X001088Y027721D01*
X001048Y027729D01*
X001008Y027741D01*
X000970Y027756D01*
X000934Y027775D01*
X000899Y027797D01*
X000866Y027823D01*
X000837Y027851D01*
X000810Y027882D01*
X000786Y027916D01*
X000765Y027952D01*
X000748Y027989D01*
X000735Y028028D01*
X000725Y028068D01*
X000719Y028109D01*
X000717Y028150D01*
X030917Y028150D02*
X030919Y028191D01*
X030925Y028232D01*
X030935Y028272D01*
X030948Y028311D01*
X030965Y028348D01*
X030986Y028384D01*
X031010Y028418D01*
X031037Y028449D01*
X031066Y028477D01*
X031099Y028503D01*
X031133Y028525D01*
X031170Y028544D01*
X031208Y028559D01*
X031248Y028571D01*
X031288Y028579D01*
X031329Y028583D01*
X031371Y028583D01*
X031412Y028579D01*
X031452Y028571D01*
X031492Y028559D01*
X031530Y028544D01*
X031566Y028525D01*
X031601Y028503D01*
X031634Y028477D01*
X031663Y028449D01*
X031690Y028418D01*
X031714Y028384D01*
X031735Y028348D01*
X031752Y028311D01*
X031765Y028272D01*
X031775Y028232D01*
X031781Y028191D01*
X031783Y028150D01*
X031781Y028109D01*
X031775Y028068D01*
X031765Y028028D01*
X031752Y027989D01*
X031735Y027952D01*
X031714Y027916D01*
X031690Y027882D01*
X031663Y027851D01*
X031634Y027823D01*
X031601Y027797D01*
X031567Y027775D01*
X031530Y027756D01*
X031492Y027741D01*
X031452Y027729D01*
X031412Y027721D01*
X031371Y027717D01*
X031329Y027717D01*
X031288Y027721D01*
X031248Y027729D01*
X031208Y027741D01*
X031170Y027756D01*
X031134Y027775D01*
X031099Y027797D01*
X031066Y027823D01*
X031037Y027851D01*
X031010Y027882D01*
X030986Y027916D01*
X030965Y027952D01*
X030948Y027989D01*
X030935Y028028D01*
X030925Y028068D01*
X030919Y028109D01*
X030917Y028150D01*
X030917Y001150D02*
X030919Y001191D01*
X030925Y001232D01*
X030935Y001272D01*
X030948Y001311D01*
X030965Y001348D01*
X030986Y001384D01*
X031010Y001418D01*
X031037Y001449D01*
X031066Y001477D01*
X031099Y001503D01*
X031133Y001525D01*
X031170Y001544D01*
X031208Y001559D01*
X031248Y001571D01*
X031288Y001579D01*
X031329Y001583D01*
X031371Y001583D01*
X031412Y001579D01*
X031452Y001571D01*
X031492Y001559D01*
X031530Y001544D01*
X031566Y001525D01*
X031601Y001503D01*
X031634Y001477D01*
X031663Y001449D01*
X031690Y001418D01*
X031714Y001384D01*
X031735Y001348D01*
X031752Y001311D01*
X031765Y001272D01*
X031775Y001232D01*
X031781Y001191D01*
X031783Y001150D01*
X031781Y001109D01*
X031775Y001068D01*
X031765Y001028D01*
X031752Y000989D01*
X031735Y000952D01*
X031714Y000916D01*
X031690Y000882D01*
X031663Y000851D01*
X031634Y000823D01*
X031601Y000797D01*
X031567Y000775D01*
X031530Y000756D01*
X031492Y000741D01*
X031452Y000729D01*
X031412Y000721D01*
X031371Y000717D01*
X031329Y000717D01*
X031288Y000721D01*
X031248Y000729D01*
X031208Y000741D01*
X031170Y000756D01*
X031134Y000775D01*
X031099Y000797D01*
X031066Y000823D01*
X031037Y000851D01*
X031010Y000882D01*
X030986Y000916D01*
X030965Y000952D01*
X030948Y000989D01*
X030935Y001028D01*
X030925Y001068D01*
X030919Y001109D01*
X030917Y001150D01*
D12*
X027900Y003850D03*
X028150Y005250D03*
X027600Y002450D03*
X023500Y003750D03*
X023300Y002400D03*
X023700Y005300D03*
X021750Y006750D03*
X019516Y005300D03*
X019250Y003800D03*
X018950Y002400D03*
X020750Y017150D03*
X021750Y018550D03*
X023550Y017250D03*
D13*
X023750Y022700D03*
X023750Y023700D03*
X022750Y023700D03*
X022750Y022700D03*
X021750Y022700D03*
X021750Y023700D03*
X020750Y023700D03*
X020750Y022700D03*
X019750Y022700D03*
X019750Y023700D03*
X018750Y023700D03*
X018750Y022700D03*
X017750Y022700D03*
X017750Y023700D03*
X016750Y023700D03*
X016750Y022700D03*
X015750Y022700D03*
X015750Y023700D03*
X014750Y023700D03*
X014750Y022700D03*
X013750Y022700D03*
X013750Y023700D03*
X012750Y023700D03*
X012750Y022700D03*
X011750Y022700D03*
X011750Y023700D03*
X010750Y023700D03*
X010750Y022700D03*
X009750Y022700D03*
X009750Y023700D03*
X008750Y023700D03*
X008750Y022700D03*
X007750Y022700D03*
X007750Y023700D03*
X006750Y023700D03*
X006750Y022700D03*
X024750Y022700D03*
X024750Y023700D03*
X025750Y023700D03*
X025750Y022700D03*
D14*
X014025Y015850D03*
D15*
X014779Y015350D03*
X015527Y015850D03*
X016281Y015350D03*
X015531Y014850D03*
X014781Y014350D03*
X015531Y013850D03*
X014781Y013350D03*
X015531Y012850D03*
X014781Y012350D03*
X015531Y011850D03*
X014781Y011350D03*
X015531Y010850D03*
X014781Y010350D03*
X015531Y009850D03*
X014781Y009350D03*
X015531Y008850D03*
X014781Y008350D03*
X015531Y007850D03*
X014781Y007350D03*
X015531Y006850D03*
X014781Y006350D03*
X015531Y005850D03*
X014781Y005350D03*
X015531Y004850D03*
X014781Y004350D03*
X015531Y003850D03*
X016281Y004350D03*
X016281Y005350D03*
X016281Y006350D03*
X016281Y007350D03*
X016281Y008350D03*
X016281Y009350D03*
X016281Y010350D03*
X016281Y011350D03*
X016281Y012350D03*
X016281Y013350D03*
X016281Y014350D03*
X014031Y013850D03*
X014031Y014850D03*
X014031Y012850D03*
X014031Y011850D03*
X014031Y010850D03*
X014031Y009850D03*
X014031Y008850D03*
X014031Y007850D03*
X014031Y006850D03*
X014031Y005850D03*
X014031Y004850D03*
X014031Y003850D03*
D16*
X015150Y001600D03*
X015150Y018100D03*
D17*
X015675Y018635D02*
X015800Y018635D01*
X015800Y018688D02*
X015800Y018490D01*
X015785Y018525D01*
X015575Y018735D01*
X015299Y018850D01*
X015001Y018850D01*
X014725Y018735D01*
X014515Y018525D01*
X014400Y018249D01*
X014400Y017951D01*
X014515Y017675D01*
X014725Y017465D01*
X015001Y017350D01*
X015299Y017350D01*
X015575Y017465D01*
X015785Y017675D01*
X015800Y017710D01*
X015800Y017688D01*
X017635Y015853D01*
X016053Y017259D01*
X016012Y017300D01*
X016007Y017300D01*
X016003Y017303D01*
X015946Y017300D01*
X013216Y017300D01*
X008900Y022008D01*
X008900Y022302D01*
X008991Y022340D01*
X009110Y022459D01*
X009175Y022616D01*
X009175Y022784D01*
X009110Y022941D01*
X008991Y023060D01*
X008834Y023125D01*
X008666Y023125D01*
X008509Y023060D01*
X008390Y022941D01*
X008325Y022784D01*
X008325Y022616D01*
X008390Y022459D01*
X008509Y022340D01*
X008600Y022302D01*
X008600Y021953D01*
X008597Y021894D01*
X008600Y021892D01*
X008600Y021888D01*
X008642Y021846D01*
X012992Y017100D01*
X012614Y017100D01*
X007900Y022010D01*
X007900Y022302D01*
X007991Y022340D01*
X008110Y022459D01*
X008175Y022616D01*
X008175Y022784D01*
X008110Y022941D01*
X007991Y023060D01*
X007834Y023125D01*
X007666Y023125D01*
X007509Y023060D01*
X007390Y022941D01*
X007325Y022784D01*
X007325Y022616D01*
X007390Y022459D01*
X007509Y022340D01*
X007600Y022302D01*
X007600Y021952D01*
X007599Y021891D01*
X007600Y021890D01*
X007600Y021888D01*
X007643Y021845D01*
X012390Y016900D01*
X012212Y016900D01*
X006900Y022212D01*
X006900Y022302D01*
X006991Y022340D01*
X007110Y022459D01*
X007175Y022616D01*
X007175Y022784D01*
X007110Y022941D01*
X006991Y023060D01*
X006834Y023125D01*
X006666Y023125D01*
X006509Y023060D01*
X006390Y022941D01*
X006325Y022784D01*
X006325Y022616D01*
X006390Y022459D01*
X006509Y022340D01*
X006600Y022302D01*
X006600Y022088D01*
X012000Y016688D01*
X012088Y016600D01*
X014800Y016600D01*
X014800Y016365D01*
X015177Y015987D01*
X015151Y015925D01*
X015151Y015775D01*
X015209Y015637D01*
X015314Y015532D01*
X015452Y015474D01*
X015602Y015474D01*
X015740Y015532D01*
X015845Y015637D01*
X015903Y015775D01*
X015903Y015925D01*
X015845Y016063D01*
X015740Y016168D01*
X015602Y016226D01*
X015452Y016226D01*
X015390Y016200D01*
X015100Y016489D01*
X015100Y016800D01*
X015297Y016800D01*
X016250Y016038D01*
X016288Y016000D01*
X016297Y016000D01*
X016305Y015994D01*
X016358Y016000D01*
X016688Y016000D01*
X017200Y015488D01*
X017200Y015412D01*
X016888Y015100D01*
X016562Y015100D01*
X016599Y015137D01*
X016656Y015275D01*
X016656Y015425D01*
X016599Y015563D01*
X016494Y015668D01*
X016356Y015726D01*
X016206Y015726D01*
X016068Y015668D01*
X015962Y015563D01*
X015905Y015425D01*
X015905Y015275D01*
X015962Y015137D01*
X016000Y015100D01*
X015812Y015100D01*
X015744Y015168D01*
X015606Y015226D01*
X015456Y015226D01*
X015318Y015168D01*
X015212Y015063D01*
X015155Y014925D01*
X015155Y014775D01*
X015212Y014637D01*
X015318Y014532D01*
X015456Y014474D01*
X015606Y014474D01*
X015744Y014532D01*
X015849Y014637D01*
X015906Y014775D01*
X015906Y014800D01*
X017012Y014800D01*
X017100Y014888D01*
X017500Y015288D01*
X017500Y015572D01*
X017600Y015483D01*
X017600Y014812D01*
X017288Y014500D01*
X016625Y014500D01*
X016599Y014563D01*
X016494Y014668D01*
X016356Y014726D01*
X016206Y014726D01*
X016068Y014668D01*
X015962Y014563D01*
X015905Y014425D01*
X015905Y014275D01*
X015962Y014137D01*
X016068Y014032D01*
X016206Y013974D01*
X016356Y013974D01*
X016494Y014032D01*
X016599Y014137D01*
X016625Y014200D01*
X017412Y014200D01*
X017500Y014288D01*
X017800Y014588D01*
X017800Y014412D01*
X016888Y013500D01*
X016625Y013500D01*
X016599Y013563D01*
X016494Y013668D01*
X016356Y013726D01*
X016206Y013726D01*
X016068Y013668D01*
X015962Y013563D01*
X015905Y013425D01*
X015905Y013275D01*
X015962Y013137D01*
X016000Y013100D01*
X015812Y013100D01*
X015744Y013168D01*
X015606Y013226D01*
X015456Y013226D01*
X015318Y013168D01*
X015212Y013063D01*
X015155Y012925D01*
X015155Y012775D01*
X015212Y012637D01*
X015318Y012532D01*
X015456Y012474D01*
X015606Y012474D01*
X015744Y012532D01*
X015849Y012637D01*
X015906Y012775D01*
X015906Y012800D01*
X017012Y012800D01*
X017100Y012888D01*
X018200Y013988D01*
X018200Y013412D01*
X016888Y012100D01*
X016562Y012100D01*
X016599Y012137D01*
X016656Y012275D01*
X016656Y012425D01*
X016599Y012563D01*
X016494Y012668D01*
X016356Y012726D01*
X016206Y012726D01*
X016068Y012668D01*
X015962Y012563D01*
X015905Y012425D01*
X015905Y012275D01*
X015962Y012137D01*
X016000Y012100D01*
X015812Y012100D01*
X015744Y012168D01*
X015606Y012226D01*
X015456Y012226D01*
X015318Y012168D01*
X015212Y012063D01*
X015155Y011925D01*
X015155Y011775D01*
X015212Y011637D01*
X015318Y011532D01*
X015456Y011474D01*
X015606Y011474D01*
X015744Y011532D01*
X015849Y011637D01*
X015906Y011775D01*
X015906Y011800D01*
X017012Y011800D01*
X017100Y011888D01*
X018400Y013188D01*
X018400Y012812D01*
X017088Y011500D01*
X016625Y011500D01*
X016599Y011563D01*
X016494Y011668D01*
X016356Y011726D01*
X016206Y011726D01*
X016068Y011668D01*
X015962Y011563D01*
X015905Y011425D01*
X015905Y011275D01*
X015962Y011137D01*
X016068Y011032D01*
X016206Y010974D01*
X016356Y010974D01*
X016494Y011032D01*
X016599Y011137D01*
X016625Y011200D01*
X017212Y011200D01*
X017300Y011288D01*
X018600Y012588D01*
X018600Y012212D01*
X016888Y010500D01*
X016625Y010500D01*
X016599Y010563D01*
X016494Y010668D01*
X016356Y010726D01*
X016206Y010726D01*
X016068Y010668D01*
X015962Y010563D01*
X015905Y010425D01*
X015905Y010275D01*
X015962Y010137D01*
X016068Y010032D01*
X016206Y009974D01*
X016356Y009974D01*
X016494Y010032D01*
X016599Y010137D01*
X016625Y010200D01*
X017012Y010200D01*
X017100Y010288D01*
X018800Y011988D01*
X018800Y011612D01*
X017088Y009900D01*
X015906Y009900D01*
X015906Y009925D01*
X015849Y010063D01*
X015744Y010168D01*
X015606Y010226D01*
X015456Y010226D01*
X015318Y010168D01*
X015212Y010063D01*
X015155Y009925D01*
X015155Y009775D01*
X015212Y009637D01*
X015318Y009532D01*
X015456Y009474D01*
X015606Y009474D01*
X015606Y009475D02*
X015926Y009475D01*
X015905Y009425D02*
X015962Y009563D01*
X016000Y009600D01*
X015812Y009600D01*
X015744Y009532D01*
X015606Y009474D01*
X015456Y009475D02*
X015136Y009475D01*
X015156Y009425D02*
X015099Y009563D01*
X014994Y009668D01*
X014856Y009726D01*
X014706Y009726D01*
X014568Y009668D01*
X014462Y009563D01*
X014437Y009500D01*
X014167Y009500D01*
X014244Y009532D01*
X014349Y009637D01*
X014406Y009775D01*
X014406Y009925D01*
X014349Y010063D01*
X014244Y010168D01*
X014167Y010200D01*
X014437Y010200D01*
X014462Y010137D01*
X014568Y010032D01*
X014706Y009974D01*
X014856Y009974D01*
X014994Y010032D01*
X015099Y010137D01*
X015156Y010275D01*
X015156Y010425D01*
X015099Y010563D01*
X014994Y010668D01*
X014856Y010726D01*
X014706Y010726D01*
X014568Y010668D01*
X014462Y010563D01*
X014437Y010500D01*
X014167Y010500D01*
X014244Y010532D01*
X014349Y010637D01*
X014406Y010775D01*
X014406Y010925D01*
X014349Y011063D01*
X014244Y011168D01*
X014106Y011226D01*
X013956Y011226D01*
X013818Y011168D01*
X013781Y011131D01*
X004900Y020012D01*
X004900Y020188D01*
X013200Y011888D01*
X013288Y011800D01*
X013655Y011800D01*
X013655Y011775D01*
X013712Y011637D01*
X013818Y011532D01*
X013956Y011474D01*
X014106Y011474D01*
X014244Y011532D01*
X014349Y011637D01*
X014406Y011775D01*
X014406Y011925D01*
X014349Y012063D01*
X014244Y012168D01*
X014167Y012200D01*
X014437Y012200D01*
X014462Y012137D01*
X014568Y012032D01*
X014706Y011974D01*
X014856Y011974D01*
X014994Y012032D01*
X015099Y012137D01*
X015156Y012275D01*
X015156Y012425D01*
X015099Y012563D01*
X014994Y012668D01*
X014856Y012726D01*
X014706Y012726D01*
X014568Y012668D01*
X014462Y012563D01*
X014437Y012500D01*
X014167Y012500D01*
X014244Y012532D01*
X014349Y012637D01*
X014406Y012775D01*
X014406Y012925D01*
X014349Y013063D01*
X014244Y013168D01*
X014106Y013226D01*
X013956Y013226D01*
X013818Y013168D01*
X013712Y013063D01*
X013655Y012925D01*
X013655Y012775D01*
X013712Y012637D01*
X013818Y012532D01*
X013894Y012500D01*
X013600Y012500D01*
X013600Y012512D01*
X013512Y012600D01*
X005300Y020812D01*
X005300Y020988D01*
X012900Y013388D01*
X012988Y013300D01*
X014405Y013300D01*
X014405Y013275D01*
X014462Y013137D01*
X014568Y013032D01*
X014706Y012974D01*
X014856Y012974D01*
X014994Y013032D01*
X015099Y013137D01*
X015156Y013275D01*
X015156Y013425D01*
X015099Y013563D01*
X014994Y013668D01*
X014856Y013726D01*
X014706Y013726D01*
X014568Y013668D01*
X014500Y013600D01*
X014312Y013600D01*
X014349Y013637D01*
X014406Y013775D01*
X014406Y013925D01*
X014349Y014063D01*
X014244Y014168D01*
X014106Y014226D01*
X013956Y014226D01*
X013818Y014168D01*
X013750Y014100D01*
X013212Y014100D01*
X005700Y021612D01*
X005700Y021788D01*
X012688Y014800D01*
X013655Y014800D01*
X013655Y014775D01*
X013712Y014637D01*
X013818Y014532D01*
X013956Y014474D01*
X014106Y014474D01*
X014244Y014532D01*
X014349Y014637D01*
X014406Y014775D01*
X014406Y014925D01*
X014349Y015063D01*
X014244Y015168D01*
X014106Y015226D01*
X013956Y015226D01*
X013818Y015168D01*
X013750Y015100D01*
X012812Y015100D01*
X005900Y022012D01*
X005900Y023488D01*
X006412Y024000D01*
X006449Y024000D01*
X006390Y023941D01*
X006325Y023784D01*
X006325Y023616D01*
X006363Y023525D01*
X006088Y023250D01*
X006000Y023162D01*
X006000Y022088D01*
X012700Y015388D01*
X012788Y015300D01*
X014403Y015300D01*
X014403Y015275D01*
X014461Y015137D01*
X014566Y015032D01*
X014704Y014974D01*
X014854Y014974D01*
X014992Y015032D01*
X015097Y015137D01*
X015155Y015275D01*
X015155Y015425D01*
X015097Y015563D01*
X014992Y015668D01*
X014854Y015726D01*
X014704Y015726D01*
X014566Y015668D01*
X014498Y015600D01*
X014401Y015600D01*
X014401Y016167D01*
X014342Y016226D01*
X013708Y016226D01*
X013649Y016167D01*
X013649Y015600D01*
X012912Y015600D01*
X006300Y022212D01*
X006300Y023038D01*
X006575Y023313D01*
X006666Y023275D01*
X006834Y023275D01*
X006991Y023340D01*
X007110Y023459D01*
X007175Y023616D01*
X007175Y023784D01*
X007110Y023941D01*
X007051Y024000D01*
X007288Y024000D01*
X007377Y023910D01*
X007325Y023784D01*
X007325Y023616D01*
X007390Y023459D01*
X007509Y023340D01*
X007666Y023275D01*
X007834Y023275D01*
X007991Y023340D01*
X008110Y023459D01*
X008175Y023616D01*
X008175Y023713D01*
X008338Y023550D01*
X008352Y023550D01*
X008390Y023459D01*
X008509Y023340D01*
X008666Y023275D01*
X008834Y023275D01*
X008991Y023340D01*
X009110Y023459D01*
X009175Y023616D01*
X009175Y023784D01*
X009110Y023941D01*
X008991Y024060D01*
X008834Y024125D01*
X008666Y024125D01*
X008509Y024060D01*
X008390Y023941D01*
X008384Y023928D01*
X007912Y024400D01*
X008688Y024400D01*
X009325Y023763D01*
X009325Y023616D01*
X009390Y023459D01*
X009509Y023340D01*
X009666Y023275D01*
X009834Y023275D01*
X009991Y023340D01*
X010110Y023459D01*
X010175Y023616D01*
X010175Y023784D01*
X010110Y023941D01*
X009991Y024060D01*
X009834Y024125D01*
X009666Y024125D01*
X009509Y024060D01*
X009481Y024031D01*
X008912Y024600D01*
X009488Y024600D01*
X010325Y023763D01*
X010325Y023616D01*
X010390Y023459D01*
X010509Y023340D01*
X010666Y023275D01*
X010834Y023275D01*
X010991Y023340D01*
X011110Y023459D01*
X011175Y023616D01*
X011175Y023784D01*
X011110Y023941D01*
X010991Y024060D01*
X010834Y024125D01*
X010666Y024125D01*
X010509Y024060D01*
X010481Y024031D01*
X009712Y024800D01*
X010288Y024800D01*
X011325Y023763D01*
X011325Y023616D01*
X011390Y023459D01*
X011509Y023340D01*
X011666Y023275D01*
X011834Y023275D01*
X011991Y023340D01*
X012100Y023449D01*
X012100Y023388D01*
X012469Y023019D01*
X012390Y022941D01*
X012325Y022784D01*
X012325Y022616D01*
X012390Y022459D01*
X012509Y022340D01*
X012666Y022275D01*
X012834Y022275D01*
X012991Y022340D01*
X013110Y022459D01*
X013175Y022616D01*
X013175Y022784D01*
X013110Y022941D01*
X012991Y023060D01*
X012834Y023125D01*
X012787Y023125D01*
X012617Y023295D01*
X012666Y023275D01*
X012834Y023275D01*
X012960Y023327D01*
X013200Y023088D01*
X013200Y023088D01*
X013288Y023000D01*
X013449Y023000D01*
X013390Y022941D01*
X013325Y022784D01*
X013325Y022616D01*
X013390Y022459D01*
X013509Y022340D01*
X013600Y022302D01*
X013600Y021288D01*
X014600Y020288D01*
X014688Y020200D01*
X016088Y020200D01*
X016400Y019888D01*
X016400Y019712D01*
X016012Y020100D01*
X013412Y020100D01*
X011900Y021612D01*
X011900Y022302D01*
X011991Y022340D01*
X012110Y022459D01*
X012175Y022616D01*
X012175Y022784D01*
X012110Y022941D01*
X011991Y023060D01*
X011834Y023125D01*
X011666Y023125D01*
X011509Y023060D01*
X011390Y022941D01*
X011325Y022784D01*
X011325Y022616D01*
X011390Y022459D01*
X011509Y022340D01*
X011600Y022302D01*
X011600Y021488D01*
X013200Y019888D01*
X013288Y019800D01*
X015888Y019800D01*
X016200Y019488D01*
X016200Y019312D01*
X015812Y019700D01*
X012812Y019700D01*
X010900Y021612D01*
X010900Y022302D01*
X010991Y022340D01*
X011110Y022459D01*
X011175Y022616D01*
X011175Y022784D01*
X011110Y022941D01*
X010991Y023060D01*
X010834Y023125D01*
X010666Y023125D01*
X010509Y023060D01*
X010390Y022941D01*
X010325Y022784D01*
X010325Y022616D01*
X010390Y022459D01*
X010509Y022340D01*
X010600Y022302D01*
X010600Y021488D01*
X012600Y019488D01*
X012688Y019400D01*
X015688Y019400D01*
X016000Y019088D01*
X016000Y018912D01*
X015612Y019300D01*
X012612Y019300D01*
X009900Y022012D01*
X009900Y022302D01*
X009991Y022340D01*
X010110Y022459D01*
X010175Y022616D01*
X010175Y022784D01*
X010110Y022941D01*
X009991Y023060D01*
X009834Y023125D01*
X009666Y023125D01*
X009509Y023060D01*
X009390Y022941D01*
X009325Y022784D01*
X009325Y022616D01*
X009390Y022459D01*
X009509Y022340D01*
X009600Y022302D01*
X009600Y021888D01*
X012400Y019088D01*
X012488Y019000D01*
X015488Y019000D01*
X015800Y018688D01*
X015754Y018734D02*
X015577Y018734D01*
X015656Y018832D02*
X015341Y018832D01*
X015557Y018931D02*
X011721Y018931D01*
X011631Y019029D02*
X012459Y019029D01*
X012360Y019128D02*
X011541Y019128D01*
X011450Y019226D02*
X012262Y019226D01*
X012163Y019325D02*
X011360Y019325D01*
X011270Y019423D02*
X012065Y019423D01*
X011966Y019522D02*
X011180Y019522D01*
X011089Y019620D02*
X011868Y019620D01*
X011769Y019719D02*
X010999Y019719D01*
X010909Y019817D02*
X011671Y019817D01*
X011572Y019916D02*
X010818Y019916D01*
X010728Y020014D02*
X011474Y020014D01*
X011375Y020113D02*
X010638Y020113D01*
X010548Y020211D02*
X011277Y020211D01*
X011178Y020310D02*
X010457Y020310D01*
X010367Y020408D02*
X011080Y020408D01*
X010981Y020507D02*
X010277Y020507D01*
X010186Y020605D02*
X010883Y020605D01*
X010784Y020704D02*
X010096Y020704D01*
X010006Y020802D02*
X010686Y020802D01*
X010587Y020901D02*
X009915Y020901D01*
X009825Y020999D02*
X010489Y020999D01*
X010390Y021098D02*
X009735Y021098D01*
X009645Y021196D02*
X010292Y021196D01*
X010193Y021295D02*
X009554Y021295D01*
X009464Y021393D02*
X010095Y021393D01*
X009996Y021492D02*
X009374Y021492D01*
X009283Y021590D02*
X009898Y021590D01*
X009799Y021689D02*
X009193Y021689D01*
X009103Y021787D02*
X009701Y021787D01*
X009602Y021886D02*
X009013Y021886D01*
X008922Y021984D02*
X009600Y021984D01*
X009600Y022083D02*
X008900Y022083D01*
X008900Y022181D02*
X009600Y022181D01*
X009600Y022280D02*
X008900Y022280D01*
X009029Y022378D02*
X009471Y022378D01*
X009383Y022477D02*
X009117Y022477D01*
X009158Y022575D02*
X009342Y022575D01*
X009325Y022674D02*
X009175Y022674D01*
X009175Y022772D02*
X009325Y022772D01*
X009361Y022871D02*
X009139Y022871D01*
X009082Y022969D02*
X009418Y022969D01*
X009527Y023068D02*
X008973Y023068D01*
X009014Y023363D02*
X009486Y023363D01*
X009389Y023462D02*
X009111Y023462D01*
X009152Y023560D02*
X009348Y023560D01*
X009325Y023659D02*
X009175Y023659D01*
X009175Y023757D02*
X009325Y023757D01*
X009232Y023856D02*
X009145Y023856D01*
X009134Y023954D02*
X009097Y023954D01*
X009035Y024053D02*
X008998Y024053D01*
X008937Y024151D02*
X008161Y024151D01*
X008260Y024053D02*
X008502Y024053D01*
X008403Y023954D02*
X008358Y023954D01*
X008400Y023700D02*
X007750Y024350D01*
X006150Y024350D01*
X005550Y023750D01*
X005550Y021550D01*
X013150Y013950D01*
X014031Y013950D01*
X014031Y013850D01*
X014379Y013710D02*
X014669Y013710D01*
X014511Y013612D02*
X014324Y013612D01*
X014406Y013809D02*
X015155Y013809D01*
X015155Y013775D02*
X015212Y013637D01*
X015318Y013532D01*
X015456Y013474D01*
X015606Y013474D01*
X015744Y013532D01*
X015849Y013637D01*
X015906Y013775D01*
X015906Y013925D01*
X015849Y014063D01*
X015744Y014168D01*
X015606Y014226D01*
X015456Y014226D01*
X015318Y014168D01*
X015212Y014063D01*
X015155Y013925D01*
X015155Y013775D01*
X015182Y013710D02*
X014893Y013710D01*
X015051Y013612D02*
X015238Y013612D01*
X015120Y013513D02*
X015363Y013513D01*
X015156Y013415D02*
X015905Y013415D01*
X015905Y013316D02*
X015156Y013316D01*
X015133Y013218D02*
X015437Y013218D01*
X015625Y013218D02*
X015929Y013218D01*
X015981Y013119D02*
X015793Y013119D01*
X015631Y012950D02*
X015531Y012850D01*
X015631Y012950D02*
X016950Y012950D01*
X018150Y014150D01*
X018150Y015950D01*
X016150Y017950D01*
X016150Y019150D01*
X015750Y019550D01*
X012750Y019550D01*
X010750Y021550D01*
X010750Y022700D01*
X011139Y022871D02*
X011361Y022871D01*
X011325Y022772D02*
X011175Y022772D01*
X011175Y022674D02*
X011325Y022674D01*
X011342Y022575D02*
X011158Y022575D01*
X011117Y022477D02*
X011383Y022477D01*
X011471Y022378D02*
X011029Y022378D01*
X010900Y022280D02*
X011600Y022280D01*
X011600Y022181D02*
X010900Y022181D01*
X010900Y022083D02*
X011600Y022083D01*
X011600Y021984D02*
X010900Y021984D01*
X010900Y021886D02*
X011600Y021886D01*
X011600Y021787D02*
X010900Y021787D01*
X010900Y021689D02*
X011600Y021689D01*
X011600Y021590D02*
X010922Y021590D01*
X011021Y021492D02*
X011600Y021492D01*
X011695Y021393D02*
X011119Y021393D01*
X011218Y021295D02*
X011793Y021295D01*
X011892Y021196D02*
X011316Y021196D01*
X011415Y021098D02*
X011990Y021098D01*
X012089Y020999D02*
X011513Y020999D01*
X011612Y020901D02*
X012187Y020901D01*
X012286Y020802D02*
X011710Y020802D01*
X011809Y020704D02*
X012384Y020704D01*
X012483Y020605D02*
X011907Y020605D01*
X012006Y020507D02*
X012581Y020507D01*
X012680Y020408D02*
X012104Y020408D01*
X012203Y020310D02*
X012778Y020310D01*
X012877Y020211D02*
X012301Y020211D01*
X012400Y020113D02*
X012975Y020113D01*
X013074Y020014D02*
X012498Y020014D01*
X012597Y019916D02*
X013172Y019916D01*
X013271Y019817D02*
X012695Y019817D01*
X012794Y019719D02*
X015969Y019719D01*
X015892Y019620D02*
X016068Y019620D01*
X015991Y019522D02*
X016166Y019522D01*
X016200Y019423D02*
X016089Y019423D01*
X016188Y019325D02*
X016200Y019325D01*
X016350Y019550D02*
X016350Y018150D01*
X018350Y016150D01*
X018350Y013350D01*
X016950Y011950D01*
X015631Y011950D01*
X015531Y011850D01*
X015155Y011839D02*
X014406Y011839D01*
X014401Y011937D02*
X015160Y011937D01*
X015201Y012036D02*
X014998Y012036D01*
X015096Y012134D02*
X015284Y012134D01*
X015139Y012233D02*
X015923Y012233D01*
X015905Y012331D02*
X015156Y012331D01*
X015154Y012430D02*
X015907Y012430D01*
X015948Y012528D02*
X015735Y012528D01*
X015839Y012627D02*
X016026Y012627D01*
X015886Y012725D02*
X016205Y012725D01*
X016357Y012725D02*
X017513Y012725D01*
X017611Y012824D02*
X017036Y012824D01*
X017134Y012922D02*
X017710Y012922D01*
X017808Y013021D02*
X017233Y013021D01*
X017331Y013119D02*
X017907Y013119D01*
X018005Y013218D02*
X017430Y013218D01*
X017528Y013316D02*
X018104Y013316D01*
X018200Y013415D02*
X017627Y013415D01*
X017725Y013513D02*
X018200Y013513D01*
X018200Y013612D02*
X017824Y013612D01*
X017922Y013710D02*
X018200Y013710D01*
X018200Y013809D02*
X018021Y013809D01*
X018119Y013907D02*
X018200Y013907D01*
X017950Y014350D02*
X016950Y013350D01*
X016281Y013350D01*
X016551Y013612D02*
X016999Y013612D01*
X017098Y013710D02*
X016393Y013710D01*
X016169Y013710D02*
X015879Y013710D01*
X015906Y013809D02*
X017196Y013809D01*
X017295Y013907D02*
X015906Y013907D01*
X015873Y014006D02*
X016131Y014006D01*
X015996Y014104D02*
X015808Y014104D01*
X015935Y014203D02*
X015661Y014203D01*
X015401Y014203D02*
X015126Y014203D01*
X015099Y014137D02*
X015156Y014275D01*
X015156Y014425D01*
X015099Y014563D01*
X014994Y014668D01*
X014856Y014726D01*
X014706Y014726D01*
X014568Y014668D01*
X014462Y014563D01*
X014405Y014425D01*
X014405Y014275D01*
X014462Y014137D01*
X014568Y014032D01*
X014706Y013974D01*
X014856Y013974D01*
X014994Y014032D01*
X015099Y014137D01*
X015066Y014104D02*
X015254Y014104D01*
X015189Y014006D02*
X014931Y014006D01*
X015155Y013907D02*
X014406Y013907D01*
X014373Y014006D02*
X014631Y014006D01*
X014496Y014104D02*
X014308Y014104D01*
X014435Y014203D02*
X014161Y014203D01*
X013901Y014203D02*
X013110Y014203D01*
X013011Y014301D02*
X014405Y014301D01*
X014405Y014400D02*
X012913Y014400D01*
X012814Y014498D02*
X013899Y014498D01*
X013753Y014597D02*
X012716Y014597D01*
X012617Y014695D02*
X013689Y014695D01*
X013655Y014794D02*
X012519Y014794D01*
X012596Y014892D02*
X012420Y014892D01*
X012497Y014991D02*
X012322Y014991D01*
X012399Y015089D02*
X012223Y015089D01*
X012300Y015188D02*
X012125Y015188D01*
X012202Y015286D02*
X012026Y015286D01*
X012103Y015385D02*
X011928Y015385D01*
X012005Y015483D02*
X011829Y015483D01*
X011906Y015582D02*
X011731Y015582D01*
X011808Y015680D02*
X011632Y015680D01*
X011709Y015779D02*
X011534Y015779D01*
X011611Y015877D02*
X011435Y015877D01*
X011512Y015976D02*
X011337Y015976D01*
X011414Y016074D02*
X011238Y016074D01*
X011315Y016173D02*
X011140Y016173D01*
X011217Y016271D02*
X011041Y016271D01*
X011118Y016370D02*
X010943Y016370D01*
X011020Y016468D02*
X010844Y016468D01*
X010921Y016567D02*
X010746Y016567D01*
X010823Y016665D02*
X010647Y016665D01*
X010724Y016764D02*
X010549Y016764D01*
X010626Y016862D02*
X010450Y016862D01*
X010527Y016961D02*
X010352Y016961D01*
X010429Y017059D02*
X010253Y017059D01*
X010330Y017158D02*
X010155Y017158D01*
X010232Y017256D02*
X010056Y017256D01*
X010133Y017355D02*
X009958Y017355D01*
X010035Y017453D02*
X009859Y017453D01*
X009936Y017552D02*
X009761Y017552D01*
X009838Y017650D02*
X009662Y017650D01*
X009739Y017749D02*
X009564Y017749D01*
X009641Y017847D02*
X009465Y017847D01*
X009542Y017946D02*
X009367Y017946D01*
X009444Y018044D02*
X009268Y018044D01*
X009345Y018143D02*
X009170Y018143D01*
X009247Y018241D02*
X009071Y018241D01*
X009148Y018340D02*
X008973Y018340D01*
X009050Y018438D02*
X008874Y018438D01*
X008951Y018537D02*
X008776Y018537D01*
X008853Y018635D02*
X008677Y018635D01*
X008754Y018734D02*
X008579Y018734D01*
X008656Y018832D02*
X008480Y018832D01*
X008557Y018931D02*
X008382Y018931D01*
X008459Y019029D02*
X008283Y019029D01*
X008360Y019128D02*
X008185Y019128D01*
X008262Y019226D02*
X008086Y019226D01*
X008163Y019325D02*
X007988Y019325D01*
X008065Y019423D02*
X007889Y019423D01*
X007966Y019522D02*
X007791Y019522D01*
X007868Y019620D02*
X007692Y019620D01*
X007769Y019719D02*
X007594Y019719D01*
X007671Y019817D02*
X007495Y019817D01*
X007572Y019916D02*
X007397Y019916D01*
X007474Y020014D02*
X007298Y020014D01*
X007375Y020113D02*
X007200Y020113D01*
X007277Y020211D02*
X007101Y020211D01*
X007178Y020310D02*
X007003Y020310D01*
X007080Y020408D02*
X006904Y020408D01*
X006981Y020507D02*
X006806Y020507D01*
X006883Y020605D02*
X006707Y020605D01*
X006784Y020704D02*
X006609Y020704D01*
X006686Y020802D02*
X006510Y020802D01*
X006587Y020901D02*
X006412Y020901D01*
X006489Y020999D02*
X006313Y020999D01*
X006390Y021098D02*
X006215Y021098D01*
X006292Y021196D02*
X006116Y021196D01*
X006193Y021295D02*
X006018Y021295D01*
X006095Y021393D02*
X005919Y021393D01*
X005996Y021492D02*
X005821Y021492D01*
X005898Y021590D02*
X005722Y021590D01*
X005700Y021689D02*
X005799Y021689D01*
X005701Y021787D02*
X005700Y021787D01*
X005750Y021950D02*
X005750Y023550D01*
X006350Y024150D01*
X007350Y024150D01*
X007750Y023750D01*
X007750Y023700D01*
X007355Y023856D02*
X007145Y023856D01*
X007175Y023757D02*
X007325Y023757D01*
X007325Y023659D02*
X007175Y023659D01*
X007152Y023560D02*
X007348Y023560D01*
X007389Y023462D02*
X007111Y023462D01*
X007014Y023363D02*
X007486Y023363D01*
X007527Y023068D02*
X006973Y023068D01*
X007082Y022969D02*
X007418Y022969D01*
X007361Y022871D02*
X007139Y022871D01*
X007175Y022772D02*
X007325Y022772D01*
X007325Y022674D02*
X007175Y022674D01*
X007158Y022575D02*
X007342Y022575D01*
X007383Y022477D02*
X007117Y022477D01*
X007029Y022378D02*
X007471Y022378D01*
X007600Y022280D02*
X006900Y022280D01*
X006931Y022181D02*
X007600Y022181D01*
X007600Y022083D02*
X007030Y022083D01*
X007128Y021984D02*
X007600Y021984D01*
X007602Y021886D02*
X007227Y021886D01*
X007325Y021787D02*
X007698Y021787D01*
X007793Y021689D02*
X007424Y021689D01*
X007522Y021590D02*
X007888Y021590D01*
X007982Y021492D02*
X007621Y021492D01*
X007719Y021393D02*
X008077Y021393D01*
X008171Y021295D02*
X007818Y021295D01*
X007916Y021196D02*
X008266Y021196D01*
X008360Y021098D02*
X008015Y021098D01*
X008113Y020999D02*
X008455Y020999D01*
X008550Y020901D02*
X008212Y020901D01*
X008310Y020802D02*
X008644Y020802D01*
X008739Y020704D02*
X008409Y020704D01*
X008507Y020605D02*
X008833Y020605D01*
X008928Y020507D02*
X008606Y020507D01*
X008704Y020408D02*
X009022Y020408D01*
X009117Y020310D02*
X008803Y020310D01*
X008901Y020211D02*
X009211Y020211D01*
X009306Y020113D02*
X009000Y020113D01*
X009098Y020014D02*
X009401Y020014D01*
X009495Y019916D02*
X009197Y019916D01*
X009295Y019817D02*
X009590Y019817D01*
X009684Y019719D02*
X009394Y019719D01*
X009492Y019620D02*
X009779Y019620D01*
X009873Y019522D02*
X009591Y019522D01*
X009689Y019423D02*
X009968Y019423D01*
X010062Y019325D02*
X009788Y019325D01*
X009886Y019226D02*
X010157Y019226D01*
X010252Y019128D02*
X009985Y019128D01*
X010083Y019029D02*
X010346Y019029D01*
X010441Y018931D02*
X010182Y018931D01*
X010280Y018832D02*
X010535Y018832D01*
X010630Y018734D02*
X010379Y018734D01*
X010477Y018635D02*
X010724Y018635D01*
X010819Y018537D02*
X010576Y018537D01*
X010674Y018438D02*
X010914Y018438D01*
X011008Y018340D02*
X010773Y018340D01*
X010871Y018241D02*
X011103Y018241D01*
X011197Y018143D02*
X010970Y018143D01*
X011068Y018044D02*
X011292Y018044D01*
X011386Y017946D02*
X011167Y017946D01*
X011265Y017847D02*
X011481Y017847D01*
X011575Y017749D02*
X011364Y017749D01*
X011462Y017650D02*
X011670Y017650D01*
X011765Y017552D02*
X011561Y017552D01*
X011659Y017453D02*
X011859Y017453D01*
X011954Y017355D02*
X011758Y017355D01*
X011856Y017256D02*
X012048Y017256D01*
X011955Y017158D02*
X012143Y017158D01*
X012053Y017059D02*
X012237Y017059D01*
X012152Y016961D02*
X012332Y016961D01*
X012550Y016950D02*
X015350Y016950D01*
X016350Y016150D01*
X016750Y016150D01*
X017350Y015550D01*
X017350Y015350D01*
X016950Y014950D01*
X015531Y014950D01*
X015531Y014850D01*
X015183Y014991D02*
X014893Y014991D01*
X015049Y015089D02*
X015239Y015089D01*
X015118Y015188D02*
X015364Y015188D01*
X015155Y015286D02*
X015905Y015286D01*
X015905Y015385D02*
X015155Y015385D01*
X015130Y015483D02*
X015431Y015483D01*
X015623Y015483D02*
X015929Y015483D01*
X015981Y015582D02*
X015790Y015582D01*
X015863Y015680D02*
X016096Y015680D01*
X015903Y015779D02*
X016909Y015779D01*
X016811Y015877D02*
X015903Y015877D01*
X015882Y015976D02*
X016712Y015976D01*
X016466Y015680D02*
X017008Y015680D01*
X017106Y015582D02*
X016581Y015582D01*
X016632Y015483D02*
X017200Y015483D01*
X017172Y015385D02*
X016656Y015385D01*
X016656Y015286D02*
X017074Y015286D01*
X016975Y015188D02*
X016620Y015188D01*
X016429Y014695D02*
X017483Y014695D01*
X017581Y014794D02*
X015906Y014794D01*
X015873Y014695D02*
X016132Y014695D01*
X015996Y014597D02*
X015809Y014597D01*
X015936Y014498D02*
X015663Y014498D01*
X015905Y014400D02*
X015156Y014400D01*
X015156Y014301D02*
X015905Y014301D01*
X015399Y014498D02*
X015126Y014498D01*
X015066Y014597D02*
X015253Y014597D01*
X015189Y014695D02*
X014929Y014695D01*
X015155Y014794D02*
X014406Y014794D01*
X014406Y014892D02*
X015155Y014892D01*
X014665Y014991D02*
X014379Y014991D01*
X014323Y015089D02*
X014509Y015089D01*
X014440Y015188D02*
X014197Y015188D01*
X014403Y015286D02*
X012626Y015286D01*
X012703Y015385D02*
X012528Y015385D01*
X012605Y015483D02*
X012429Y015483D01*
X012506Y015582D02*
X012331Y015582D01*
X012408Y015680D02*
X012232Y015680D01*
X012309Y015779D02*
X012134Y015779D01*
X012211Y015877D02*
X012035Y015877D01*
X012112Y015976D02*
X011937Y015976D01*
X012014Y016074D02*
X011838Y016074D01*
X011915Y016173D02*
X011740Y016173D01*
X011817Y016271D02*
X011641Y016271D01*
X011718Y016370D02*
X011543Y016370D01*
X011620Y016468D02*
X011444Y016468D01*
X011521Y016567D02*
X011346Y016567D01*
X011423Y016665D02*
X011247Y016665D01*
X011324Y016764D02*
X011149Y016764D01*
X011226Y016862D02*
X011050Y016862D01*
X011127Y016961D02*
X010952Y016961D01*
X011029Y017059D02*
X010853Y017059D01*
X010930Y017158D02*
X010755Y017158D01*
X010832Y017256D02*
X010656Y017256D01*
X010733Y017355D02*
X010558Y017355D01*
X010635Y017453D02*
X010459Y017453D01*
X010536Y017552D02*
X010361Y017552D01*
X010438Y017650D02*
X010262Y017650D01*
X010339Y017749D02*
X010164Y017749D01*
X010241Y017847D02*
X010065Y017847D01*
X010142Y017946D02*
X009967Y017946D01*
X010044Y018044D02*
X009868Y018044D01*
X009945Y018143D02*
X009770Y018143D01*
X009847Y018241D02*
X009671Y018241D01*
X009748Y018340D02*
X009573Y018340D01*
X009650Y018438D02*
X009474Y018438D01*
X009551Y018537D02*
X009376Y018537D01*
X009453Y018635D02*
X009277Y018635D01*
X009354Y018734D02*
X009179Y018734D01*
X009256Y018832D02*
X009080Y018832D01*
X009157Y018931D02*
X008982Y018931D01*
X009059Y019029D02*
X008883Y019029D01*
X008960Y019128D02*
X008785Y019128D01*
X008862Y019226D02*
X008686Y019226D01*
X008763Y019325D02*
X008588Y019325D01*
X008665Y019423D02*
X008489Y019423D01*
X008566Y019522D02*
X008391Y019522D01*
X008468Y019620D02*
X008292Y019620D01*
X008369Y019719D02*
X008194Y019719D01*
X008271Y019817D02*
X008095Y019817D01*
X008172Y019916D02*
X007997Y019916D01*
X008074Y020014D02*
X007898Y020014D01*
X007975Y020113D02*
X007800Y020113D01*
X007877Y020211D02*
X007701Y020211D01*
X007778Y020310D02*
X007603Y020310D01*
X007680Y020408D02*
X007504Y020408D01*
X007581Y020507D02*
X007406Y020507D01*
X007483Y020605D02*
X007307Y020605D01*
X007384Y020704D02*
X007209Y020704D01*
X007286Y020802D02*
X007110Y020802D01*
X007187Y020901D02*
X007012Y020901D01*
X007089Y020999D02*
X006913Y020999D01*
X006990Y021098D02*
X006815Y021098D01*
X006892Y021196D02*
X006716Y021196D01*
X006793Y021295D02*
X006618Y021295D01*
X006695Y021393D02*
X006519Y021393D01*
X006596Y021492D02*
X006421Y021492D01*
X006498Y021590D02*
X006322Y021590D01*
X006399Y021689D02*
X006224Y021689D01*
X006301Y021787D02*
X006125Y021787D01*
X006202Y021886D02*
X006027Y021886D01*
X006104Y021984D02*
X005928Y021984D01*
X005900Y022083D02*
X006005Y022083D01*
X006000Y022181D02*
X005900Y022181D01*
X005900Y022280D02*
X006000Y022280D01*
X006000Y022378D02*
X005900Y022378D01*
X005900Y022477D02*
X006000Y022477D01*
X006000Y022575D02*
X005900Y022575D01*
X005900Y022674D02*
X006000Y022674D01*
X006000Y022772D02*
X005900Y022772D01*
X005900Y022871D02*
X006000Y022871D01*
X006000Y022969D02*
X005900Y022969D01*
X005900Y023068D02*
X006000Y023068D01*
X006004Y023166D02*
X005900Y023166D01*
X005900Y023265D02*
X006102Y023265D01*
X006201Y023363D02*
X005900Y023363D01*
X005900Y023462D02*
X006299Y023462D01*
X006348Y023560D02*
X005972Y023560D01*
X006071Y023659D02*
X006325Y023659D01*
X006325Y023757D02*
X006169Y023757D01*
X006268Y023856D02*
X006355Y023856D01*
X006366Y023954D02*
X006403Y023954D01*
X006750Y023700D02*
X006150Y023100D01*
X006150Y022150D01*
X012850Y015450D01*
X014779Y015450D01*
X014779Y015350D01*
X014964Y015680D02*
X015191Y015680D01*
X015151Y015779D02*
X014401Y015779D01*
X014401Y015877D02*
X015151Y015877D01*
X015172Y015976D02*
X014401Y015976D01*
X014401Y016074D02*
X015091Y016074D01*
X014992Y016173D02*
X014395Y016173D01*
X014800Y016370D02*
X012143Y016370D01*
X012044Y016468D02*
X014800Y016468D01*
X014800Y016567D02*
X011946Y016567D01*
X012023Y016665D02*
X011847Y016665D01*
X011924Y016764D02*
X011749Y016764D01*
X011826Y016862D02*
X011650Y016862D01*
X011727Y016961D02*
X011552Y016961D01*
X011629Y017059D02*
X011453Y017059D01*
X011530Y017158D02*
X011355Y017158D01*
X011432Y017256D02*
X011256Y017256D01*
X011333Y017355D02*
X011158Y017355D01*
X011235Y017453D02*
X011059Y017453D01*
X011136Y017552D02*
X010961Y017552D01*
X011038Y017650D02*
X010862Y017650D01*
X010939Y017749D02*
X010764Y017749D01*
X010841Y017847D02*
X010665Y017847D01*
X010742Y017946D02*
X010567Y017946D01*
X010644Y018044D02*
X010468Y018044D01*
X010545Y018143D02*
X010370Y018143D01*
X010447Y018241D02*
X010271Y018241D01*
X010348Y018340D02*
X010173Y018340D01*
X010250Y018438D02*
X010074Y018438D01*
X010151Y018537D02*
X009976Y018537D01*
X010053Y018635D02*
X009877Y018635D01*
X009954Y018734D02*
X009779Y018734D01*
X009856Y018832D02*
X009680Y018832D01*
X009757Y018931D02*
X009582Y018931D01*
X009659Y019029D02*
X009483Y019029D01*
X009560Y019128D02*
X009385Y019128D01*
X009462Y019226D02*
X009286Y019226D01*
X009363Y019325D02*
X009188Y019325D01*
X009265Y019423D02*
X009089Y019423D01*
X009166Y019522D02*
X008991Y019522D01*
X009068Y019620D02*
X008892Y019620D01*
X008969Y019719D02*
X008794Y019719D01*
X008871Y019817D02*
X008695Y019817D01*
X008772Y019916D02*
X008597Y019916D01*
X008674Y020014D02*
X008498Y020014D01*
X008575Y020113D02*
X008400Y020113D01*
X008477Y020211D02*
X008301Y020211D01*
X008378Y020310D02*
X008203Y020310D01*
X008280Y020408D02*
X008104Y020408D01*
X008181Y020507D02*
X008006Y020507D01*
X008083Y020605D02*
X007907Y020605D01*
X007984Y020704D02*
X007809Y020704D01*
X007886Y020802D02*
X007710Y020802D01*
X007787Y020901D02*
X007612Y020901D01*
X007689Y020999D02*
X007513Y020999D01*
X007590Y021098D02*
X007415Y021098D01*
X007492Y021196D02*
X007316Y021196D01*
X007393Y021295D02*
X007218Y021295D01*
X007295Y021393D02*
X007119Y021393D01*
X007196Y021492D02*
X007021Y021492D01*
X007098Y021590D02*
X006922Y021590D01*
X006999Y021689D02*
X006824Y021689D01*
X006901Y021787D02*
X006725Y021787D01*
X006802Y021886D02*
X006627Y021886D01*
X006704Y021984D02*
X006528Y021984D01*
X006605Y022083D02*
X006430Y022083D01*
X006331Y022181D02*
X006600Y022181D01*
X006600Y022280D02*
X006300Y022280D01*
X006300Y022378D02*
X006471Y022378D01*
X006383Y022477D02*
X006300Y022477D01*
X006300Y022575D02*
X006342Y022575D01*
X006325Y022674D02*
X006300Y022674D01*
X006300Y022772D02*
X006325Y022772D01*
X006300Y022871D02*
X006361Y022871D01*
X006418Y022969D02*
X006300Y022969D01*
X006330Y023068D02*
X006527Y023068D01*
X006428Y023166D02*
X012322Y023166D01*
X012420Y023068D02*
X011973Y023068D01*
X012082Y022969D02*
X012418Y022969D01*
X012361Y022871D02*
X012139Y022871D01*
X012175Y022772D02*
X012325Y022772D01*
X012325Y022674D02*
X012175Y022674D01*
X012158Y022575D02*
X012342Y022575D01*
X012383Y022477D02*
X012117Y022477D01*
X012029Y022378D02*
X012471Y022378D01*
X012655Y022280D02*
X011900Y022280D01*
X011900Y022181D02*
X013600Y022181D01*
X013600Y022083D02*
X011900Y022083D01*
X011900Y021984D02*
X013600Y021984D01*
X013600Y021886D02*
X011900Y021886D01*
X011900Y021787D02*
X013600Y021787D01*
X013600Y021689D02*
X011900Y021689D01*
X011922Y021590D02*
X013600Y021590D01*
X013600Y021492D02*
X012021Y021492D01*
X012119Y021393D02*
X013600Y021393D01*
X013600Y021295D02*
X012218Y021295D01*
X012316Y021196D02*
X013692Y021196D01*
X013790Y021098D02*
X012415Y021098D01*
X012513Y020999D02*
X013889Y020999D01*
X013987Y020901D02*
X012612Y020901D01*
X012710Y020802D02*
X014086Y020802D01*
X014184Y020704D02*
X012809Y020704D01*
X012907Y020605D02*
X014283Y020605D01*
X014381Y020507D02*
X013006Y020507D01*
X013104Y020408D02*
X014480Y020408D01*
X014578Y020310D02*
X013203Y020310D01*
X013301Y020211D02*
X014677Y020211D01*
X014750Y020350D02*
X016150Y020350D01*
X016550Y019950D01*
X016550Y018350D01*
X018550Y016350D01*
X018550Y012750D01*
X017150Y011350D01*
X016281Y011350D01*
X016521Y011642D02*
X017229Y011642D01*
X017328Y011740D02*
X015892Y011740D01*
X015851Y011642D02*
X016041Y011642D01*
X015954Y011543D02*
X015755Y011543D01*
X015914Y011445D02*
X015148Y011445D01*
X015156Y011425D02*
X015099Y011563D01*
X014994Y011668D01*
X014856Y011726D01*
X014706Y011726D01*
X014568Y011668D01*
X014462Y011563D01*
X014405Y011425D01*
X014405Y011275D01*
X014462Y011137D01*
X014568Y011032D01*
X014706Y010974D01*
X014856Y010974D01*
X014994Y011032D01*
X015099Y011137D01*
X015156Y011275D01*
X015156Y011425D01*
X015156Y011346D02*
X015905Y011346D01*
X015917Y011248D02*
X015145Y011248D01*
X015104Y011149D02*
X015299Y011149D01*
X015318Y011168D02*
X015212Y011063D01*
X015155Y010925D01*
X015155Y010775D01*
X015212Y010637D01*
X015318Y010532D01*
X015456Y010474D01*
X015606Y010474D01*
X015744Y010532D01*
X015849Y010637D01*
X015906Y010775D01*
X015906Y010925D01*
X015849Y011063D01*
X015744Y011168D01*
X015606Y011226D01*
X015456Y011226D01*
X015318Y011168D01*
X015207Y011051D02*
X015013Y011051D01*
X015167Y010952D02*
X014395Y010952D01*
X014406Y010854D02*
X015155Y010854D01*
X015164Y010755D02*
X014398Y010755D01*
X014357Y010657D02*
X014556Y010657D01*
X014461Y010558D02*
X014270Y010558D01*
X014031Y010850D02*
X013850Y010850D01*
X004750Y019950D01*
X004750Y024550D01*
X005350Y025150D01*
X011150Y025150D01*
X012250Y024050D01*
X012250Y023450D01*
X012750Y022950D01*
X012750Y022750D01*
X012973Y023068D02*
X013220Y023068D01*
X013122Y023166D02*
X012746Y023166D01*
X012648Y023265D02*
X013023Y023265D01*
X013082Y022969D02*
X013418Y022969D01*
X013361Y022871D02*
X013139Y022871D01*
X013175Y022772D02*
X013325Y022772D01*
X013325Y022674D02*
X013175Y022674D01*
X013158Y022575D02*
X013342Y022575D01*
X013383Y022477D02*
X013117Y022477D01*
X013029Y022378D02*
X013471Y022378D01*
X013600Y022280D02*
X012845Y022280D01*
X013750Y022700D02*
X013750Y021350D01*
X014750Y020350D01*
X015550Y020750D02*
X016350Y020750D01*
X016750Y020350D01*
X016750Y018550D01*
X018750Y016550D01*
X018750Y012150D01*
X016950Y010350D01*
X016281Y010350D01*
X016528Y010066D02*
X017253Y010066D01*
X017352Y010164D02*
X016610Y010164D01*
X017075Y010263D02*
X017450Y010263D01*
X017549Y010361D02*
X017173Y010361D01*
X017272Y010460D02*
X017647Y010460D01*
X017746Y010558D02*
X017370Y010558D01*
X017469Y010657D02*
X017844Y010657D01*
X017943Y010755D02*
X017567Y010755D01*
X017666Y010854D02*
X018041Y010854D01*
X018140Y010952D02*
X017764Y010952D01*
X017863Y011051D02*
X018238Y011051D01*
X018337Y011149D02*
X017961Y011149D01*
X018060Y011248D02*
X018435Y011248D01*
X018534Y011346D02*
X018158Y011346D01*
X018257Y011445D02*
X018632Y011445D01*
X018731Y011543D02*
X018355Y011543D01*
X018454Y011642D02*
X018800Y011642D01*
X018800Y011740D02*
X018552Y011740D01*
X018651Y011839D02*
X018800Y011839D01*
X018800Y011937D02*
X018749Y011937D01*
X018522Y012134D02*
X018146Y012134D01*
X018048Y012036D02*
X018423Y012036D01*
X018325Y011937D02*
X017949Y011937D01*
X017851Y011839D02*
X018226Y011839D01*
X018128Y011740D02*
X017752Y011740D01*
X017654Y011642D02*
X018029Y011642D01*
X017931Y011543D02*
X017555Y011543D01*
X017457Y011445D02*
X017832Y011445D01*
X017734Y011346D02*
X017358Y011346D01*
X017260Y011248D02*
X017635Y011248D01*
X017537Y011149D02*
X016604Y011149D01*
X016513Y011051D02*
X017438Y011051D01*
X017340Y010952D02*
X015895Y010952D01*
X015906Y010854D02*
X017241Y010854D01*
X017143Y010755D02*
X015898Y010755D01*
X015857Y010657D02*
X016056Y010657D01*
X015961Y010558D02*
X015770Y010558D01*
X015920Y010460D02*
X015142Y010460D01*
X015156Y010361D02*
X015905Y010361D01*
X015911Y010263D02*
X015151Y010263D01*
X015110Y010164D02*
X015314Y010164D01*
X015215Y010066D02*
X015028Y010066D01*
X015173Y009967D02*
X014389Y009967D01*
X014406Y009869D02*
X015155Y009869D01*
X015157Y009770D02*
X014404Y009770D01*
X014364Y009672D02*
X014576Y009672D01*
X014473Y009573D02*
X014285Y009573D01*
X014031Y009850D02*
X013850Y009850D01*
X004150Y019550D01*
X003850Y019950D01*
X003350Y019950D02*
X013950Y009350D01*
X014781Y009350D01*
X015043Y009081D02*
X015230Y009081D01*
X015212Y009063D02*
X015155Y008925D01*
X015155Y008775D01*
X015212Y008637D01*
X015318Y008532D01*
X015456Y008474D01*
X015606Y008474D01*
X015744Y008532D01*
X015849Y008637D01*
X015906Y008775D01*
X015906Y008800D01*
X017012Y008800D01*
X017100Y008888D01*
X019200Y010988D01*
X019200Y010812D01*
X017088Y008700D01*
X016419Y008700D01*
X016418Y008700D01*
X016356Y008726D01*
X016206Y008726D01*
X016068Y008668D01*
X015962Y008563D01*
X015905Y008425D01*
X015905Y008275D01*
X015962Y008137D01*
X016068Y008032D01*
X016206Y007974D01*
X016356Y007974D01*
X016494Y008032D01*
X016599Y008137D01*
X016656Y008275D01*
X016656Y008400D01*
X017188Y008400D01*
X016688Y007900D01*
X016619Y007900D01*
X016418Y007700D01*
X016356Y007726D01*
X016206Y007726D01*
X016068Y007668D01*
X015962Y007563D01*
X015905Y007425D01*
X015905Y007275D01*
X015962Y007137D01*
X016000Y007100D01*
X015812Y007100D01*
X015744Y007168D01*
X015606Y007226D01*
X015456Y007226D01*
X015318Y007168D01*
X015212Y007063D01*
X015155Y006925D01*
X015155Y006775D01*
X015212Y006637D01*
X015318Y006532D01*
X015456Y006474D01*
X015606Y006474D01*
X015744Y006532D01*
X015849Y006637D01*
X015906Y006775D01*
X015906Y006800D01*
X017012Y006800D01*
X017100Y006888D01*
X019800Y009588D01*
X019800Y009412D01*
X016652Y006264D01*
X016656Y006275D01*
X016656Y006425D01*
X016599Y006563D01*
X016494Y006668D01*
X016356Y006726D01*
X016206Y006726D01*
X016068Y006668D01*
X015962Y006563D01*
X015905Y006425D01*
X015905Y006275D01*
X015962Y006137D01*
X016000Y006100D01*
X015812Y006100D01*
X015744Y006168D01*
X015606Y006226D01*
X015456Y006226D01*
X015318Y006168D01*
X015212Y006063D01*
X015155Y005925D01*
X015155Y005775D01*
X015212Y005637D01*
X015318Y005532D01*
X015456Y005474D01*
X015606Y005474D01*
X015744Y005532D01*
X015849Y005637D01*
X015906Y005775D01*
X015906Y005800D01*
X016612Y005800D01*
X016700Y005888D01*
X020100Y009288D01*
X020100Y017488D01*
X020900Y018288D01*
X020900Y022302D01*
X020991Y022340D01*
X021110Y022459D01*
X021175Y022616D01*
X021175Y022784D01*
X021110Y022941D01*
X021051Y023000D01*
X021381Y023000D01*
X021344Y022949D01*
X021310Y022882D01*
X021287Y022811D01*
X021277Y022750D01*
X021700Y022750D01*
X021700Y022650D01*
X021800Y022650D01*
X021800Y022227D01*
X021861Y022237D01*
X021932Y022260D01*
X021999Y022294D01*
X022059Y022338D01*
X022100Y022379D01*
X022100Y019022D01*
X022020Y018958D01*
X021949Y019030D01*
X021551Y019030D01*
X021270Y018749D01*
X021270Y018351D01*
X021551Y018070D01*
X021949Y018070D01*
X022230Y018351D01*
X022230Y018742D01*
X022303Y018800D01*
X022312Y018800D01*
X022350Y018838D01*
X022392Y018872D01*
X022393Y018881D01*
X022400Y018888D01*
X022400Y018942D01*
X022406Y018995D01*
X022400Y019003D01*
X022400Y022449D01*
X022509Y022340D01*
X022600Y022302D01*
X022600Y011612D01*
X018400Y007412D01*
X018400Y006612D01*
X016467Y004679D01*
X016356Y004726D01*
X016238Y004726D01*
X016300Y004788D01*
X016300Y004974D01*
X016356Y004974D01*
X016494Y005032D01*
X016599Y005137D01*
X016656Y005275D01*
X016656Y005425D01*
X016599Y005563D01*
X016494Y005668D01*
X016356Y005726D01*
X016206Y005726D01*
X016068Y005668D01*
X015962Y005563D01*
X015905Y005425D01*
X015905Y005275D01*
X015962Y005137D01*
X016000Y005100D01*
X016000Y004912D01*
X015906Y004819D01*
X015906Y004925D01*
X015849Y005063D01*
X015744Y005168D01*
X015606Y005226D01*
X015456Y005226D01*
X015318Y005168D01*
X015212Y005063D01*
X015155Y004925D01*
X015155Y004775D01*
X015212Y004637D01*
X015318Y004532D01*
X015371Y004510D01*
X015332Y004500D01*
X015288Y004500D01*
X015273Y004485D01*
X015253Y004480D01*
X015231Y004443D01*
X015156Y004369D01*
X015156Y004425D01*
X015099Y004563D01*
X014994Y004668D01*
X014856Y004726D01*
X014706Y004726D01*
X014568Y004668D01*
X014462Y004563D01*
X014437Y004500D01*
X014167Y004500D01*
X014244Y004532D01*
X014349Y004637D01*
X014406Y004775D01*
X014406Y004925D01*
X014349Y005063D01*
X014244Y005168D01*
X014106Y005226D01*
X014087Y005226D01*
X014012Y005300D01*
X012900Y006412D01*
X012900Y007012D01*
X013000Y007012D01*
X013000Y007088D02*
X013000Y006688D01*
X013687Y006001D01*
X013655Y005925D01*
X013655Y005775D01*
X013712Y005637D01*
X013818Y005532D01*
X013956Y005474D01*
X014106Y005474D01*
X014244Y005532D01*
X014349Y005637D01*
X014406Y005775D01*
X014406Y005925D01*
X014349Y006063D01*
X014244Y006168D01*
X014167Y006200D01*
X014437Y006200D01*
X014462Y006137D01*
X014568Y006032D01*
X014706Y005974D01*
X014856Y005974D01*
X014994Y006032D01*
X015099Y006137D01*
X015156Y006275D01*
X015156Y006425D01*
X015099Y006563D01*
X014994Y006668D01*
X014856Y006726D01*
X014706Y006726D01*
X014568Y006668D01*
X014462Y006563D01*
X014437Y006500D01*
X014167Y006500D01*
X014244Y006532D01*
X014349Y006637D01*
X014406Y006775D01*
X014406Y006925D01*
X014349Y007063D01*
X014244Y007168D01*
X014167Y007200D01*
X014437Y007200D01*
X014462Y007137D01*
X014568Y007032D01*
X014706Y006974D01*
X014856Y006974D01*
X014994Y007032D01*
X015099Y007137D01*
X015156Y007275D01*
X015156Y007425D01*
X015099Y007563D01*
X014994Y007668D01*
X014856Y007726D01*
X014706Y007726D01*
X014568Y007668D01*
X014462Y007563D01*
X014437Y007500D01*
X014167Y007500D01*
X014244Y007532D01*
X014349Y007637D01*
X014406Y007775D01*
X014406Y007925D01*
X014349Y008063D01*
X014244Y008168D01*
X014106Y008226D01*
X013956Y008226D01*
X013893Y008200D01*
X003100Y018993D01*
X003100Y019588D01*
X013687Y009001D01*
X013655Y008925D01*
X013655Y008775D01*
X013712Y008637D01*
X013818Y008532D01*
X013956Y008474D01*
X014106Y008474D01*
X014244Y008532D01*
X014349Y008637D01*
X014406Y008775D01*
X014406Y008925D01*
X014349Y009063D01*
X014244Y009168D01*
X014167Y009200D01*
X014437Y009200D01*
X014462Y009137D01*
X014568Y009032D01*
X014706Y008974D01*
X014856Y008974D01*
X014994Y009032D01*
X015099Y009137D01*
X015156Y009275D01*
X015156Y009425D01*
X015156Y009376D02*
X015905Y009376D01*
X015905Y009425D02*
X015905Y009275D01*
X015962Y009137D01*
X016000Y009100D01*
X015812Y009100D01*
X015744Y009168D01*
X015606Y009226D01*
X015456Y009226D01*
X015318Y009168D01*
X015212Y009063D01*
X015179Y008982D02*
X014874Y008982D01*
X014688Y008982D02*
X014383Y008982D01*
X014406Y008884D02*
X015155Y008884D01*
X015155Y008785D02*
X014406Y008785D01*
X014370Y008687D02*
X014612Y008687D01*
X014568Y008668D02*
X014462Y008563D01*
X014405Y008425D01*
X014405Y008275D01*
X014462Y008137D01*
X014568Y008032D01*
X014706Y007974D01*
X014856Y007974D01*
X014994Y008032D01*
X015099Y008137D01*
X015156Y008275D01*
X015156Y008425D01*
X015099Y008563D01*
X014994Y008668D01*
X014856Y008726D01*
X014706Y008726D01*
X014568Y008668D01*
X014488Y008588D02*
X014300Y008588D01*
X014432Y008490D02*
X014142Y008490D01*
X013920Y008490D02*
X013604Y008490D01*
X013702Y008391D02*
X014405Y008391D01*
X014405Y008293D02*
X013801Y008293D01*
X013762Y008588D02*
X013505Y008588D01*
X013407Y008687D02*
X013692Y008687D01*
X013655Y008785D02*
X013308Y008785D01*
X013210Y008884D02*
X013655Y008884D01*
X013679Y008982D02*
X013111Y008982D01*
X013013Y009081D02*
X013607Y009081D01*
X013509Y009179D02*
X012914Y009179D01*
X012816Y009278D02*
X013410Y009278D01*
X013312Y009376D02*
X012717Y009376D01*
X012619Y009475D02*
X013213Y009475D01*
X013115Y009573D02*
X012520Y009573D01*
X012422Y009672D02*
X013016Y009672D01*
X012918Y009770D02*
X012323Y009770D01*
X012225Y009869D02*
X012819Y009869D01*
X012721Y009967D02*
X012126Y009967D01*
X012028Y010066D02*
X012622Y010066D01*
X012524Y010164D02*
X011929Y010164D01*
X011831Y010263D02*
X012425Y010263D01*
X012327Y010361D02*
X011732Y010361D01*
X011634Y010460D02*
X012228Y010460D01*
X012130Y010558D02*
X011535Y010558D01*
X011437Y010657D02*
X012031Y010657D01*
X011933Y010755D02*
X011338Y010755D01*
X011240Y010854D02*
X011834Y010854D01*
X011736Y010952D02*
X011141Y010952D01*
X011043Y011051D02*
X011637Y011051D01*
X011539Y011149D02*
X010944Y011149D01*
X010846Y011248D02*
X011440Y011248D01*
X011342Y011346D02*
X010747Y011346D01*
X010649Y011445D02*
X011243Y011445D01*
X011145Y011543D02*
X010550Y011543D01*
X010452Y011642D02*
X011046Y011642D01*
X010948Y011740D02*
X010353Y011740D01*
X010255Y011839D02*
X010849Y011839D01*
X010751Y011937D02*
X010156Y011937D01*
X010058Y012036D02*
X010652Y012036D01*
X010554Y012134D02*
X009959Y012134D01*
X009861Y012233D02*
X010455Y012233D01*
X010357Y012331D02*
X009762Y012331D01*
X009664Y012430D02*
X010258Y012430D01*
X010160Y012528D02*
X009565Y012528D01*
X009466Y012627D02*
X010061Y012627D01*
X009963Y012725D02*
X009368Y012725D01*
X009269Y012824D02*
X009864Y012824D01*
X009766Y012922D02*
X009171Y012922D01*
X009072Y013021D02*
X009667Y013021D01*
X009569Y013119D02*
X008974Y013119D01*
X008875Y013218D02*
X009470Y013218D01*
X009372Y013316D02*
X008777Y013316D01*
X008678Y013415D02*
X009273Y013415D01*
X009175Y013513D02*
X008580Y013513D01*
X008481Y013612D02*
X009076Y013612D01*
X008978Y013710D02*
X008383Y013710D01*
X008284Y013809D02*
X008879Y013809D01*
X008781Y013907D02*
X008186Y013907D01*
X008087Y014006D02*
X008682Y014006D01*
X008584Y014104D02*
X007989Y014104D01*
X007890Y014203D02*
X008485Y014203D01*
X008387Y014301D02*
X007792Y014301D01*
X007693Y014400D02*
X008288Y014400D01*
X008190Y014498D02*
X007595Y014498D01*
X007496Y014597D02*
X008091Y014597D01*
X007993Y014695D02*
X007398Y014695D01*
X007299Y014794D02*
X007894Y014794D01*
X007796Y014892D02*
X007201Y014892D01*
X007102Y014991D02*
X007697Y014991D01*
X007599Y015089D02*
X007004Y015089D01*
X006905Y015188D02*
X007500Y015188D01*
X007402Y015286D02*
X006807Y015286D01*
X006708Y015385D02*
X007303Y015385D01*
X007205Y015483D02*
X006610Y015483D01*
X006511Y015582D02*
X007106Y015582D01*
X007008Y015680D02*
X006413Y015680D01*
X006314Y015779D02*
X006909Y015779D01*
X006811Y015877D02*
X006216Y015877D01*
X006117Y015976D02*
X006712Y015976D01*
X006614Y016074D02*
X006019Y016074D01*
X005920Y016173D02*
X006515Y016173D01*
X006417Y016271D02*
X005822Y016271D01*
X005723Y016370D02*
X006318Y016370D01*
X006220Y016468D02*
X005625Y016468D01*
X005526Y016567D02*
X006121Y016567D01*
X006023Y016665D02*
X005428Y016665D01*
X005329Y016764D02*
X005924Y016764D01*
X005826Y016862D02*
X005231Y016862D01*
X005132Y016961D02*
X005727Y016961D01*
X005629Y017059D02*
X005034Y017059D01*
X004935Y017158D02*
X005530Y017158D01*
X005432Y017256D02*
X004837Y017256D01*
X004738Y017355D02*
X005333Y017355D01*
X005235Y017453D02*
X004640Y017453D01*
X004541Y017552D02*
X005136Y017552D01*
X005038Y017650D02*
X004443Y017650D01*
X004344Y017749D02*
X004939Y017749D01*
X004841Y017847D02*
X004246Y017847D01*
X004147Y017946D02*
X004742Y017946D01*
X004644Y018044D02*
X004049Y018044D01*
X003950Y018143D02*
X004545Y018143D01*
X004447Y018241D02*
X003852Y018241D01*
X003753Y018340D02*
X004348Y018340D01*
X004250Y018438D02*
X003655Y018438D01*
X003556Y018537D02*
X004151Y018537D01*
X004053Y018635D02*
X003458Y018635D01*
X003359Y018734D02*
X003954Y018734D01*
X003856Y018832D02*
X003261Y018832D01*
X003162Y018931D02*
X003757Y018931D01*
X003659Y019029D02*
X003100Y019029D01*
X003100Y019128D02*
X003560Y019128D01*
X003462Y019226D02*
X003100Y019226D01*
X003100Y019325D02*
X003363Y019325D01*
X003265Y019423D02*
X003100Y019423D01*
X003100Y019522D02*
X003166Y019522D01*
X003150Y019750D02*
X014031Y008869D01*
X014031Y008850D01*
X014218Y009179D02*
X014445Y009179D01*
X014519Y009081D02*
X014332Y009081D01*
X014950Y008687D02*
X015192Y008687D01*
X015262Y008588D02*
X015074Y008588D01*
X015130Y008490D02*
X015420Y008490D01*
X015642Y008490D02*
X015932Y008490D01*
X015905Y008391D02*
X015156Y008391D01*
X015156Y008293D02*
X015905Y008293D01*
X015939Y008194D02*
X015682Y008194D01*
X015744Y008168D02*
X015606Y008226D01*
X015456Y008226D01*
X015318Y008168D01*
X015212Y008063D01*
X015155Y007925D01*
X015155Y007775D01*
X015212Y007637D01*
X015318Y007532D01*
X015456Y007474D01*
X015606Y007474D01*
X015744Y007532D01*
X015849Y007637D01*
X015906Y007775D01*
X015906Y007925D01*
X015849Y008063D01*
X015744Y008168D01*
X015817Y008096D02*
X016004Y008096D01*
X015877Y007997D02*
X016152Y007997D01*
X016410Y007997D02*
X016785Y007997D01*
X016883Y008096D02*
X016558Y008096D01*
X016623Y008194D02*
X016982Y008194D01*
X017080Y008293D02*
X016656Y008293D01*
X016656Y008391D02*
X017179Y008391D01*
X017150Y008550D02*
X016481Y008550D01*
X016281Y008350D01*
X016112Y008687D02*
X015870Y008687D01*
X015906Y008785D02*
X017173Y008785D01*
X017096Y008884D02*
X017271Y008884D01*
X017194Y008982D02*
X017370Y008982D01*
X017293Y009081D02*
X017468Y009081D01*
X017391Y009179D02*
X017567Y009179D01*
X017490Y009278D02*
X017665Y009278D01*
X017588Y009376D02*
X017764Y009376D01*
X017687Y009475D02*
X017862Y009475D01*
X017785Y009573D02*
X017961Y009573D01*
X017884Y009672D02*
X018059Y009672D01*
X017982Y009770D02*
X018158Y009770D01*
X018081Y009869D02*
X018256Y009869D01*
X018179Y009967D02*
X018355Y009967D01*
X018278Y010066D02*
X018453Y010066D01*
X018376Y010164D02*
X018552Y010164D01*
X018475Y010263D02*
X018650Y010263D01*
X018573Y010361D02*
X018749Y010361D01*
X018672Y010460D02*
X018847Y010460D01*
X018770Y010558D02*
X018946Y010558D01*
X018869Y010657D02*
X019044Y010657D01*
X018967Y010755D02*
X019143Y010755D01*
X019200Y010854D02*
X019066Y010854D01*
X019164Y010952D02*
X019200Y010952D01*
X019150Y011150D02*
X016950Y008950D01*
X015631Y008950D01*
X015531Y008850D01*
X015800Y008588D02*
X015988Y008588D01*
X015945Y009179D02*
X015718Y009179D01*
X015905Y009278D02*
X015156Y009278D01*
X015117Y009179D02*
X015344Y009179D01*
X015277Y009573D02*
X015089Y009573D01*
X014986Y009672D02*
X015198Y009672D01*
X015531Y009850D02*
X015631Y009750D01*
X017150Y009750D01*
X018950Y011550D01*
X018950Y016750D01*
X016950Y018750D01*
X016950Y020750D01*
X016550Y021150D01*
X016150Y021150D01*
X015750Y021550D01*
X015750Y022700D01*
X015750Y023700D02*
X015400Y023700D01*
X013350Y025750D01*
X004750Y025750D01*
X004150Y025150D01*
X004150Y021150D01*
X003150Y020150D01*
X003150Y019750D01*
X003350Y019950D02*
X004350Y020950D01*
X004350Y024950D01*
X004950Y025550D01*
X012750Y025550D01*
X014600Y023700D01*
X014750Y023700D01*
X014750Y022700D02*
X014750Y021550D01*
X015550Y020750D01*
X016175Y020113D02*
X013400Y020113D01*
X013350Y019950D02*
X015950Y019950D01*
X016350Y019550D01*
X016394Y019719D02*
X016400Y019719D01*
X016400Y019817D02*
X016295Y019817D01*
X016372Y019916D02*
X016197Y019916D01*
X016274Y020014D02*
X016098Y020014D01*
X015763Y019325D02*
X012588Y019325D01*
X012665Y019423D02*
X012489Y019423D01*
X012566Y019522D02*
X012391Y019522D01*
X012468Y019620D02*
X012292Y019620D01*
X012369Y019719D02*
X012194Y019719D01*
X012271Y019817D02*
X012095Y019817D01*
X012172Y019916D02*
X011997Y019916D01*
X012074Y020014D02*
X011898Y020014D01*
X011975Y020113D02*
X011800Y020113D01*
X011877Y020211D02*
X011701Y020211D01*
X011778Y020310D02*
X011603Y020310D01*
X011680Y020408D02*
X011504Y020408D01*
X011581Y020507D02*
X011406Y020507D01*
X011483Y020605D02*
X011307Y020605D01*
X011384Y020704D02*
X011209Y020704D01*
X011286Y020802D02*
X011110Y020802D01*
X011187Y020901D02*
X011012Y020901D01*
X011089Y020999D02*
X010913Y020999D01*
X010990Y021098D02*
X010815Y021098D01*
X010892Y021196D02*
X010716Y021196D01*
X010793Y021295D02*
X010618Y021295D01*
X010695Y021393D02*
X010519Y021393D01*
X010600Y021492D02*
X010421Y021492D01*
X010322Y021590D02*
X010600Y021590D01*
X010600Y021689D02*
X010224Y021689D01*
X010125Y021787D02*
X010600Y021787D01*
X010600Y021886D02*
X010027Y021886D01*
X009928Y021984D02*
X010600Y021984D01*
X010600Y022083D02*
X009900Y022083D01*
X009900Y022181D02*
X010600Y022181D01*
X010600Y022280D02*
X009900Y022280D01*
X010029Y022378D02*
X010471Y022378D01*
X010383Y022477D02*
X010117Y022477D01*
X010158Y022575D02*
X010342Y022575D01*
X010325Y022674D02*
X010175Y022674D01*
X010175Y022772D02*
X010325Y022772D01*
X010361Y022871D02*
X010139Y022871D01*
X010082Y022969D02*
X010418Y022969D01*
X010527Y023068D02*
X009973Y023068D01*
X010014Y023363D02*
X010486Y023363D01*
X010389Y023462D02*
X010111Y023462D01*
X010152Y023560D02*
X010348Y023560D01*
X010325Y023659D02*
X010175Y023659D01*
X010175Y023757D02*
X010325Y023757D01*
X010232Y023856D02*
X010145Y023856D01*
X010134Y023954D02*
X010097Y023954D01*
X010035Y024053D02*
X009998Y024053D01*
X009937Y024151D02*
X009361Y024151D01*
X009460Y024053D02*
X009502Y024053D01*
X009263Y024250D02*
X009838Y024250D01*
X009740Y024348D02*
X009164Y024348D01*
X009066Y024447D02*
X009641Y024447D01*
X009543Y024545D02*
X008967Y024545D01*
X008750Y024550D02*
X005950Y024550D01*
X005350Y023950D01*
X005350Y021150D01*
X013050Y013450D01*
X014781Y013450D01*
X014781Y013350D01*
X014429Y013218D02*
X014125Y013218D01*
X013937Y013218D02*
X012895Y013218D01*
X012972Y013316D02*
X012796Y013316D01*
X012873Y013415D02*
X012698Y013415D01*
X012775Y013513D02*
X012599Y013513D01*
X012676Y013612D02*
X012501Y013612D01*
X012578Y013710D02*
X012402Y013710D01*
X012479Y013809D02*
X012304Y013809D01*
X012381Y013907D02*
X012205Y013907D01*
X012282Y014006D02*
X012107Y014006D01*
X012184Y014104D02*
X012008Y014104D01*
X012085Y014203D02*
X011910Y014203D01*
X011987Y014301D02*
X011811Y014301D01*
X011888Y014400D02*
X011713Y014400D01*
X011790Y014498D02*
X011614Y014498D01*
X011691Y014597D02*
X011516Y014597D01*
X011593Y014695D02*
X011417Y014695D01*
X011494Y014794D02*
X011319Y014794D01*
X011396Y014892D02*
X011220Y014892D01*
X011297Y014991D02*
X011122Y014991D01*
X011199Y015089D02*
X011023Y015089D01*
X011100Y015188D02*
X010925Y015188D01*
X011002Y015286D02*
X010826Y015286D01*
X010903Y015385D02*
X010728Y015385D01*
X010805Y015483D02*
X010629Y015483D01*
X010706Y015582D02*
X010531Y015582D01*
X010608Y015680D02*
X010432Y015680D01*
X010509Y015779D02*
X010334Y015779D01*
X010411Y015877D02*
X010235Y015877D01*
X010312Y015976D02*
X010137Y015976D01*
X010214Y016074D02*
X010038Y016074D01*
X010115Y016173D02*
X009940Y016173D01*
X010017Y016271D02*
X009841Y016271D01*
X009918Y016370D02*
X009743Y016370D01*
X009820Y016468D02*
X009644Y016468D01*
X009721Y016567D02*
X009546Y016567D01*
X009623Y016665D02*
X009447Y016665D01*
X009524Y016764D02*
X009349Y016764D01*
X009426Y016862D02*
X009250Y016862D01*
X009327Y016961D02*
X009152Y016961D01*
X009229Y017059D02*
X009053Y017059D01*
X009130Y017158D02*
X008955Y017158D01*
X009032Y017256D02*
X008856Y017256D01*
X008933Y017355D02*
X008758Y017355D01*
X008835Y017453D02*
X008659Y017453D01*
X008736Y017552D02*
X008561Y017552D01*
X008638Y017650D02*
X008462Y017650D01*
X008539Y017749D02*
X008364Y017749D01*
X008441Y017847D02*
X008265Y017847D01*
X008342Y017946D02*
X008167Y017946D01*
X008244Y018044D02*
X008068Y018044D01*
X008145Y018143D02*
X007970Y018143D01*
X008047Y018241D02*
X007871Y018241D01*
X007948Y018340D02*
X007773Y018340D01*
X007850Y018438D02*
X007674Y018438D01*
X007751Y018537D02*
X007576Y018537D01*
X007653Y018635D02*
X007477Y018635D01*
X007554Y018734D02*
X007379Y018734D01*
X007456Y018832D02*
X007280Y018832D01*
X007357Y018931D02*
X007182Y018931D01*
X007259Y019029D02*
X007083Y019029D01*
X007160Y019128D02*
X006985Y019128D01*
X007062Y019226D02*
X006886Y019226D01*
X006963Y019325D02*
X006788Y019325D01*
X006865Y019423D02*
X006689Y019423D01*
X006766Y019522D02*
X006591Y019522D01*
X006668Y019620D02*
X006492Y019620D01*
X006569Y019719D02*
X006394Y019719D01*
X006471Y019817D02*
X006295Y019817D01*
X006372Y019916D02*
X006197Y019916D01*
X006274Y020014D02*
X006098Y020014D01*
X006175Y020113D02*
X006000Y020113D01*
X006077Y020211D02*
X005901Y020211D01*
X005978Y020310D02*
X005803Y020310D01*
X005880Y020408D02*
X005704Y020408D01*
X005781Y020507D02*
X005606Y020507D01*
X005683Y020605D02*
X005507Y020605D01*
X005584Y020704D02*
X005409Y020704D01*
X005486Y020802D02*
X005310Y020802D01*
X005300Y020901D02*
X005387Y020901D01*
X005150Y020750D02*
X013450Y012450D01*
X013450Y012350D01*
X014781Y012350D01*
X015036Y012627D02*
X015223Y012627D01*
X015176Y012725D02*
X014857Y012725D01*
X014705Y012725D02*
X014386Y012725D01*
X014406Y012824D02*
X015155Y012824D01*
X015155Y012922D02*
X014406Y012922D01*
X014367Y013021D02*
X014595Y013021D01*
X014481Y013119D02*
X014293Y013119D01*
X014339Y012627D02*
X014526Y012627D01*
X014448Y012528D02*
X014235Y012528D01*
X014278Y012134D02*
X014466Y012134D01*
X014564Y012036D02*
X014361Y012036D01*
X014392Y011740D02*
X015170Y011740D01*
X015211Y011642D02*
X015021Y011642D01*
X015107Y011543D02*
X015307Y011543D01*
X015763Y011149D02*
X015958Y011149D01*
X016049Y011051D02*
X015854Y011051D01*
X015292Y010558D02*
X015101Y010558D01*
X015006Y010657D02*
X015205Y010657D01*
X014781Y010350D02*
X013750Y010350D01*
X004550Y019550D01*
X004550Y024750D01*
X005150Y025350D01*
X011750Y025350D01*
X013400Y023700D01*
X013750Y023700D01*
X013350Y023150D02*
X022050Y023150D01*
X022250Y022950D01*
X022250Y018950D01*
X021750Y018550D01*
X021270Y018537D02*
X020900Y018537D01*
X020900Y018635D02*
X021270Y018635D01*
X021270Y018734D02*
X020900Y018734D01*
X020900Y018832D02*
X021353Y018832D01*
X021452Y018931D02*
X020900Y018931D01*
X020950Y018950D02*
X020950Y017350D01*
X020750Y017150D01*
X020800Y017158D02*
X022600Y017158D01*
X022600Y017256D02*
X021280Y017256D01*
X021280Y017200D02*
X021280Y017370D01*
X020970Y017680D01*
X020800Y017680D01*
X020800Y017200D01*
X021280Y017200D01*
X021280Y017100D02*
X020800Y017100D01*
X020800Y017200D01*
X020700Y017200D01*
X020700Y017680D01*
X020530Y017680D01*
X020220Y017370D01*
X020220Y017200D01*
X020700Y017200D01*
X020700Y017100D01*
X020800Y017100D01*
X020800Y016620D01*
X020970Y016620D01*
X021280Y016930D01*
X021280Y017100D01*
X021280Y017059D02*
X022600Y017059D01*
X022600Y016961D02*
X021280Y016961D01*
X021212Y016862D02*
X022600Y016862D01*
X022600Y016764D02*
X021113Y016764D01*
X021015Y016665D02*
X022600Y016665D01*
X022600Y016567D02*
X020100Y016567D01*
X020100Y016665D02*
X020485Y016665D01*
X020530Y016620D02*
X020700Y016620D01*
X020700Y017100D01*
X020220Y017100D01*
X020220Y016930D01*
X020530Y016620D01*
X020700Y016665D02*
X020800Y016665D01*
X020800Y016764D02*
X020700Y016764D01*
X020700Y016862D02*
X020800Y016862D01*
X020800Y016961D02*
X020700Y016961D01*
X020700Y017059D02*
X020800Y017059D01*
X020700Y017158D02*
X020100Y017158D01*
X020100Y017256D02*
X020220Y017256D01*
X020220Y017355D02*
X020100Y017355D01*
X020100Y017453D02*
X020304Y017453D01*
X020402Y017552D02*
X020164Y017552D01*
X020262Y017650D02*
X020501Y017650D01*
X020361Y017749D02*
X022600Y017749D01*
X022600Y017847D02*
X020459Y017847D01*
X020558Y017946D02*
X022600Y017946D01*
X022600Y018044D02*
X020656Y018044D01*
X020755Y018143D02*
X021479Y018143D01*
X021380Y018241D02*
X020853Y018241D01*
X020900Y018340D02*
X021282Y018340D01*
X021270Y018438D02*
X020900Y018438D01*
X020750Y018350D02*
X019950Y017550D01*
X019950Y009350D01*
X016550Y005950D01*
X015631Y005950D01*
X015531Y005850D01*
X015787Y006126D02*
X015974Y006126D01*
X015927Y006224D02*
X015609Y006224D01*
X015452Y006224D02*
X015135Y006224D01*
X015156Y006323D02*
X015905Y006323D01*
X015905Y006421D02*
X015156Y006421D01*
X015117Y006520D02*
X015347Y006520D01*
X015232Y006618D02*
X015044Y006618D01*
X015180Y006717D02*
X014878Y006717D01*
X014684Y006717D02*
X014382Y006717D01*
X014406Y006815D02*
X015155Y006815D01*
X015155Y006914D02*
X014406Y006914D01*
X014370Y007012D02*
X014615Y007012D01*
X014489Y007111D02*
X014302Y007111D01*
X014178Y007505D02*
X014438Y007505D01*
X014503Y007603D02*
X014315Y007603D01*
X014376Y007702D02*
X014648Y007702D01*
X014406Y007800D02*
X015155Y007800D01*
X015155Y007899D02*
X014406Y007899D01*
X014377Y007997D02*
X014652Y007997D01*
X014504Y008096D02*
X014317Y008096D01*
X014439Y008194D02*
X014182Y008194D01*
X014031Y007850D02*
X002950Y018931D01*
X002950Y020350D01*
X003950Y021350D01*
X003950Y025350D01*
X004550Y025950D01*
X014150Y025950D01*
X016400Y023700D01*
X016750Y023700D01*
X017400Y023700D02*
X014950Y026150D01*
X004350Y026150D01*
X003750Y025550D01*
X003750Y021550D01*
X002750Y020550D01*
X002750Y018750D01*
X013950Y007350D01*
X014781Y007350D01*
X015129Y007209D02*
X015416Y007209D01*
X015260Y007111D02*
X015073Y007111D01*
X015191Y007012D02*
X014946Y007012D01*
X015156Y007308D02*
X015905Y007308D01*
X015905Y007406D02*
X015156Y007406D01*
X015123Y007505D02*
X015383Y007505D01*
X015247Y007603D02*
X015059Y007603D01*
X015186Y007702D02*
X014914Y007702D01*
X014910Y007997D02*
X015185Y007997D01*
X015245Y008096D02*
X015058Y008096D01*
X015123Y008194D02*
X015380Y008194D01*
X015906Y007899D02*
X016617Y007899D01*
X016519Y007800D02*
X015906Y007800D01*
X015876Y007702D02*
X016148Y007702D01*
X016003Y007603D02*
X015815Y007603D01*
X015938Y007505D02*
X015678Y007505D01*
X015646Y007209D02*
X015933Y007209D01*
X015989Y007111D02*
X015802Y007111D01*
X015631Y006950D02*
X015531Y006850D01*
X015631Y006950D02*
X016950Y006950D01*
X019750Y009750D01*
X019750Y022700D01*
X019750Y023700D02*
X019400Y023700D01*
X016550Y026550D01*
X003950Y026550D01*
X003350Y025950D01*
X003350Y021950D01*
X002350Y020950D01*
X002350Y017950D01*
X013150Y007150D01*
X013150Y006750D01*
X013950Y005950D01*
X013950Y005931D01*
X014031Y005850D01*
X014287Y006126D02*
X014474Y006126D01*
X014579Y006027D02*
X014364Y006027D01*
X014405Y005929D02*
X015157Y005929D01*
X015155Y005830D02*
X014406Y005830D01*
X014388Y005732D02*
X015173Y005732D01*
X015217Y005633D02*
X015029Y005633D01*
X014994Y005668D02*
X014856Y005726D01*
X014706Y005726D01*
X014568Y005668D01*
X014462Y005563D01*
X014405Y005425D01*
X014405Y005275D01*
X014462Y005137D01*
X014568Y005032D01*
X014706Y004974D01*
X014856Y004974D01*
X014994Y005032D01*
X015099Y005137D01*
X015156Y005275D01*
X015156Y005425D01*
X015099Y005563D01*
X014994Y005668D01*
X015111Y005535D02*
X015315Y005535D01*
X015152Y005436D02*
X015910Y005436D01*
X015905Y005338D02*
X015156Y005338D01*
X015141Y005239D02*
X015920Y005239D01*
X015961Y005141D02*
X015772Y005141D01*
X015858Y005042D02*
X016000Y005042D01*
X016000Y004944D02*
X015899Y004944D01*
X015906Y004845D02*
X015933Y004845D01*
X016150Y004850D02*
X016150Y005219D01*
X016281Y005350D01*
X016656Y005338D02*
X017125Y005338D01*
X017224Y005436D02*
X016652Y005436D01*
X016611Y005535D02*
X017322Y005535D01*
X017421Y005633D02*
X016529Y005633D01*
X016642Y005830D02*
X017618Y005830D01*
X017716Y005929D02*
X016741Y005929D01*
X016839Y006027D02*
X017815Y006027D01*
X017913Y006126D02*
X016938Y006126D01*
X017036Y006224D02*
X018012Y006224D01*
X018110Y006323D02*
X017135Y006323D01*
X017233Y006421D02*
X018209Y006421D01*
X018307Y006520D02*
X017332Y006520D01*
X017430Y006618D02*
X018400Y006618D01*
X018400Y006717D02*
X017529Y006717D01*
X017627Y006815D02*
X018400Y006815D01*
X018400Y006914D02*
X017726Y006914D01*
X017824Y007012D02*
X018400Y007012D01*
X018400Y007111D02*
X017923Y007111D01*
X018021Y007209D02*
X018400Y007209D01*
X018400Y007308D02*
X018120Y007308D01*
X018218Y007406D02*
X018400Y007406D01*
X018317Y007505D02*
X018492Y007505D01*
X018415Y007603D02*
X018591Y007603D01*
X018514Y007702D02*
X018689Y007702D01*
X018612Y007800D02*
X018788Y007800D01*
X018711Y007899D02*
X018886Y007899D01*
X018809Y007997D02*
X018985Y007997D01*
X018908Y008096D02*
X019083Y008096D01*
X019006Y008194D02*
X019182Y008194D01*
X019105Y008293D02*
X019280Y008293D01*
X019203Y008391D02*
X019379Y008391D01*
X019302Y008490D02*
X019477Y008490D01*
X019400Y008588D02*
X019576Y008588D01*
X019499Y008687D02*
X019674Y008687D01*
X019597Y008785D02*
X019773Y008785D01*
X019696Y008884D02*
X019871Y008884D01*
X019794Y008982D02*
X019970Y008982D01*
X019893Y009081D02*
X020068Y009081D01*
X019991Y009179D02*
X020167Y009179D01*
X020090Y009278D02*
X020265Y009278D01*
X020364Y009376D02*
X020100Y009376D01*
X020100Y009475D02*
X020462Y009475D01*
X020561Y009573D02*
X020100Y009573D01*
X020100Y009672D02*
X020659Y009672D01*
X020758Y009770D02*
X020100Y009770D01*
X020100Y009869D02*
X020856Y009869D01*
X020955Y009967D02*
X020100Y009967D01*
X020100Y010066D02*
X021053Y010066D01*
X021152Y010164D02*
X020100Y010164D01*
X020100Y010263D02*
X021250Y010263D01*
X021349Y010361D02*
X020100Y010361D01*
X020100Y010460D02*
X021447Y010460D01*
X021546Y010558D02*
X020100Y010558D01*
X020100Y010657D02*
X021644Y010657D01*
X021743Y010755D02*
X020100Y010755D01*
X020100Y010854D02*
X021841Y010854D01*
X021940Y010952D02*
X020100Y010952D01*
X020100Y011051D02*
X022038Y011051D01*
X022137Y011149D02*
X020100Y011149D01*
X020100Y011248D02*
X022235Y011248D01*
X022334Y011346D02*
X020100Y011346D01*
X020100Y011445D02*
X022432Y011445D01*
X022531Y011543D02*
X020100Y011543D01*
X020100Y011642D02*
X022600Y011642D01*
X022600Y011740D02*
X020100Y011740D01*
X020100Y011839D02*
X022600Y011839D01*
X022600Y011937D02*
X020100Y011937D01*
X020100Y012036D02*
X022600Y012036D01*
X022600Y012134D02*
X020100Y012134D01*
X020100Y012233D02*
X022600Y012233D01*
X022600Y012331D02*
X020100Y012331D01*
X020100Y012430D02*
X022600Y012430D01*
X022600Y012528D02*
X020100Y012528D01*
X020100Y012627D02*
X022600Y012627D01*
X022600Y012725D02*
X020100Y012725D01*
X020100Y012824D02*
X022600Y012824D01*
X022600Y012922D02*
X020100Y012922D01*
X020100Y013021D02*
X022600Y013021D01*
X022600Y013119D02*
X020100Y013119D01*
X020100Y013218D02*
X022600Y013218D01*
X022600Y013316D02*
X020100Y013316D01*
X020100Y013415D02*
X022600Y013415D01*
X022600Y013513D02*
X020100Y013513D01*
X020100Y013612D02*
X022600Y013612D01*
X022600Y013710D02*
X020100Y013710D01*
X020100Y013809D02*
X022600Y013809D01*
X022600Y013907D02*
X020100Y013907D01*
X020100Y014006D02*
X022600Y014006D01*
X022600Y014104D02*
X020100Y014104D01*
X020100Y014203D02*
X022600Y014203D01*
X022600Y014301D02*
X020100Y014301D01*
X020100Y014400D02*
X022600Y014400D01*
X022600Y014498D02*
X020100Y014498D01*
X020100Y014597D02*
X022600Y014597D01*
X022600Y014695D02*
X020100Y014695D01*
X020100Y014794D02*
X022600Y014794D01*
X022600Y014892D02*
X020100Y014892D01*
X020100Y014991D02*
X022600Y014991D01*
X022600Y015089D02*
X020100Y015089D01*
X020100Y015188D02*
X022600Y015188D01*
X022600Y015286D02*
X020100Y015286D01*
X020100Y015385D02*
X022600Y015385D01*
X022600Y015483D02*
X020100Y015483D01*
X020100Y015582D02*
X022600Y015582D01*
X022600Y015680D02*
X020100Y015680D01*
X020100Y015779D02*
X022600Y015779D01*
X022600Y015877D02*
X020100Y015877D01*
X020100Y015976D02*
X022600Y015976D01*
X022600Y016074D02*
X020100Y016074D01*
X020100Y016173D02*
X022600Y016173D01*
X022600Y016271D02*
X020100Y016271D01*
X020100Y016370D02*
X022600Y016370D01*
X022600Y016468D02*
X020100Y016468D01*
X020100Y016764D02*
X020387Y016764D01*
X020288Y016862D02*
X020100Y016862D01*
X020100Y016961D02*
X020220Y016961D01*
X020220Y017059D02*
X020100Y017059D01*
X019550Y017350D02*
X019550Y010550D01*
X016750Y007750D01*
X016681Y007750D01*
X016281Y007350D01*
X016414Y007702D02*
X016420Y007702D01*
X017126Y006914D02*
X017301Y006914D01*
X017224Y007012D02*
X017400Y007012D01*
X017323Y007111D02*
X017498Y007111D01*
X017421Y007209D02*
X017597Y007209D01*
X017520Y007308D02*
X017695Y007308D01*
X017618Y007406D02*
X017794Y007406D01*
X017717Y007505D02*
X017892Y007505D01*
X017815Y007603D02*
X017991Y007603D01*
X017914Y007702D02*
X018089Y007702D01*
X018012Y007800D02*
X018188Y007800D01*
X018111Y007899D02*
X018286Y007899D01*
X018209Y007997D02*
X018385Y007997D01*
X018308Y008096D02*
X018483Y008096D01*
X018406Y008194D02*
X018582Y008194D01*
X018505Y008293D02*
X018680Y008293D01*
X018603Y008391D02*
X018779Y008391D01*
X018702Y008490D02*
X018877Y008490D01*
X018800Y008588D02*
X018976Y008588D01*
X018899Y008687D02*
X019074Y008687D01*
X018997Y008785D02*
X019173Y008785D01*
X019096Y008884D02*
X019271Y008884D01*
X019194Y008982D02*
X019370Y008982D01*
X019293Y009081D02*
X019468Y009081D01*
X019391Y009179D02*
X019567Y009179D01*
X019490Y009278D02*
X019665Y009278D01*
X019588Y009376D02*
X019764Y009376D01*
X019800Y009475D02*
X019687Y009475D01*
X019785Y009573D02*
X019800Y009573D01*
X020394Y008982D02*
X023570Y008982D01*
X023668Y009081D02*
X020493Y009081D01*
X020591Y009179D02*
X023767Y009179D01*
X023865Y009278D02*
X020690Y009278D01*
X020788Y009376D02*
X023964Y009376D01*
X024062Y009475D02*
X020887Y009475D01*
X020985Y009573D02*
X024161Y009573D01*
X024200Y009612D02*
X022488Y007900D01*
X022400Y007812D01*
X022400Y006388D01*
X023255Y005533D01*
X023220Y005499D01*
X023220Y005101D01*
X023501Y004820D01*
X023899Y004820D01*
X024180Y005101D01*
X024180Y005499D01*
X023899Y005780D01*
X023501Y005780D01*
X023467Y005745D01*
X022700Y006512D01*
X022700Y007688D01*
X024500Y009488D01*
X024500Y017612D01*
X024412Y017700D01*
X023900Y018212D01*
X023900Y022302D01*
X023991Y022340D01*
X024110Y022459D01*
X024175Y022616D01*
X024175Y022784D01*
X024110Y022941D01*
X023991Y023060D01*
X023834Y023125D01*
X023666Y023125D01*
X023509Y023060D01*
X023390Y022941D01*
X023325Y022784D01*
X023325Y022616D01*
X023390Y022459D01*
X023509Y022340D01*
X023600Y022302D01*
X023600Y018088D01*
X024200Y017488D01*
X024200Y009612D01*
X024200Y009672D02*
X021084Y009672D01*
X021182Y009770D02*
X024200Y009770D01*
X024200Y009869D02*
X021281Y009869D01*
X021379Y009967D02*
X024200Y009967D01*
X024200Y010066D02*
X021478Y010066D01*
X021576Y010164D02*
X024200Y010164D01*
X024200Y010263D02*
X021675Y010263D01*
X021773Y010361D02*
X024200Y010361D01*
X024200Y010460D02*
X021872Y010460D01*
X021970Y010558D02*
X024200Y010558D01*
X024200Y010657D02*
X022069Y010657D01*
X022167Y010755D02*
X024200Y010755D01*
X024200Y010854D02*
X022266Y010854D01*
X022364Y010952D02*
X024200Y010952D01*
X024200Y011051D02*
X022463Y011051D01*
X022561Y011149D02*
X024200Y011149D01*
X024200Y011248D02*
X022660Y011248D01*
X022758Y011346D02*
X024200Y011346D01*
X024200Y011445D02*
X022857Y011445D01*
X022900Y011488D02*
X022900Y022302D01*
X022991Y022340D01*
X023110Y022459D01*
X023175Y022616D01*
X023175Y022784D01*
X023110Y022941D01*
X022991Y023060D01*
X022834Y023125D01*
X022666Y023125D01*
X022509Y023060D01*
X022400Y022951D01*
X022400Y023012D01*
X022312Y023100D01*
X022112Y023300D01*
X021988Y023300D01*
X021894Y023300D01*
X021991Y023340D01*
X022110Y023459D01*
X022175Y023616D01*
X022175Y023713D01*
X022338Y023550D01*
X022352Y023550D01*
X022390Y023459D01*
X022509Y023340D01*
X022666Y023275D01*
X022834Y023275D01*
X022991Y023340D01*
X023110Y023459D01*
X023175Y023616D01*
X023175Y023784D01*
X023110Y023941D01*
X022991Y024060D01*
X022834Y024125D01*
X022666Y024125D01*
X022509Y024060D01*
X022390Y023941D01*
X022384Y023928D01*
X018900Y027412D01*
X018812Y027500D01*
X002688Y027500D01*
X002488Y027300D01*
X002400Y027212D01*
X002400Y022012D01*
X001888Y021500D01*
X001800Y021412D01*
X001800Y017088D01*
X001888Y017000D01*
X012200Y006688D01*
X012200Y006055D01*
X012196Y005997D01*
X012200Y005993D01*
X012200Y005988D01*
X012241Y005947D01*
X013700Y004293D01*
X013700Y004288D01*
X013741Y004247D01*
X013779Y004204D01*
X013784Y004204D01*
X013788Y004200D01*
X013845Y004200D01*
X013888Y004197D01*
X013818Y004168D01*
X013712Y004063D01*
X013655Y003925D01*
X013655Y003775D01*
X013712Y003637D01*
X013818Y003532D01*
X013956Y003474D01*
X014106Y003474D01*
X014244Y003532D01*
X014349Y003637D01*
X014406Y003775D01*
X014406Y003925D01*
X014349Y004063D01*
X014244Y004168D01*
X014167Y004200D01*
X014437Y004200D01*
X014462Y004137D01*
X014568Y004032D01*
X014706Y003974D01*
X014762Y003974D01*
X014088Y003300D01*
X014012Y003300D01*
X011900Y005412D01*
X011900Y006612D01*
X011812Y006700D01*
X008912Y009600D01*
X008632Y009600D01*
X008619Y009630D01*
X008530Y009719D01*
X008413Y009768D01*
X008287Y009768D01*
X008170Y009719D01*
X008081Y009630D01*
X008032Y009513D01*
X008032Y009387D01*
X008081Y009270D01*
X008170Y009181D01*
X008287Y009132D01*
X008413Y009132D01*
X008530Y009181D01*
X008619Y009270D01*
X008632Y009300D01*
X008788Y009300D01*
X011600Y006488D01*
X011600Y005288D01*
X013800Y003088D01*
X013888Y003000D01*
X014212Y003000D01*
X015107Y003895D01*
X015105Y003883D01*
X015105Y003879D01*
X015502Y003879D01*
X015502Y003821D01*
X015560Y003821D01*
X015560Y003879D01*
X015956Y003879D01*
X015956Y003883D01*
X015946Y003950D01*
X015925Y004013D01*
X015895Y004073D01*
X015856Y004127D01*
X015808Y004175D01*
X015754Y004214D01*
X015694Y004244D01*
X015631Y004265D01*
X015630Y004265D01*
X015768Y004300D01*
X015812Y004300D01*
X015827Y004315D01*
X015847Y004320D01*
X015869Y004357D01*
X015905Y004393D01*
X015905Y004275D01*
X015962Y004137D01*
X016068Y004032D01*
X016206Y003974D01*
X016356Y003974D01*
X016494Y004032D01*
X016599Y004137D01*
X016656Y004275D01*
X016656Y004425D01*
X016651Y004439D01*
X018562Y006350D01*
X018612Y006350D01*
X018700Y006438D01*
X018700Y007288D01*
X022900Y011488D01*
X022900Y011543D02*
X024200Y011543D01*
X024200Y011642D02*
X022900Y011642D01*
X022900Y011740D02*
X024200Y011740D01*
X024200Y011839D02*
X022900Y011839D01*
X022900Y011937D02*
X024200Y011937D01*
X024200Y012036D02*
X022900Y012036D01*
X022900Y012134D02*
X024200Y012134D01*
X024200Y012233D02*
X022900Y012233D01*
X022900Y012331D02*
X024200Y012331D01*
X024200Y012430D02*
X022900Y012430D01*
X022900Y012528D02*
X024200Y012528D01*
X024200Y012627D02*
X022900Y012627D01*
X022900Y012725D02*
X024200Y012725D01*
X024200Y012824D02*
X022900Y012824D01*
X022900Y012922D02*
X024200Y012922D01*
X024200Y013021D02*
X022900Y013021D01*
X022900Y013119D02*
X024200Y013119D01*
X024200Y013218D02*
X022900Y013218D01*
X022900Y013316D02*
X024200Y013316D01*
X024200Y013415D02*
X022900Y013415D01*
X022900Y013513D02*
X024200Y013513D01*
X024200Y013612D02*
X022900Y013612D01*
X022900Y013710D02*
X024200Y013710D01*
X024200Y013809D02*
X022900Y013809D01*
X022900Y013907D02*
X024200Y013907D01*
X024200Y014006D02*
X022900Y014006D01*
X022900Y014104D02*
X024200Y014104D01*
X024200Y014203D02*
X022900Y014203D01*
X022900Y014301D02*
X024200Y014301D01*
X024200Y014400D02*
X022900Y014400D01*
X022900Y014498D02*
X024200Y014498D01*
X024200Y014597D02*
X022900Y014597D01*
X022900Y014695D02*
X024200Y014695D01*
X024200Y014794D02*
X022900Y014794D01*
X022900Y014892D02*
X024200Y014892D01*
X024200Y014991D02*
X022900Y014991D01*
X022900Y015089D02*
X024200Y015089D01*
X024200Y015188D02*
X022900Y015188D01*
X022900Y015286D02*
X024200Y015286D01*
X024200Y015385D02*
X022900Y015385D01*
X022900Y015483D02*
X024200Y015483D01*
X024200Y015582D02*
X022900Y015582D01*
X022900Y015680D02*
X024200Y015680D01*
X024200Y015779D02*
X022900Y015779D01*
X022900Y015877D02*
X024200Y015877D01*
X024200Y015976D02*
X022900Y015976D01*
X022900Y016074D02*
X024200Y016074D01*
X024200Y016173D02*
X022900Y016173D01*
X022900Y016271D02*
X024200Y016271D01*
X024200Y016370D02*
X022900Y016370D01*
X022900Y016468D02*
X024200Y016468D01*
X024200Y016567D02*
X022900Y016567D01*
X022900Y016665D02*
X024200Y016665D01*
X024200Y016764D02*
X023813Y016764D01*
X023770Y016720D02*
X024080Y017030D01*
X024080Y017200D01*
X023600Y017200D01*
X023600Y017300D01*
X024080Y017300D01*
X024080Y017470D01*
X023770Y017780D01*
X023600Y017780D01*
X023600Y017300D01*
X023500Y017300D01*
X023500Y017780D01*
X023330Y017780D01*
X023020Y017470D01*
X023020Y017300D01*
X023500Y017300D01*
X023500Y017200D01*
X023600Y017200D01*
X023600Y016720D01*
X023770Y016720D01*
X023600Y016764D02*
X023500Y016764D01*
X023500Y016720D02*
X023500Y017200D01*
X023020Y017200D01*
X023020Y017030D01*
X023330Y016720D01*
X023500Y016720D01*
X023500Y016862D02*
X023600Y016862D01*
X023600Y016961D02*
X023500Y016961D01*
X023500Y017059D02*
X023600Y017059D01*
X023600Y017158D02*
X023500Y017158D01*
X023500Y017256D02*
X022900Y017256D01*
X022900Y017158D02*
X023020Y017158D01*
X023020Y017059D02*
X022900Y017059D01*
X022900Y016961D02*
X023090Y016961D01*
X023188Y016862D02*
X022900Y016862D01*
X022900Y016764D02*
X023287Y016764D01*
X023600Y017256D02*
X024200Y017256D01*
X024200Y017158D02*
X024080Y017158D01*
X024080Y017059D02*
X024200Y017059D01*
X024200Y016961D02*
X024010Y016961D01*
X023912Y016862D02*
X024200Y016862D01*
X024500Y016862D02*
X024600Y016862D01*
X024600Y016764D02*
X024500Y016764D01*
X024500Y016665D02*
X024600Y016665D01*
X024600Y016567D02*
X024500Y016567D01*
X024500Y016468D02*
X024600Y016468D01*
X024600Y016370D02*
X024500Y016370D01*
X024500Y016271D02*
X024600Y016271D01*
X024600Y016173D02*
X024500Y016173D01*
X024500Y016074D02*
X024600Y016074D01*
X024600Y015976D02*
X024500Y015976D01*
X024500Y015877D02*
X024600Y015877D01*
X024600Y015779D02*
X024500Y015779D01*
X024500Y015680D02*
X024600Y015680D01*
X024600Y015582D02*
X024500Y015582D01*
X024500Y015483D02*
X024600Y015483D01*
X024600Y015385D02*
X024500Y015385D01*
X024500Y015286D02*
X024600Y015286D01*
X024600Y015188D02*
X024500Y015188D01*
X024500Y015089D02*
X024600Y015089D01*
X024600Y014991D02*
X024500Y014991D01*
X024500Y014892D02*
X024600Y014892D01*
X024600Y014794D02*
X024500Y014794D01*
X024500Y014695D02*
X024600Y014695D01*
X024600Y014597D02*
X024500Y014597D01*
X024500Y014498D02*
X024600Y014498D01*
X024600Y014400D02*
X024500Y014400D01*
X024500Y014301D02*
X024600Y014301D01*
X024600Y014203D02*
X024500Y014203D01*
X024500Y014104D02*
X024600Y014104D01*
X024600Y014006D02*
X024500Y014006D01*
X024500Y013907D02*
X024600Y013907D01*
X024600Y013809D02*
X024500Y013809D01*
X024500Y013710D02*
X024600Y013710D01*
X024600Y013612D02*
X024500Y013612D01*
X024500Y013513D02*
X024600Y013513D01*
X024600Y013415D02*
X024500Y013415D01*
X024500Y013316D02*
X024600Y013316D01*
X024600Y013218D02*
X024500Y013218D01*
X024500Y013119D02*
X024600Y013119D01*
X024600Y013021D02*
X024500Y013021D01*
X024500Y012922D02*
X024600Y012922D01*
X024600Y012824D02*
X024500Y012824D01*
X024500Y012725D02*
X024600Y012725D01*
X024600Y012627D02*
X024500Y012627D01*
X024500Y012528D02*
X024600Y012528D01*
X024600Y012430D02*
X024500Y012430D01*
X024500Y012331D02*
X024600Y012331D01*
X024600Y012233D02*
X024500Y012233D01*
X024500Y012134D02*
X024600Y012134D01*
X024600Y012036D02*
X024500Y012036D01*
X024500Y011937D02*
X024600Y011937D01*
X024600Y011839D02*
X024500Y011839D01*
X024500Y011740D02*
X024600Y011740D01*
X024600Y011642D02*
X024500Y011642D01*
X024500Y011543D02*
X024600Y011543D01*
X024600Y011445D02*
X024500Y011445D01*
X024500Y011346D02*
X024600Y011346D01*
X024600Y011248D02*
X024500Y011248D01*
X024500Y011149D02*
X024600Y011149D01*
X024600Y011051D02*
X024500Y011051D01*
X024500Y010952D02*
X024600Y010952D01*
X024600Y010854D02*
X024500Y010854D01*
X024500Y010755D02*
X024600Y010755D01*
X024600Y010657D02*
X024500Y010657D01*
X024500Y010558D02*
X024600Y010558D01*
X024600Y010460D02*
X024500Y010460D01*
X024500Y010361D02*
X024600Y010361D01*
X024600Y010263D02*
X024500Y010263D01*
X024500Y010164D02*
X024600Y010164D01*
X024600Y010066D02*
X024500Y010066D01*
X024500Y009967D02*
X024600Y009967D01*
X024600Y009869D02*
X024500Y009869D01*
X024500Y009770D02*
X024600Y009770D01*
X024600Y009672D02*
X024500Y009672D01*
X024500Y009573D02*
X024600Y009573D01*
X024600Y009475D02*
X024487Y009475D01*
X024388Y009376D02*
X024600Y009376D01*
X024600Y009278D02*
X024290Y009278D01*
X024191Y009179D02*
X024600Y009179D01*
X024600Y009081D02*
X024093Y009081D01*
X023994Y008982D02*
X024600Y008982D01*
X024600Y008884D02*
X023896Y008884D01*
X023797Y008785D02*
X024600Y008785D01*
X024600Y008687D02*
X023699Y008687D01*
X023600Y008588D02*
X024600Y008588D01*
X024600Y008490D02*
X023502Y008490D01*
X023403Y008391D02*
X024600Y008391D01*
X024600Y008293D02*
X023305Y008293D01*
X023206Y008194D02*
X024600Y008194D01*
X024600Y008096D02*
X023108Y008096D01*
X023009Y007997D02*
X024600Y007997D01*
X024600Y007899D02*
X022911Y007899D01*
X022812Y007800D02*
X024600Y007800D01*
X024600Y007702D02*
X022714Y007702D01*
X022700Y007603D02*
X024600Y007603D01*
X024600Y007505D02*
X022700Y007505D01*
X022700Y007406D02*
X024600Y007406D01*
X024600Y007308D02*
X022700Y007308D01*
X022700Y007209D02*
X024600Y007209D01*
X024600Y007111D02*
X022700Y007111D01*
X022700Y007012D02*
X024600Y007012D01*
X024600Y006914D02*
X022700Y006914D01*
X022700Y006815D02*
X024600Y006815D01*
X024600Y006717D02*
X022700Y006717D01*
X022700Y006618D02*
X024600Y006618D01*
X024600Y006520D02*
X022700Y006520D01*
X022791Y006421D02*
X024600Y006421D01*
X024600Y006323D02*
X022890Y006323D01*
X022988Y006224D02*
X024600Y006224D01*
X024600Y006126D02*
X023087Y006126D01*
X023185Y006027D02*
X024600Y006027D01*
X024600Y005929D02*
X023284Y005929D01*
X023382Y005830D02*
X024600Y005830D01*
X024600Y005732D02*
X023947Y005732D01*
X024046Y005633D02*
X024600Y005633D01*
X024600Y005535D02*
X024144Y005535D01*
X024180Y005436D02*
X024600Y005436D01*
X024600Y005338D02*
X024180Y005338D01*
X024180Y005239D02*
X024600Y005239D01*
X024600Y005141D02*
X024180Y005141D01*
X024121Y005042D02*
X024580Y005042D01*
X024600Y005062D02*
X023733Y004195D01*
X023699Y004230D01*
X023301Y004230D01*
X023020Y003949D01*
X023020Y003551D01*
X023301Y003270D01*
X023699Y003270D01*
X023980Y003551D01*
X023980Y003949D01*
X023945Y003983D01*
X024900Y004938D01*
X024900Y017812D01*
X024812Y017900D01*
X024500Y018212D01*
X024500Y021488D01*
X024900Y021888D01*
X024900Y022302D01*
X024991Y022340D01*
X025110Y022459D01*
X025175Y022616D01*
X025175Y022784D01*
X025110Y022941D01*
X024991Y023060D01*
X024834Y023125D01*
X024666Y023125D01*
X024509Y023060D01*
X024390Y022941D01*
X024325Y022784D01*
X024325Y022616D01*
X024390Y022459D01*
X024509Y022340D01*
X024600Y022302D01*
X024600Y022012D01*
X024288Y021700D01*
X024200Y021612D01*
X024200Y018088D01*
X024600Y017688D01*
X024600Y005062D01*
X024750Y005000D02*
X023500Y003750D01*
X023980Y003762D02*
X024449Y003762D01*
X024548Y003860D02*
X023980Y003860D01*
X023970Y003959D02*
X024646Y003959D01*
X024745Y004057D02*
X024019Y004057D01*
X024118Y004156D02*
X024843Y004156D01*
X024942Y004254D02*
X024216Y004254D01*
X024315Y004353D02*
X025000Y004353D01*
X025000Y004312D02*
X023533Y002845D01*
X023499Y002880D01*
X023101Y002880D01*
X022820Y002599D01*
X022820Y002201D01*
X023101Y001920D01*
X023499Y001920D01*
X023780Y002201D01*
X023780Y002599D01*
X023745Y002633D01*
X025300Y004188D01*
X025300Y012688D01*
X030400Y017788D01*
X030400Y017412D01*
X025688Y012700D01*
X025600Y012612D01*
X025600Y007588D01*
X027705Y005483D01*
X027670Y005449D01*
X027670Y005051D01*
X027951Y004770D01*
X028349Y004770D01*
X028630Y005051D01*
X028630Y005449D01*
X028349Y005730D01*
X027951Y005730D01*
X027917Y005695D01*
X025900Y007712D01*
X025900Y012488D01*
X030600Y017188D01*
X030600Y017012D01*
X026288Y012700D01*
X026200Y012612D01*
X026200Y008088D01*
X028800Y005488D01*
X028800Y004962D01*
X028133Y004295D01*
X028099Y004330D01*
X027701Y004330D01*
X027420Y004049D01*
X027420Y003651D01*
X027701Y003370D01*
X028099Y003370D01*
X028380Y003651D01*
X028380Y004049D01*
X028345Y004083D01*
X029100Y004838D01*
X029100Y005612D01*
X029012Y005700D01*
X026500Y008212D01*
X026500Y012488D01*
X030800Y016788D01*
X030800Y016412D01*
X026888Y012500D01*
X026800Y012412D01*
X026800Y008288D01*
X029200Y005888D01*
X029200Y004262D01*
X027833Y002895D01*
X027799Y002930D01*
X027401Y002930D01*
X027120Y002649D01*
X027120Y002251D01*
X027401Y001970D01*
X027799Y001970D01*
X028080Y002251D01*
X028080Y002649D01*
X028045Y002683D01*
X029500Y004138D01*
X029500Y006012D01*
X029412Y006100D01*
X027100Y008412D01*
X027100Y012288D01*
X031100Y016288D01*
X031100Y020212D01*
X031012Y020300D01*
X030100Y021212D01*
X030100Y021212D01*
X030012Y021300D01*
X028212Y021300D01*
X027300Y022212D01*
X027300Y023612D01*
X027212Y023700D01*
X026012Y024900D01*
X024888Y024900D01*
X024800Y024812D01*
X024019Y024031D01*
X023991Y024060D01*
X023834Y024125D01*
X023666Y024125D01*
X023509Y024060D01*
X023390Y023941D01*
X023325Y023784D01*
X023325Y023616D01*
X023390Y023459D01*
X023509Y023340D01*
X023666Y023275D01*
X023834Y023275D01*
X023991Y023340D01*
X024110Y023459D01*
X024175Y023616D01*
X024175Y023763D01*
X025012Y024600D01*
X025888Y024600D01*
X027000Y023488D01*
X027000Y022088D01*
X028000Y021088D01*
X028088Y021000D01*
X029888Y021000D01*
X030800Y020088D01*
X030800Y019912D01*
X030012Y020700D01*
X028212Y020700D01*
X026900Y022012D01*
X026900Y023412D01*
X026812Y023500D01*
X025812Y024500D01*
X025288Y024500D01*
X025200Y024412D01*
X024890Y024102D01*
X024834Y024125D01*
X024666Y024125D01*
X024509Y024060D01*
X024390Y023941D01*
X024325Y023784D01*
X024325Y023616D01*
X024390Y023459D01*
X024509Y023340D01*
X024666Y023275D01*
X024834Y023275D01*
X024991Y023340D01*
X025110Y023459D01*
X025175Y023616D01*
X025175Y023784D01*
X025123Y023910D01*
X025412Y024200D01*
X025688Y024200D01*
X025763Y024125D01*
X025666Y024125D01*
X025509Y024060D01*
X025390Y023941D01*
X025325Y023784D01*
X025325Y023616D01*
X025390Y023459D01*
X025509Y023340D01*
X025666Y023275D01*
X025813Y023275D01*
X026200Y022888D01*
X026200Y021688D01*
X027800Y020088D01*
X027888Y020000D01*
X029688Y020000D01*
X029788Y019900D01*
X027812Y019900D01*
X025900Y021812D01*
X025900Y022302D01*
X025991Y022340D01*
X026110Y022459D01*
X026175Y022616D01*
X026175Y022784D01*
X026110Y022941D01*
X025991Y023060D01*
X025834Y023125D01*
X025666Y023125D01*
X025509Y023060D01*
X025390Y022941D01*
X025325Y022784D01*
X025325Y022616D01*
X025390Y022459D01*
X025509Y022340D01*
X025600Y022302D01*
X025600Y021688D01*
X027600Y019688D01*
X027688Y019600D01*
X029688Y019600D01*
X030200Y019088D01*
X030200Y018012D01*
X025088Y012900D01*
X025000Y012812D01*
X025000Y004312D01*
X025000Y004451D02*
X024413Y004451D01*
X024512Y004550D02*
X025000Y004550D01*
X025000Y004648D02*
X024610Y004648D01*
X024709Y004747D02*
X025000Y004747D01*
X025000Y004845D02*
X024807Y004845D01*
X024900Y004944D02*
X025000Y004944D01*
X025000Y005042D02*
X024900Y005042D01*
X024900Y005141D02*
X025000Y005141D01*
X025000Y005239D02*
X024900Y005239D01*
X024900Y005338D02*
X025000Y005338D01*
X025000Y005436D02*
X024900Y005436D01*
X024900Y005535D02*
X025000Y005535D01*
X025000Y005633D02*
X024900Y005633D01*
X024900Y005732D02*
X025000Y005732D01*
X025000Y005830D02*
X024900Y005830D01*
X024900Y005929D02*
X025000Y005929D01*
X025000Y006027D02*
X024900Y006027D01*
X024900Y006126D02*
X025000Y006126D01*
X025000Y006224D02*
X024900Y006224D01*
X024900Y006323D02*
X025000Y006323D01*
X025000Y006421D02*
X024900Y006421D01*
X024900Y006520D02*
X025000Y006520D01*
X025000Y006618D02*
X024900Y006618D01*
X024900Y006717D02*
X025000Y006717D01*
X025000Y006815D02*
X024900Y006815D01*
X024900Y006914D02*
X025000Y006914D01*
X025000Y007012D02*
X024900Y007012D01*
X024900Y007111D02*
X025000Y007111D01*
X025000Y007209D02*
X024900Y007209D01*
X024900Y007308D02*
X025000Y007308D01*
X025000Y007406D02*
X024900Y007406D01*
X024900Y007505D02*
X025000Y007505D01*
X025000Y007603D02*
X024900Y007603D01*
X024900Y007702D02*
X025000Y007702D01*
X025000Y007800D02*
X024900Y007800D01*
X024900Y007899D02*
X025000Y007899D01*
X025000Y007997D02*
X024900Y007997D01*
X024900Y008096D02*
X025000Y008096D01*
X025000Y008194D02*
X024900Y008194D01*
X024900Y008293D02*
X025000Y008293D01*
X025000Y008391D02*
X024900Y008391D01*
X024900Y008490D02*
X025000Y008490D01*
X025000Y008588D02*
X024900Y008588D01*
X024900Y008687D02*
X025000Y008687D01*
X025000Y008785D02*
X024900Y008785D01*
X024900Y008884D02*
X025000Y008884D01*
X025000Y008982D02*
X024900Y008982D01*
X024900Y009081D02*
X025000Y009081D01*
X025000Y009179D02*
X024900Y009179D01*
X024900Y009278D02*
X025000Y009278D01*
X025000Y009376D02*
X024900Y009376D01*
X024900Y009475D02*
X025000Y009475D01*
X025000Y009573D02*
X024900Y009573D01*
X024900Y009672D02*
X025000Y009672D01*
X025000Y009770D02*
X024900Y009770D01*
X024900Y009869D02*
X025000Y009869D01*
X025000Y009967D02*
X024900Y009967D01*
X024900Y010066D02*
X025000Y010066D01*
X025000Y010164D02*
X024900Y010164D01*
X024900Y010263D02*
X025000Y010263D01*
X025000Y010361D02*
X024900Y010361D01*
X024900Y010460D02*
X025000Y010460D01*
X025000Y010558D02*
X024900Y010558D01*
X024900Y010657D02*
X025000Y010657D01*
X025000Y010755D02*
X024900Y010755D01*
X024900Y010854D02*
X025000Y010854D01*
X025000Y010952D02*
X024900Y010952D01*
X024900Y011051D02*
X025000Y011051D01*
X025000Y011149D02*
X024900Y011149D01*
X024900Y011248D02*
X025000Y011248D01*
X025000Y011346D02*
X024900Y011346D01*
X024900Y011445D02*
X025000Y011445D01*
X025000Y011543D02*
X024900Y011543D01*
X024900Y011642D02*
X025000Y011642D01*
X025000Y011740D02*
X024900Y011740D01*
X024900Y011839D02*
X025000Y011839D01*
X025000Y011937D02*
X024900Y011937D01*
X024900Y012036D02*
X025000Y012036D01*
X025000Y012134D02*
X024900Y012134D01*
X024900Y012233D02*
X025000Y012233D01*
X025000Y012331D02*
X024900Y012331D01*
X024900Y012430D02*
X025000Y012430D01*
X025000Y012528D02*
X024900Y012528D01*
X024900Y012627D02*
X025000Y012627D01*
X025000Y012725D02*
X024900Y012725D01*
X024900Y012824D02*
X025011Y012824D01*
X025110Y012922D02*
X024900Y012922D01*
X024900Y013021D02*
X025208Y013021D01*
X025307Y013119D02*
X024900Y013119D01*
X024900Y013218D02*
X025405Y013218D01*
X025504Y013316D02*
X024900Y013316D01*
X024900Y013415D02*
X025602Y013415D01*
X025701Y013513D02*
X024900Y013513D01*
X024900Y013612D02*
X025799Y013612D01*
X025898Y013710D02*
X024900Y013710D01*
X024900Y013809D02*
X025996Y013809D01*
X026095Y013907D02*
X024900Y013907D01*
X024900Y014006D02*
X026193Y014006D01*
X026292Y014104D02*
X024900Y014104D01*
X024900Y014203D02*
X026390Y014203D01*
X026489Y014301D02*
X024900Y014301D01*
X024900Y014400D02*
X026587Y014400D01*
X026686Y014498D02*
X024900Y014498D01*
X024900Y014597D02*
X026784Y014597D01*
X026883Y014695D02*
X024900Y014695D01*
X024900Y014794D02*
X026981Y014794D01*
X027080Y014892D02*
X024900Y014892D01*
X024900Y014991D02*
X027178Y014991D01*
X027277Y015089D02*
X024900Y015089D01*
X024900Y015188D02*
X027375Y015188D01*
X027474Y015286D02*
X024900Y015286D01*
X024900Y015385D02*
X027572Y015385D01*
X027671Y015483D02*
X024900Y015483D01*
X024900Y015582D02*
X027769Y015582D01*
X027868Y015680D02*
X024900Y015680D01*
X024900Y015779D02*
X027966Y015779D01*
X028065Y015877D02*
X024900Y015877D01*
X024900Y015976D02*
X028163Y015976D01*
X028262Y016074D02*
X024900Y016074D01*
X024900Y016173D02*
X028360Y016173D01*
X028459Y016271D02*
X024900Y016271D01*
X024900Y016370D02*
X028557Y016370D01*
X028656Y016468D02*
X024900Y016468D01*
X024900Y016567D02*
X028754Y016567D01*
X028853Y016665D02*
X024900Y016665D01*
X024900Y016764D02*
X028951Y016764D01*
X029050Y016862D02*
X024900Y016862D01*
X024900Y016961D02*
X029148Y016961D01*
X029247Y017059D02*
X024900Y017059D01*
X024900Y017158D02*
X029345Y017158D01*
X029444Y017256D02*
X024900Y017256D01*
X024900Y017355D02*
X029542Y017355D01*
X029641Y017453D02*
X024900Y017453D01*
X024900Y017552D02*
X029739Y017552D01*
X029838Y017650D02*
X024900Y017650D01*
X024900Y017749D02*
X029936Y017749D01*
X030035Y017847D02*
X024865Y017847D01*
X024767Y017946D02*
X030133Y017946D01*
X030200Y018044D02*
X024668Y018044D01*
X024570Y018143D02*
X030200Y018143D01*
X030200Y018241D02*
X024500Y018241D01*
X024500Y018340D02*
X030200Y018340D01*
X030200Y018438D02*
X024500Y018438D01*
X024500Y018537D02*
X030200Y018537D01*
X030200Y018635D02*
X024500Y018635D01*
X024500Y018734D02*
X030200Y018734D01*
X030200Y018832D02*
X024500Y018832D01*
X024500Y018931D02*
X030200Y018931D01*
X030200Y019029D02*
X024500Y019029D01*
X024500Y019128D02*
X030160Y019128D01*
X030062Y019226D02*
X024500Y019226D01*
X024500Y019325D02*
X029963Y019325D01*
X029865Y019423D02*
X024500Y019423D01*
X024500Y019522D02*
X029766Y019522D01*
X029750Y019750D02*
X030350Y019150D01*
X030350Y017950D01*
X025150Y012750D01*
X025150Y004250D01*
X023300Y002400D01*
X022820Y002383D02*
X019430Y002383D01*
X019430Y002481D02*
X022820Y002481D01*
X022820Y002580D02*
X019430Y002580D01*
X019430Y002599D02*
X019149Y002880D01*
X018751Y002880D01*
X018470Y002599D01*
X018470Y002201D01*
X018751Y001920D01*
X019149Y001920D01*
X019430Y002201D01*
X019430Y002599D01*
X019351Y002678D02*
X022899Y002678D01*
X022998Y002777D02*
X019252Y002777D01*
X019154Y002875D02*
X023096Y002875D01*
X023504Y002875D02*
X023563Y002875D01*
X023661Y002974D02*
X000625Y002974D01*
X000625Y003072D02*
X013816Y003072D01*
X013717Y003171D02*
X000625Y003171D01*
X000625Y003269D02*
X013619Y003269D01*
X013520Y003368D02*
X000625Y003368D01*
X000625Y003466D02*
X013422Y003466D01*
X013323Y003565D02*
X000625Y003565D01*
X000625Y003663D02*
X013225Y003663D01*
X013126Y003762D02*
X000625Y003762D01*
X000625Y003860D02*
X013028Y003860D01*
X012929Y003959D02*
X000625Y003959D01*
X000625Y004057D02*
X012831Y004057D01*
X012732Y004156D02*
X000625Y004156D01*
X000625Y004254D02*
X012634Y004254D01*
X012535Y004353D02*
X000625Y004353D01*
X000625Y004451D02*
X012437Y004451D01*
X012338Y004550D02*
X000625Y004550D01*
X000625Y004648D02*
X012240Y004648D01*
X012141Y004747D02*
X000625Y004747D01*
X000625Y004845D02*
X012043Y004845D01*
X011944Y004944D02*
X000625Y004944D01*
X000625Y005042D02*
X011846Y005042D01*
X011747Y005141D02*
X000625Y005141D01*
X000625Y005239D02*
X011649Y005239D01*
X011600Y005338D02*
X000625Y005338D01*
X000625Y005436D02*
X011600Y005436D01*
X011600Y005535D02*
X000625Y005535D01*
X000625Y005633D02*
X011600Y005633D01*
X011600Y005732D02*
X000625Y005732D01*
X000625Y005830D02*
X011600Y005830D01*
X011600Y005929D02*
X000625Y005929D01*
X000625Y006027D02*
X011600Y006027D01*
X011600Y006126D02*
X000625Y006126D01*
X000625Y006224D02*
X011600Y006224D01*
X011600Y006323D02*
X000625Y006323D01*
X000625Y006421D02*
X011600Y006421D01*
X011568Y006520D02*
X000625Y006520D01*
X000625Y006618D02*
X011470Y006618D01*
X011371Y006717D02*
X000625Y006717D01*
X000625Y006815D02*
X011273Y006815D01*
X011174Y006914D02*
X000625Y006914D01*
X000625Y007012D02*
X011076Y007012D01*
X010977Y007111D02*
X000625Y007111D01*
X000625Y007209D02*
X010879Y007209D01*
X010780Y007308D02*
X000625Y007308D01*
X000625Y007406D02*
X010682Y007406D01*
X010583Y007505D02*
X000625Y007505D01*
X000625Y007603D02*
X010485Y007603D01*
X010386Y007702D02*
X000625Y007702D01*
X000625Y007800D02*
X010288Y007800D01*
X010189Y007899D02*
X000625Y007899D01*
X000625Y007997D02*
X010091Y007997D01*
X009992Y008096D02*
X000625Y008096D01*
X000625Y008194D02*
X009894Y008194D01*
X009795Y008293D02*
X000625Y008293D01*
X000625Y008391D02*
X009697Y008391D01*
X009598Y008490D02*
X000625Y008490D01*
X000625Y008588D02*
X009500Y008588D01*
X009401Y008687D02*
X000625Y008687D01*
X000625Y008785D02*
X009303Y008785D01*
X009204Y008884D02*
X000625Y008884D01*
X000625Y008982D02*
X009106Y008982D01*
X009007Y009081D02*
X000625Y009081D01*
X000625Y009179D02*
X008174Y009179D01*
X008077Y009278D02*
X000625Y009278D01*
X000625Y009376D02*
X008037Y009376D01*
X008032Y009475D02*
X000625Y009475D01*
X000625Y009573D02*
X008057Y009573D01*
X008122Y009672D02*
X000625Y009672D01*
X000625Y009770D02*
X009118Y009770D01*
X009216Y009672D02*
X008578Y009672D01*
X008350Y009450D02*
X008850Y009450D01*
X011750Y006550D01*
X011750Y005350D01*
X013950Y003150D01*
X014150Y003150D01*
X015350Y004350D01*
X015750Y004450D01*
X016150Y004850D01*
X016259Y004747D02*
X016534Y004747D01*
X016633Y004845D02*
X016300Y004845D01*
X016300Y004944D02*
X016731Y004944D01*
X016830Y005042D02*
X016504Y005042D01*
X016601Y005141D02*
X016928Y005141D01*
X017027Y005239D02*
X016641Y005239D01*
X017057Y004845D02*
X019222Y004845D01*
X019297Y004770D02*
X019466Y004770D01*
X019466Y005250D01*
X018986Y005250D01*
X018986Y005080D01*
X019297Y004770D01*
X019466Y004845D02*
X019566Y004845D01*
X019566Y004770D02*
X019736Y004770D01*
X020046Y005080D01*
X020046Y005250D01*
X019566Y005250D01*
X019566Y004770D01*
X019566Y004944D02*
X019466Y004944D01*
X019466Y005042D02*
X019566Y005042D01*
X019566Y005141D02*
X019466Y005141D01*
X019466Y005239D02*
X019566Y005239D01*
X019566Y005250D02*
X019466Y005250D01*
X019466Y005350D01*
X018986Y005350D01*
X018986Y005520D01*
X019297Y005830D01*
X019466Y005830D01*
X019466Y005350D01*
X019566Y005350D01*
X019566Y005830D01*
X019736Y005830D01*
X020046Y005520D01*
X020046Y005350D01*
X019566Y005350D01*
X019566Y005250D01*
X019516Y005300D02*
X020300Y005300D01*
X021750Y006750D01*
X021800Y006717D02*
X022400Y006717D01*
X022400Y006815D02*
X022280Y006815D01*
X022280Y006800D02*
X022280Y006970D01*
X021970Y007280D01*
X021800Y007280D01*
X021800Y006800D01*
X022280Y006800D01*
X022280Y006700D02*
X021800Y006700D01*
X021800Y006800D01*
X021700Y006800D01*
X021700Y007280D01*
X021530Y007280D01*
X021220Y006970D01*
X021220Y006800D01*
X021700Y006800D01*
X021700Y006700D01*
X021800Y006700D01*
X021800Y006220D01*
X021970Y006220D01*
X022280Y006530D01*
X022280Y006700D01*
X022280Y006618D02*
X022400Y006618D01*
X022400Y006520D02*
X022269Y006520D01*
X022171Y006421D02*
X022400Y006421D01*
X022465Y006323D02*
X022072Y006323D01*
X021974Y006224D02*
X022564Y006224D01*
X022662Y006126D02*
X018338Y006126D01*
X018436Y006224D02*
X021526Y006224D01*
X021530Y006220D02*
X021700Y006220D01*
X021700Y006700D01*
X021220Y006700D01*
X021220Y006530D01*
X021530Y006220D01*
X021428Y006323D02*
X018535Y006323D01*
X018550Y006500D02*
X018550Y006550D01*
X016350Y004350D01*
X016281Y004350D01*
X016656Y004353D02*
X023890Y004353D01*
X023989Y004451D02*
X016663Y004451D01*
X016762Y004550D02*
X024087Y004550D01*
X024186Y004648D02*
X016860Y004648D01*
X016959Y004747D02*
X024284Y004747D01*
X024383Y004845D02*
X023924Y004845D01*
X024022Y004944D02*
X024481Y004944D01*
X024750Y005000D02*
X024750Y017750D01*
X024350Y018150D01*
X024350Y021550D01*
X024750Y021950D01*
X024750Y022700D01*
X025139Y022871D02*
X025361Y022871D01*
X025325Y022772D02*
X025175Y022772D01*
X025175Y022674D02*
X025325Y022674D01*
X025342Y022575D02*
X025158Y022575D01*
X025117Y022477D02*
X025383Y022477D01*
X025471Y022378D02*
X025029Y022378D01*
X024900Y022280D02*
X025600Y022280D01*
X025600Y022181D02*
X024900Y022181D01*
X024900Y022083D02*
X025600Y022083D01*
X025600Y021984D02*
X024900Y021984D01*
X024898Y021886D02*
X025600Y021886D01*
X025600Y021787D02*
X024799Y021787D01*
X024701Y021689D02*
X025600Y021689D01*
X025698Y021590D02*
X024602Y021590D01*
X024504Y021492D02*
X025796Y021492D01*
X025895Y021393D02*
X024500Y021393D01*
X024500Y021295D02*
X025993Y021295D01*
X026092Y021196D02*
X024500Y021196D01*
X024500Y021098D02*
X026190Y021098D01*
X026289Y020999D02*
X024500Y020999D01*
X024500Y020901D02*
X026387Y020901D01*
X026486Y020802D02*
X024500Y020802D01*
X024500Y020704D02*
X026584Y020704D01*
X026683Y020605D02*
X024500Y020605D01*
X024500Y020507D02*
X026781Y020507D01*
X026880Y020408D02*
X024500Y020408D01*
X024500Y020310D02*
X026978Y020310D01*
X027077Y020211D02*
X024500Y020211D01*
X024500Y020113D02*
X027175Y020113D01*
X027274Y020014D02*
X024500Y020014D01*
X024500Y019916D02*
X027372Y019916D01*
X027471Y019817D02*
X024500Y019817D01*
X024500Y019719D02*
X027569Y019719D01*
X027668Y019620D02*
X024500Y019620D01*
X024200Y019620D02*
X023900Y019620D01*
X023900Y019522D02*
X024200Y019522D01*
X024200Y019423D02*
X023900Y019423D01*
X023900Y019325D02*
X024200Y019325D01*
X024200Y019226D02*
X023900Y019226D01*
X023900Y019128D02*
X024200Y019128D01*
X024200Y019029D02*
X023900Y019029D01*
X023900Y018931D02*
X024200Y018931D01*
X024200Y018832D02*
X023900Y018832D01*
X023900Y018734D02*
X024200Y018734D01*
X024200Y018635D02*
X023900Y018635D01*
X023900Y018537D02*
X024200Y018537D01*
X024200Y018438D02*
X023900Y018438D01*
X023900Y018340D02*
X024200Y018340D01*
X024200Y018241D02*
X023900Y018241D01*
X023970Y018143D02*
X024200Y018143D01*
X024244Y018044D02*
X024068Y018044D01*
X024167Y017946D02*
X024342Y017946D01*
X024265Y017847D02*
X024441Y017847D01*
X024364Y017749D02*
X024539Y017749D01*
X024600Y017650D02*
X024462Y017650D01*
X024500Y017552D02*
X024600Y017552D01*
X024600Y017453D02*
X024500Y017453D01*
X024500Y017355D02*
X024600Y017355D01*
X024600Y017256D02*
X024500Y017256D01*
X024500Y017158D02*
X024600Y017158D01*
X024600Y017059D02*
X024500Y017059D01*
X024500Y016961D02*
X024600Y016961D01*
X024200Y017355D02*
X024080Y017355D01*
X024080Y017453D02*
X024200Y017453D01*
X024136Y017552D02*
X023998Y017552D01*
X024038Y017650D02*
X023899Y017650D01*
X023939Y017749D02*
X023801Y017749D01*
X023841Y017847D02*
X022900Y017847D01*
X022900Y017749D02*
X023299Y017749D01*
X023201Y017650D02*
X022900Y017650D01*
X022900Y017552D02*
X023102Y017552D01*
X023020Y017453D02*
X022900Y017453D01*
X022900Y017355D02*
X023020Y017355D01*
X022600Y017355D02*
X021280Y017355D01*
X021196Y017453D02*
X022600Y017453D01*
X022600Y017552D02*
X021098Y017552D01*
X020999Y017650D02*
X022600Y017650D01*
X022900Y017946D02*
X023742Y017946D01*
X023644Y018044D02*
X022900Y018044D01*
X022900Y018143D02*
X023600Y018143D01*
X023600Y018241D02*
X022900Y018241D01*
X022900Y018340D02*
X023600Y018340D01*
X023600Y018438D02*
X022900Y018438D01*
X022900Y018537D02*
X023600Y018537D01*
X023600Y018635D02*
X022900Y018635D01*
X022900Y018734D02*
X023600Y018734D01*
X023600Y018832D02*
X022900Y018832D01*
X022900Y018931D02*
X023600Y018931D01*
X023600Y019029D02*
X022900Y019029D01*
X022900Y019128D02*
X023600Y019128D01*
X023600Y019226D02*
X022900Y019226D01*
X022900Y019325D02*
X023600Y019325D01*
X023600Y019423D02*
X022900Y019423D01*
X022900Y019522D02*
X023600Y019522D01*
X023600Y019620D02*
X022900Y019620D01*
X022900Y019719D02*
X023600Y019719D01*
X023600Y019817D02*
X022900Y019817D01*
X022900Y019916D02*
X023600Y019916D01*
X023600Y020014D02*
X022900Y020014D01*
X022900Y020113D02*
X023600Y020113D01*
X023600Y020211D02*
X022900Y020211D01*
X022900Y020310D02*
X023600Y020310D01*
X023600Y020408D02*
X022900Y020408D01*
X022900Y020507D02*
X023600Y020507D01*
X023600Y020605D02*
X022900Y020605D01*
X022900Y020704D02*
X023600Y020704D01*
X023600Y020802D02*
X022900Y020802D01*
X022900Y020901D02*
X023600Y020901D01*
X023600Y020999D02*
X022900Y020999D01*
X022900Y021098D02*
X023600Y021098D01*
X023600Y021196D02*
X022900Y021196D01*
X022900Y021295D02*
X023600Y021295D01*
X023600Y021393D02*
X022900Y021393D01*
X022900Y021492D02*
X023600Y021492D01*
X023600Y021590D02*
X022900Y021590D01*
X022900Y021689D02*
X023600Y021689D01*
X023600Y021787D02*
X022900Y021787D01*
X022900Y021886D02*
X023600Y021886D01*
X023600Y021984D02*
X022900Y021984D01*
X022900Y022083D02*
X023600Y022083D01*
X023600Y022181D02*
X022900Y022181D01*
X022900Y022280D02*
X023600Y022280D01*
X023471Y022378D02*
X023029Y022378D01*
X023117Y022477D02*
X023383Y022477D01*
X023342Y022575D02*
X023158Y022575D01*
X023175Y022674D02*
X023325Y022674D01*
X023325Y022772D02*
X023175Y022772D01*
X023139Y022871D02*
X023361Y022871D01*
X023418Y022969D02*
X023082Y022969D01*
X022973Y023068D02*
X023527Y023068D01*
X023486Y023363D02*
X023014Y023363D01*
X023111Y023462D02*
X023389Y023462D01*
X023348Y023560D02*
X023152Y023560D01*
X023175Y023659D02*
X023325Y023659D01*
X023325Y023757D02*
X023175Y023757D01*
X023145Y023856D02*
X023355Y023856D01*
X023403Y023954D02*
X023097Y023954D01*
X022998Y024053D02*
X023502Y024053D01*
X023998Y024053D02*
X024040Y024053D01*
X024139Y024151D02*
X022161Y024151D01*
X022260Y024053D02*
X022502Y024053D01*
X022403Y023954D02*
X022358Y023954D01*
X022400Y023700D02*
X018750Y027350D01*
X002750Y027350D01*
X002550Y027150D01*
X002550Y021950D01*
X001950Y021350D01*
X001950Y017150D01*
X012350Y006750D01*
X012350Y006050D01*
X013850Y004350D01*
X014781Y004350D01*
X014543Y004057D02*
X014352Y004057D01*
X014392Y003959D02*
X014746Y003959D01*
X014648Y003860D02*
X014406Y003860D01*
X014401Y003762D02*
X014549Y003762D01*
X014451Y003663D02*
X014360Y003663D01*
X014352Y003565D02*
X014277Y003565D01*
X014254Y003466D02*
X013846Y003466D01*
X013785Y003565D02*
X013748Y003565D01*
X013702Y003663D02*
X013649Y003663D01*
X013661Y003762D02*
X013551Y003762D01*
X013452Y003860D02*
X013655Y003860D01*
X013669Y003959D02*
X013354Y003959D01*
X013255Y004057D02*
X013710Y004057D01*
X013805Y004156D02*
X013157Y004156D01*
X013058Y004254D02*
X013734Y004254D01*
X013648Y004353D02*
X012960Y004353D01*
X012861Y004451D02*
X013561Y004451D01*
X013474Y004550D02*
X012763Y004550D01*
X012664Y004648D02*
X013387Y004648D01*
X013300Y004747D02*
X012566Y004747D01*
X012467Y004845D02*
X013213Y004845D01*
X013126Y004944D02*
X012369Y004944D01*
X012270Y005042D02*
X013039Y005042D01*
X012952Y005141D02*
X012172Y005141D01*
X012073Y005239D02*
X012866Y005239D01*
X012779Y005338D02*
X011975Y005338D01*
X011900Y005436D02*
X012692Y005436D01*
X012605Y005535D02*
X011900Y005535D01*
X011900Y005633D02*
X012518Y005633D01*
X012431Y005732D02*
X011900Y005732D01*
X011900Y005830D02*
X012344Y005830D01*
X012257Y005929D02*
X011900Y005929D01*
X011900Y006027D02*
X012198Y006027D01*
X012200Y006126D02*
X011900Y006126D01*
X011900Y006224D02*
X012200Y006224D01*
X012200Y006323D02*
X011900Y006323D01*
X011900Y006421D02*
X012200Y006421D01*
X012200Y006520D02*
X011900Y006520D01*
X011894Y006618D02*
X012200Y006618D01*
X012171Y006717D02*
X011796Y006717D01*
X011812Y006700D02*
X011812Y006700D01*
X011697Y006815D02*
X012073Y006815D01*
X011974Y006914D02*
X011599Y006914D01*
X011500Y007012D02*
X011876Y007012D01*
X011777Y007111D02*
X011402Y007111D01*
X011303Y007209D02*
X011679Y007209D01*
X011580Y007308D02*
X011205Y007308D01*
X011106Y007406D02*
X011482Y007406D01*
X011383Y007505D02*
X011008Y007505D01*
X010909Y007603D02*
X011285Y007603D01*
X011186Y007702D02*
X010811Y007702D01*
X010712Y007800D02*
X011088Y007800D01*
X010989Y007899D02*
X010614Y007899D01*
X010515Y007997D02*
X010891Y007997D01*
X010792Y008096D02*
X010417Y008096D01*
X010318Y008194D02*
X010694Y008194D01*
X010595Y008293D02*
X010220Y008293D01*
X010121Y008391D02*
X010497Y008391D01*
X010398Y008490D02*
X010023Y008490D01*
X009924Y008588D02*
X010300Y008588D01*
X010201Y008687D02*
X009826Y008687D01*
X009727Y008785D02*
X010103Y008785D01*
X010004Y008884D02*
X009629Y008884D01*
X009530Y008982D02*
X009906Y008982D01*
X009807Y009081D02*
X009432Y009081D01*
X009333Y009179D02*
X009709Y009179D01*
X009610Y009278D02*
X009235Y009278D01*
X009136Y009376D02*
X009512Y009376D01*
X009413Y009475D02*
X009038Y009475D01*
X008939Y009573D02*
X009315Y009573D01*
X009019Y009869D02*
X000625Y009869D01*
X000625Y009967D02*
X008921Y009967D01*
X008822Y010066D02*
X000625Y010066D01*
X000625Y010164D02*
X008724Y010164D01*
X008625Y010263D02*
X000625Y010263D01*
X000625Y010361D02*
X008527Y010361D01*
X008428Y010460D02*
X000625Y010460D01*
X000625Y010558D02*
X008330Y010558D01*
X008231Y010657D02*
X000625Y010657D01*
X000625Y010755D02*
X008133Y010755D01*
X008034Y010854D02*
X000625Y010854D01*
X000625Y010952D02*
X007936Y010952D01*
X007837Y011051D02*
X000625Y011051D01*
X000625Y011149D02*
X007739Y011149D01*
X007640Y011248D02*
X000625Y011248D01*
X000625Y011346D02*
X007542Y011346D01*
X007443Y011445D02*
X000625Y011445D01*
X000625Y011543D02*
X007345Y011543D01*
X007246Y011642D02*
X000625Y011642D01*
X000625Y011740D02*
X007148Y011740D01*
X007049Y011839D02*
X000625Y011839D01*
X000625Y011937D02*
X006951Y011937D01*
X006852Y012036D02*
X000625Y012036D01*
X000625Y012134D02*
X006754Y012134D01*
X006655Y012233D02*
X000625Y012233D01*
X000625Y012331D02*
X006557Y012331D01*
X006458Y012430D02*
X000625Y012430D01*
X000625Y012528D02*
X006360Y012528D01*
X006261Y012627D02*
X000625Y012627D01*
X000625Y012725D02*
X006163Y012725D01*
X006064Y012824D02*
X000625Y012824D01*
X000625Y012922D02*
X005966Y012922D01*
X005867Y013021D02*
X000625Y013021D01*
X000625Y013119D02*
X005769Y013119D01*
X005670Y013218D02*
X000625Y013218D01*
X000625Y013316D02*
X005572Y013316D01*
X005473Y013415D02*
X000625Y013415D01*
X000625Y013513D02*
X005375Y013513D01*
X005276Y013612D02*
X000625Y013612D01*
X000625Y013710D02*
X005178Y013710D01*
X005079Y013809D02*
X000625Y013809D01*
X000625Y013907D02*
X004981Y013907D01*
X004882Y014006D02*
X000625Y014006D01*
X000625Y014104D02*
X004784Y014104D01*
X004685Y014203D02*
X000625Y014203D01*
X000625Y014301D02*
X004587Y014301D01*
X004488Y014400D02*
X000625Y014400D01*
X000625Y014498D02*
X004390Y014498D01*
X004291Y014597D02*
X000625Y014597D01*
X000625Y014695D02*
X004193Y014695D01*
X004094Y014794D02*
X000625Y014794D01*
X000625Y014892D02*
X003996Y014892D01*
X003897Y014991D02*
X000625Y014991D01*
X000625Y015089D02*
X003799Y015089D01*
X003700Y015188D02*
X000625Y015188D01*
X000625Y015286D02*
X003602Y015286D01*
X003503Y015385D02*
X000625Y015385D01*
X000625Y015483D02*
X003405Y015483D01*
X003306Y015582D02*
X000625Y015582D01*
X000625Y015680D02*
X003208Y015680D01*
X003109Y015779D02*
X000625Y015779D01*
X000625Y015877D02*
X003011Y015877D01*
X002912Y015976D02*
X000625Y015976D01*
X000625Y016074D02*
X002814Y016074D01*
X002715Y016173D02*
X000625Y016173D01*
X000625Y016271D02*
X002617Y016271D01*
X002518Y016370D02*
X000625Y016370D01*
X000625Y016468D02*
X002420Y016468D01*
X002321Y016567D02*
X000625Y016567D01*
X000625Y016665D02*
X002223Y016665D01*
X002124Y016764D02*
X000625Y016764D01*
X000625Y016862D02*
X002026Y016862D01*
X001927Y016961D02*
X000625Y016961D01*
X000625Y017059D02*
X001829Y017059D01*
X001888Y017000D02*
X001888Y017000D01*
X001800Y017158D02*
X000625Y017158D01*
X000625Y017256D02*
X001800Y017256D01*
X001800Y017355D02*
X000625Y017355D01*
X000625Y017453D02*
X001800Y017453D01*
X001800Y017552D02*
X000625Y017552D01*
X000625Y017650D02*
X001800Y017650D01*
X001800Y017749D02*
X000625Y017749D01*
X000625Y017847D02*
X001800Y017847D01*
X001800Y017946D02*
X000625Y017946D01*
X000625Y018044D02*
X001800Y018044D01*
X001800Y018143D02*
X000625Y018143D01*
X000625Y018241D02*
X001800Y018241D01*
X001800Y018340D02*
X000625Y018340D01*
X000625Y018438D02*
X001800Y018438D01*
X001800Y018537D02*
X000625Y018537D01*
X000625Y018635D02*
X001800Y018635D01*
X001800Y018734D02*
X000625Y018734D01*
X000625Y018832D02*
X001800Y018832D01*
X001800Y018931D02*
X000625Y018931D01*
X000625Y019029D02*
X001800Y019029D01*
X001800Y019128D02*
X000625Y019128D01*
X000625Y019226D02*
X001800Y019226D01*
X001800Y019325D02*
X000625Y019325D01*
X000625Y019423D02*
X001800Y019423D01*
X001800Y019522D02*
X000625Y019522D01*
X000625Y019620D02*
X001800Y019620D01*
X001800Y019719D02*
X000625Y019719D01*
X000625Y019817D02*
X001800Y019817D01*
X001800Y019916D02*
X000625Y019916D01*
X000625Y020014D02*
X001800Y020014D01*
X001800Y020113D02*
X000625Y020113D01*
X000625Y020211D02*
X001800Y020211D01*
X001800Y020310D02*
X000625Y020310D01*
X000625Y020408D02*
X001800Y020408D01*
X001800Y020507D02*
X000625Y020507D01*
X000625Y020605D02*
X001800Y020605D01*
X001800Y020704D02*
X000625Y020704D01*
X000625Y020802D02*
X001800Y020802D01*
X001800Y020901D02*
X000625Y020901D01*
X000625Y020999D02*
X001800Y020999D01*
X001800Y021098D02*
X000625Y021098D01*
X000625Y021196D02*
X001800Y021196D01*
X001800Y021295D02*
X000625Y021295D01*
X000625Y021393D02*
X001800Y021393D01*
X001879Y021492D02*
X000625Y021492D01*
X000625Y021590D02*
X001978Y021590D01*
X002076Y021689D02*
X000625Y021689D01*
X000625Y021787D02*
X002175Y021787D01*
X002273Y021886D02*
X000625Y021886D01*
X000625Y021984D02*
X002372Y021984D01*
X002400Y022083D02*
X000625Y022083D01*
X000625Y022181D02*
X002400Y022181D01*
X002400Y022280D02*
X000625Y022280D01*
X000625Y022378D02*
X002400Y022378D01*
X002400Y022477D02*
X000625Y022477D01*
X000625Y022575D02*
X002400Y022575D01*
X002400Y022674D02*
X000625Y022674D01*
X000625Y022772D02*
X002400Y022772D01*
X002400Y022871D02*
X000625Y022871D01*
X000625Y022969D02*
X002400Y022969D01*
X002400Y023068D02*
X000625Y023068D01*
X000625Y023166D02*
X002400Y023166D01*
X002400Y023265D02*
X000625Y023265D01*
X000625Y023363D02*
X002400Y023363D01*
X002400Y023462D02*
X000625Y023462D01*
X000625Y023560D02*
X002400Y023560D01*
X002400Y023659D02*
X000625Y023659D01*
X000625Y023757D02*
X002400Y023757D01*
X002400Y023856D02*
X000625Y023856D01*
X000625Y023954D02*
X002400Y023954D01*
X002400Y024053D02*
X000625Y024053D01*
X000625Y024151D02*
X002400Y024151D01*
X002400Y024250D02*
X000625Y024250D01*
X000625Y024348D02*
X002400Y024348D01*
X002400Y024447D02*
X000625Y024447D01*
X000625Y024545D02*
X002400Y024545D01*
X002400Y024644D02*
X000625Y024644D01*
X000625Y024742D02*
X002400Y024742D01*
X002400Y024841D02*
X000625Y024841D01*
X000625Y024939D02*
X002400Y024939D01*
X002400Y025038D02*
X000625Y025038D01*
X000625Y025136D02*
X002400Y025136D01*
X002400Y025235D02*
X000625Y025235D01*
X000625Y025333D02*
X002400Y025333D01*
X002400Y025432D02*
X000625Y025432D01*
X000625Y025530D02*
X002400Y025530D01*
X002400Y025629D02*
X000625Y025629D01*
X000625Y025727D02*
X002400Y025727D01*
X002400Y025826D02*
X000625Y025826D01*
X000625Y025924D02*
X002400Y025924D01*
X002400Y026023D02*
X000625Y026023D01*
X000625Y026121D02*
X002400Y026121D01*
X002400Y026220D02*
X000625Y026220D01*
X000625Y026318D02*
X002400Y026318D01*
X002400Y026417D02*
X000625Y026417D01*
X000625Y026515D02*
X002400Y026515D01*
X002400Y026614D02*
X000625Y026614D01*
X000625Y026712D02*
X002400Y026712D01*
X002400Y026811D02*
X000625Y026811D01*
X000625Y026909D02*
X002400Y026909D01*
X002400Y027008D02*
X000625Y027008D01*
X000625Y027106D02*
X002400Y027106D01*
X002400Y027205D02*
X000625Y027205D01*
X000625Y027303D02*
X002491Y027303D01*
X002589Y027402D02*
X000625Y027402D01*
X000625Y027500D02*
X000934Y027500D01*
X001014Y027467D02*
X000763Y027571D01*
X000625Y027709D01*
X000625Y001591D01*
X000763Y001729D01*
X001014Y001833D01*
X001286Y001833D01*
X001537Y001729D01*
X001729Y001537D01*
X001833Y001286D01*
X001833Y001014D01*
X001729Y000763D01*
X001591Y000625D01*
X030909Y000625D01*
X030771Y000763D01*
X030667Y001014D01*
X030667Y001286D01*
X030771Y001537D01*
X030963Y001729D01*
X031214Y001833D01*
X031486Y001833D01*
X031737Y001729D01*
X031875Y001591D01*
X031875Y027709D01*
X031737Y027571D01*
X031486Y027467D01*
X031214Y027467D01*
X030963Y027571D01*
X030771Y027763D01*
X030667Y028014D01*
X030667Y028286D01*
X030771Y028537D01*
X030909Y028675D01*
X001591Y028675D01*
X001729Y028537D01*
X001833Y028286D01*
X001833Y028014D01*
X001729Y027763D01*
X001537Y027571D01*
X001286Y027467D01*
X001014Y027467D01*
X000735Y027599D02*
X000625Y027599D01*
X000625Y027697D02*
X000637Y027697D01*
X001366Y027500D02*
X031134Y027500D01*
X030935Y027599D02*
X001565Y027599D01*
X001663Y027697D02*
X030837Y027697D01*
X030757Y027796D02*
X001743Y027796D01*
X001783Y027894D02*
X030717Y027894D01*
X030676Y027993D02*
X001824Y027993D01*
X001833Y028091D02*
X030667Y028091D01*
X030667Y028190D02*
X001833Y028190D01*
X001832Y028288D02*
X030668Y028288D01*
X030709Y028387D02*
X001791Y028387D01*
X001751Y028485D02*
X030749Y028485D01*
X030818Y028584D02*
X001682Y028584D01*
X003150Y026950D02*
X018150Y026950D01*
X021400Y023700D01*
X021750Y023700D01*
X022014Y023363D02*
X022486Y023363D01*
X022389Y023462D02*
X022111Y023462D01*
X022152Y023560D02*
X022328Y023560D01*
X022229Y023659D02*
X022175Y023659D01*
X022400Y023700D02*
X022750Y023700D01*
X022527Y023068D02*
X022345Y023068D01*
X022400Y022969D02*
X022418Y022969D01*
X022246Y023166D02*
X025922Y023166D01*
X025973Y023068D02*
X026020Y023068D01*
X026082Y022969D02*
X026119Y022969D01*
X026139Y022871D02*
X026200Y022871D01*
X026200Y022772D02*
X026175Y022772D01*
X026175Y022674D02*
X026200Y022674D01*
X026200Y022575D02*
X026158Y022575D01*
X026117Y022477D02*
X026200Y022477D01*
X026200Y022378D02*
X026029Y022378D01*
X025900Y022280D02*
X026200Y022280D01*
X026200Y022181D02*
X025900Y022181D01*
X025900Y022083D02*
X026200Y022083D01*
X026200Y021984D02*
X025900Y021984D01*
X025900Y021886D02*
X026200Y021886D01*
X026200Y021787D02*
X025925Y021787D01*
X026024Y021689D02*
X026200Y021689D01*
X026122Y021590D02*
X026298Y021590D01*
X026221Y021492D02*
X026396Y021492D01*
X026319Y021393D02*
X026495Y021393D01*
X026418Y021295D02*
X026593Y021295D01*
X026516Y021196D02*
X026692Y021196D01*
X026615Y021098D02*
X026790Y021098D01*
X026713Y020999D02*
X026889Y020999D01*
X026812Y020901D02*
X026987Y020901D01*
X026910Y020802D02*
X027086Y020802D01*
X027009Y020704D02*
X027184Y020704D01*
X027107Y020605D02*
X027283Y020605D01*
X027206Y020507D02*
X027381Y020507D01*
X027304Y020408D02*
X027480Y020408D01*
X027403Y020310D02*
X027578Y020310D01*
X027501Y020211D02*
X027677Y020211D01*
X027600Y020113D02*
X027775Y020113D01*
X027698Y020014D02*
X027874Y020014D01*
X027797Y019916D02*
X029772Y019916D01*
X029750Y019750D02*
X027750Y019750D01*
X025750Y021750D01*
X025750Y022700D01*
X025418Y022969D02*
X025082Y022969D01*
X024973Y023068D02*
X025527Y023068D01*
X025486Y023363D02*
X025014Y023363D01*
X025111Y023462D02*
X025389Y023462D01*
X025348Y023560D02*
X025152Y023560D01*
X025175Y023659D02*
X025325Y023659D01*
X025325Y023757D02*
X025175Y023757D01*
X025145Y023856D02*
X025355Y023856D01*
X025403Y023954D02*
X025166Y023954D01*
X025265Y024053D02*
X025502Y024053D01*
X025363Y024151D02*
X025737Y024151D01*
X025750Y024350D02*
X025350Y024350D01*
X024750Y023750D01*
X024750Y023700D01*
X024486Y023363D02*
X024014Y023363D01*
X024111Y023462D02*
X024389Y023462D01*
X024348Y023560D02*
X024152Y023560D01*
X024175Y023659D02*
X024325Y023659D01*
X024325Y023757D02*
X024175Y023757D01*
X024268Y023856D02*
X024355Y023856D01*
X024366Y023954D02*
X024403Y023954D01*
X024465Y024053D02*
X024502Y024053D01*
X024563Y024151D02*
X024939Y024151D01*
X025037Y024250D02*
X024662Y024250D01*
X024760Y024348D02*
X025136Y024348D01*
X025234Y024447D02*
X024859Y024447D01*
X024957Y024545D02*
X025943Y024545D01*
X025866Y024447D02*
X026041Y024447D01*
X025964Y024348D02*
X026140Y024348D01*
X026063Y024250D02*
X026238Y024250D01*
X026161Y024151D02*
X026337Y024151D01*
X026260Y024053D02*
X026435Y024053D01*
X026358Y023954D02*
X026534Y023954D01*
X026457Y023856D02*
X026632Y023856D01*
X026555Y023757D02*
X026731Y023757D01*
X026654Y023659D02*
X026829Y023659D01*
X026752Y023560D02*
X026928Y023560D01*
X027000Y023462D02*
X026851Y023462D01*
X026900Y023363D02*
X027000Y023363D01*
X027000Y023265D02*
X026900Y023265D01*
X026900Y023166D02*
X027000Y023166D01*
X027000Y023068D02*
X026900Y023068D01*
X026900Y022969D02*
X027000Y022969D01*
X027000Y022871D02*
X026900Y022871D01*
X026900Y022772D02*
X027000Y022772D01*
X027000Y022674D02*
X026900Y022674D01*
X026900Y022575D02*
X027000Y022575D01*
X027000Y022477D02*
X026900Y022477D01*
X026900Y022378D02*
X027000Y022378D01*
X027000Y022280D02*
X026900Y022280D01*
X026900Y022181D02*
X027000Y022181D01*
X027005Y022083D02*
X026900Y022083D01*
X026928Y021984D02*
X027104Y021984D01*
X027027Y021886D02*
X027202Y021886D01*
X027125Y021787D02*
X027301Y021787D01*
X027224Y021689D02*
X027399Y021689D01*
X027322Y021590D02*
X027498Y021590D01*
X027421Y021492D02*
X027596Y021492D01*
X027519Y021393D02*
X027695Y021393D01*
X027618Y021295D02*
X027793Y021295D01*
X027716Y021196D02*
X027892Y021196D01*
X027815Y021098D02*
X027990Y021098D01*
X027913Y020999D02*
X029889Y020999D01*
X029987Y020901D02*
X028012Y020901D01*
X028110Y020802D02*
X030086Y020802D01*
X030184Y020704D02*
X028209Y020704D01*
X028150Y020550D02*
X029950Y020550D01*
X030750Y019750D01*
X030750Y016950D01*
X026350Y012550D01*
X026350Y008150D01*
X028950Y005550D01*
X028950Y004900D01*
X027900Y003850D01*
X027420Y003860D02*
X024972Y003860D01*
X024874Y003762D02*
X027420Y003762D01*
X027420Y003663D02*
X024775Y003663D01*
X024677Y003565D02*
X027507Y003565D01*
X027605Y003466D02*
X024578Y003466D01*
X024480Y003368D02*
X028305Y003368D01*
X028404Y003466D02*
X028195Y003466D01*
X028293Y003565D02*
X028502Y003565D01*
X028601Y003663D02*
X028380Y003663D01*
X028380Y003762D02*
X028699Y003762D01*
X028798Y003860D02*
X028380Y003860D01*
X028380Y003959D02*
X028896Y003959D01*
X028995Y004057D02*
X028372Y004057D01*
X028418Y004156D02*
X029093Y004156D01*
X029192Y004254D02*
X028516Y004254D01*
X028615Y004353D02*
X029200Y004353D01*
X029200Y004451D02*
X028713Y004451D01*
X028812Y004550D02*
X029200Y004550D01*
X029200Y004648D02*
X028910Y004648D01*
X029009Y004747D02*
X029200Y004747D01*
X029200Y004845D02*
X029100Y004845D01*
X029100Y004944D02*
X029200Y004944D01*
X029200Y005042D02*
X029100Y005042D01*
X029100Y005141D02*
X029200Y005141D01*
X029200Y005239D02*
X029100Y005239D01*
X029100Y005338D02*
X029200Y005338D01*
X029200Y005436D02*
X029100Y005436D01*
X029100Y005535D02*
X029200Y005535D01*
X029200Y005633D02*
X029079Y005633D01*
X028981Y005732D02*
X029200Y005732D01*
X029200Y005830D02*
X028882Y005830D01*
X028784Y005929D02*
X029159Y005929D01*
X029061Y006027D02*
X028685Y006027D01*
X028587Y006126D02*
X028962Y006126D01*
X028864Y006224D02*
X028488Y006224D01*
X028390Y006323D02*
X028765Y006323D01*
X028667Y006421D02*
X028291Y006421D01*
X028193Y006520D02*
X028568Y006520D01*
X028470Y006618D02*
X028094Y006618D01*
X027996Y006717D02*
X028371Y006717D01*
X028273Y006815D02*
X027897Y006815D01*
X027799Y006914D02*
X028174Y006914D01*
X028076Y007012D02*
X027700Y007012D01*
X027602Y007111D02*
X027977Y007111D01*
X027879Y007209D02*
X027503Y007209D01*
X027405Y007308D02*
X027780Y007308D01*
X027682Y007406D02*
X027306Y007406D01*
X027208Y007505D02*
X027583Y007505D01*
X027485Y007603D02*
X027109Y007603D01*
X027011Y007702D02*
X027386Y007702D01*
X027288Y007800D02*
X026912Y007800D01*
X026814Y007899D02*
X027189Y007899D01*
X027091Y007997D02*
X026715Y007997D01*
X026617Y008096D02*
X026992Y008096D01*
X026894Y008194D02*
X026518Y008194D01*
X026500Y008293D02*
X026800Y008293D01*
X026800Y008391D02*
X026500Y008391D01*
X026500Y008490D02*
X026800Y008490D01*
X026800Y008588D02*
X026500Y008588D01*
X026500Y008687D02*
X026800Y008687D01*
X026800Y008785D02*
X026500Y008785D01*
X026500Y008884D02*
X026800Y008884D01*
X026800Y008982D02*
X026500Y008982D01*
X026500Y009081D02*
X026800Y009081D01*
X026800Y009179D02*
X026500Y009179D01*
X026500Y009278D02*
X026800Y009278D01*
X026800Y009376D02*
X026500Y009376D01*
X026500Y009475D02*
X026800Y009475D01*
X026800Y009573D02*
X026500Y009573D01*
X026500Y009672D02*
X026800Y009672D01*
X026800Y009770D02*
X026500Y009770D01*
X026500Y009869D02*
X026800Y009869D01*
X026800Y009967D02*
X026500Y009967D01*
X026500Y010066D02*
X026800Y010066D01*
X026800Y010164D02*
X026500Y010164D01*
X026500Y010263D02*
X026800Y010263D01*
X026800Y010361D02*
X026500Y010361D01*
X026500Y010460D02*
X026800Y010460D01*
X026800Y010558D02*
X026500Y010558D01*
X026500Y010657D02*
X026800Y010657D01*
X026800Y010755D02*
X026500Y010755D01*
X026500Y010854D02*
X026800Y010854D01*
X026800Y010952D02*
X026500Y010952D01*
X026500Y011051D02*
X026800Y011051D01*
X026800Y011149D02*
X026500Y011149D01*
X026500Y011248D02*
X026800Y011248D01*
X026800Y011346D02*
X026500Y011346D01*
X026500Y011445D02*
X026800Y011445D01*
X026800Y011543D02*
X026500Y011543D01*
X026500Y011642D02*
X026800Y011642D01*
X026800Y011740D02*
X026500Y011740D01*
X026500Y011839D02*
X026800Y011839D01*
X026800Y011937D02*
X026500Y011937D01*
X026500Y012036D02*
X026800Y012036D01*
X026800Y012134D02*
X026500Y012134D01*
X026500Y012233D02*
X026800Y012233D01*
X026800Y012331D02*
X026500Y012331D01*
X026500Y012430D02*
X026817Y012430D01*
X026916Y012528D02*
X026540Y012528D01*
X026639Y012627D02*
X027014Y012627D01*
X027113Y012725D02*
X026737Y012725D01*
X026836Y012824D02*
X027211Y012824D01*
X027310Y012922D02*
X026934Y012922D01*
X027033Y013021D02*
X027408Y013021D01*
X027507Y013119D02*
X027131Y013119D01*
X027230Y013218D02*
X027605Y013218D01*
X027704Y013316D02*
X027328Y013316D01*
X027427Y013415D02*
X027802Y013415D01*
X027901Y013513D02*
X027525Y013513D01*
X027624Y013612D02*
X027999Y013612D01*
X028098Y013710D02*
X027722Y013710D01*
X027821Y013809D02*
X028196Y013809D01*
X028295Y013907D02*
X027919Y013907D01*
X028018Y014006D02*
X028393Y014006D01*
X028492Y014104D02*
X028116Y014104D01*
X028215Y014203D02*
X028590Y014203D01*
X028689Y014301D02*
X028313Y014301D01*
X028412Y014400D02*
X028787Y014400D01*
X028886Y014498D02*
X028510Y014498D01*
X028609Y014597D02*
X028984Y014597D01*
X029083Y014695D02*
X028707Y014695D01*
X028806Y014794D02*
X029181Y014794D01*
X029280Y014892D02*
X028904Y014892D01*
X029003Y014991D02*
X029378Y014991D01*
X029477Y015089D02*
X029101Y015089D01*
X029200Y015188D02*
X029575Y015188D01*
X029674Y015286D02*
X029298Y015286D01*
X029397Y015385D02*
X029772Y015385D01*
X029871Y015483D02*
X029495Y015483D01*
X029594Y015582D02*
X029969Y015582D01*
X030068Y015680D02*
X029692Y015680D01*
X029791Y015779D02*
X030166Y015779D01*
X030265Y015877D02*
X029889Y015877D01*
X029988Y015976D02*
X030363Y015976D01*
X030462Y016074D02*
X030086Y016074D01*
X030185Y016173D02*
X030560Y016173D01*
X030659Y016271D02*
X030283Y016271D01*
X030382Y016370D02*
X030757Y016370D01*
X030800Y016468D02*
X030480Y016468D01*
X030579Y016567D02*
X030800Y016567D01*
X030800Y016665D02*
X030677Y016665D01*
X030776Y016764D02*
X030800Y016764D01*
X031100Y016764D02*
X031875Y016764D01*
X031875Y016862D02*
X031100Y016862D01*
X031100Y016961D02*
X031875Y016961D01*
X031875Y017059D02*
X031100Y017059D01*
X031100Y017158D02*
X031875Y017158D01*
X031875Y017256D02*
X031100Y017256D01*
X031100Y017355D02*
X031875Y017355D01*
X031875Y017453D02*
X031100Y017453D01*
X031100Y017552D02*
X031875Y017552D01*
X031875Y017650D02*
X031100Y017650D01*
X031100Y017749D02*
X031875Y017749D01*
X031875Y017847D02*
X031100Y017847D01*
X031100Y017946D02*
X031875Y017946D01*
X031875Y018044D02*
X031100Y018044D01*
X031100Y018143D02*
X031875Y018143D01*
X031875Y018241D02*
X031100Y018241D01*
X031100Y018340D02*
X031875Y018340D01*
X031875Y018438D02*
X031100Y018438D01*
X031100Y018537D02*
X031875Y018537D01*
X031875Y018635D02*
X031100Y018635D01*
X031100Y018734D02*
X031875Y018734D01*
X031875Y018832D02*
X031100Y018832D01*
X031100Y018931D02*
X031875Y018931D01*
X031875Y019029D02*
X031100Y019029D01*
X031100Y019128D02*
X031875Y019128D01*
X031875Y019226D02*
X031100Y019226D01*
X031100Y019325D02*
X031875Y019325D01*
X031875Y019423D02*
X031100Y019423D01*
X031100Y019522D02*
X031875Y019522D01*
X031875Y019620D02*
X031100Y019620D01*
X031100Y019719D02*
X031875Y019719D01*
X031875Y019817D02*
X031100Y019817D01*
X031100Y019916D02*
X031875Y019916D01*
X031875Y020014D02*
X031100Y020014D01*
X031100Y020113D02*
X031875Y020113D01*
X031875Y020211D02*
X031100Y020211D01*
X031012Y020300D02*
X031012Y020300D01*
X031003Y020310D02*
X031875Y020310D01*
X031875Y020408D02*
X030904Y020408D01*
X030806Y020507D02*
X031875Y020507D01*
X031875Y020605D02*
X030707Y020605D01*
X030609Y020704D02*
X031875Y020704D01*
X031875Y020802D02*
X030510Y020802D01*
X030412Y020901D02*
X031875Y020901D01*
X031875Y020999D02*
X030313Y020999D01*
X030215Y021098D02*
X031875Y021098D01*
X031875Y021196D02*
X030116Y021196D01*
X030018Y021295D02*
X031875Y021295D01*
X031875Y021393D02*
X028119Y021393D01*
X028021Y021492D02*
X031875Y021492D01*
X031875Y021590D02*
X027922Y021590D01*
X027824Y021689D02*
X031875Y021689D01*
X031875Y021787D02*
X027725Y021787D01*
X027627Y021886D02*
X031875Y021886D01*
X031875Y021984D02*
X027528Y021984D01*
X027430Y022083D02*
X031875Y022083D01*
X031875Y022181D02*
X027331Y022181D01*
X027300Y022280D02*
X031875Y022280D01*
X031875Y022378D02*
X027300Y022378D01*
X027300Y022477D02*
X031875Y022477D01*
X031875Y022575D02*
X027300Y022575D01*
X027300Y022674D02*
X031875Y022674D01*
X031875Y022772D02*
X027300Y022772D01*
X027300Y022871D02*
X031875Y022871D01*
X031875Y022969D02*
X027300Y022969D01*
X027300Y023068D02*
X031875Y023068D01*
X031875Y023166D02*
X027300Y023166D01*
X027300Y023265D02*
X031875Y023265D01*
X031875Y023363D02*
X027300Y023363D01*
X027300Y023462D02*
X031875Y023462D01*
X031875Y023560D02*
X027300Y023560D01*
X027254Y023659D02*
X031875Y023659D01*
X031875Y023757D02*
X027155Y023757D01*
X027057Y023856D02*
X031875Y023856D01*
X031875Y023954D02*
X026958Y023954D01*
X026860Y024053D02*
X031875Y024053D01*
X031875Y024151D02*
X026761Y024151D01*
X026663Y024250D02*
X031875Y024250D01*
X031875Y024348D02*
X026564Y024348D01*
X026466Y024447D02*
X031875Y024447D01*
X031875Y024545D02*
X026367Y024545D01*
X026269Y024644D02*
X031875Y024644D01*
X031875Y024742D02*
X026170Y024742D01*
X026072Y024841D02*
X031875Y024841D01*
X031875Y024939D02*
X021373Y024939D01*
X021472Y024841D02*
X024828Y024841D01*
X024730Y024742D02*
X021570Y024742D01*
X021669Y024644D02*
X024631Y024644D01*
X024533Y024545D02*
X021767Y024545D01*
X021866Y024447D02*
X024434Y024447D01*
X024336Y024348D02*
X021964Y024348D01*
X022063Y024250D02*
X024237Y024250D01*
X023900Y023700D02*
X024950Y024750D01*
X025950Y024750D01*
X027150Y023550D01*
X027150Y022150D01*
X028150Y021150D01*
X029950Y021150D01*
X030950Y020150D01*
X030950Y016350D01*
X026950Y012350D01*
X026950Y008350D01*
X029350Y005950D01*
X029350Y004200D01*
X027600Y002450D01*
X027248Y002777D02*
X023889Y002777D01*
X023987Y002875D02*
X027346Y002875D01*
X027149Y002678D02*
X023790Y002678D01*
X023780Y002580D02*
X027120Y002580D01*
X027120Y002481D02*
X023780Y002481D01*
X023780Y002383D02*
X027120Y002383D01*
X027120Y002284D02*
X023780Y002284D01*
X023764Y002186D02*
X027186Y002186D01*
X027284Y002087D02*
X023666Y002087D01*
X023567Y001989D02*
X027383Y001989D01*
X027817Y001989D02*
X031875Y001989D01*
X031875Y002087D02*
X027916Y002087D01*
X028014Y002186D02*
X031875Y002186D01*
X031875Y002284D02*
X028080Y002284D01*
X028080Y002383D02*
X031875Y002383D01*
X031875Y002481D02*
X028080Y002481D01*
X028080Y002580D02*
X031875Y002580D01*
X031875Y002678D02*
X028051Y002678D01*
X028139Y002777D02*
X031875Y002777D01*
X031875Y002875D02*
X028237Y002875D01*
X028336Y002974D02*
X031875Y002974D01*
X031875Y003072D02*
X028434Y003072D01*
X028533Y003171D02*
X031875Y003171D01*
X031875Y003269D02*
X028631Y003269D01*
X028730Y003368D02*
X031875Y003368D01*
X031875Y003466D02*
X028828Y003466D01*
X028927Y003565D02*
X031875Y003565D01*
X031875Y003663D02*
X029025Y003663D01*
X029124Y003762D02*
X031875Y003762D01*
X031875Y003860D02*
X029222Y003860D01*
X029321Y003959D02*
X031875Y003959D01*
X031875Y004057D02*
X029419Y004057D01*
X029500Y004156D02*
X031875Y004156D01*
X031875Y004254D02*
X029500Y004254D01*
X029500Y004353D02*
X031875Y004353D01*
X031875Y004451D02*
X029500Y004451D01*
X029500Y004550D02*
X031875Y004550D01*
X031875Y004648D02*
X029500Y004648D01*
X029500Y004747D02*
X031875Y004747D01*
X031875Y004845D02*
X029500Y004845D01*
X029500Y004944D02*
X031875Y004944D01*
X031875Y005042D02*
X029500Y005042D01*
X029500Y005141D02*
X031875Y005141D01*
X031875Y005239D02*
X029500Y005239D01*
X029500Y005338D02*
X031875Y005338D01*
X031875Y005436D02*
X029500Y005436D01*
X029500Y005535D02*
X031875Y005535D01*
X031875Y005633D02*
X029500Y005633D01*
X029500Y005732D02*
X031875Y005732D01*
X031875Y005830D02*
X029500Y005830D01*
X029500Y005929D02*
X031875Y005929D01*
X031875Y006027D02*
X029485Y006027D01*
X029387Y006126D02*
X031875Y006126D01*
X031875Y006224D02*
X029288Y006224D01*
X029190Y006323D02*
X031875Y006323D01*
X031875Y006421D02*
X029091Y006421D01*
X028993Y006520D02*
X031875Y006520D01*
X031875Y006618D02*
X028894Y006618D01*
X028796Y006717D02*
X031875Y006717D01*
X031875Y006815D02*
X028697Y006815D01*
X028599Y006914D02*
X031875Y006914D01*
X031875Y007012D02*
X028500Y007012D01*
X028402Y007111D02*
X031875Y007111D01*
X031875Y007209D02*
X028303Y007209D01*
X028205Y007308D02*
X031875Y007308D01*
X031875Y007406D02*
X028106Y007406D01*
X028008Y007505D02*
X031875Y007505D01*
X031875Y007603D02*
X027909Y007603D01*
X027811Y007702D02*
X031875Y007702D01*
X031875Y007800D02*
X027712Y007800D01*
X027614Y007899D02*
X031875Y007899D01*
X031875Y007997D02*
X027515Y007997D01*
X027417Y008096D02*
X031875Y008096D01*
X031875Y008194D02*
X027318Y008194D01*
X027220Y008293D02*
X031875Y008293D01*
X031875Y008391D02*
X027121Y008391D01*
X027100Y008490D02*
X031875Y008490D01*
X031875Y008588D02*
X027100Y008588D01*
X027100Y008687D02*
X031875Y008687D01*
X031875Y008785D02*
X027100Y008785D01*
X027100Y008884D02*
X031875Y008884D01*
X031875Y008982D02*
X027100Y008982D01*
X027100Y009081D02*
X031875Y009081D01*
X031875Y009179D02*
X027100Y009179D01*
X027100Y009278D02*
X031875Y009278D01*
X031875Y009376D02*
X027100Y009376D01*
X027100Y009475D02*
X031875Y009475D01*
X031875Y009573D02*
X027100Y009573D01*
X027100Y009672D02*
X031875Y009672D01*
X031875Y009770D02*
X027100Y009770D01*
X027100Y009869D02*
X031875Y009869D01*
X031875Y009967D02*
X027100Y009967D01*
X027100Y010066D02*
X031875Y010066D01*
X031875Y010164D02*
X027100Y010164D01*
X027100Y010263D02*
X031875Y010263D01*
X031875Y010361D02*
X027100Y010361D01*
X027100Y010460D02*
X031875Y010460D01*
X031875Y010558D02*
X027100Y010558D01*
X027100Y010657D02*
X031875Y010657D01*
X031875Y010755D02*
X027100Y010755D01*
X027100Y010854D02*
X031875Y010854D01*
X031875Y010952D02*
X027100Y010952D01*
X027100Y011051D02*
X031875Y011051D01*
X031875Y011149D02*
X027100Y011149D01*
X027100Y011248D02*
X031875Y011248D01*
X031875Y011346D02*
X027100Y011346D01*
X027100Y011445D02*
X031875Y011445D01*
X031875Y011543D02*
X027100Y011543D01*
X027100Y011642D02*
X031875Y011642D01*
X031875Y011740D02*
X027100Y011740D01*
X027100Y011839D02*
X031875Y011839D01*
X031875Y011937D02*
X027100Y011937D01*
X027100Y012036D02*
X031875Y012036D01*
X031875Y012134D02*
X027100Y012134D01*
X027100Y012233D02*
X031875Y012233D01*
X031875Y012331D02*
X027143Y012331D01*
X027242Y012430D02*
X031875Y012430D01*
X031875Y012528D02*
X027340Y012528D01*
X027439Y012627D02*
X031875Y012627D01*
X031875Y012725D02*
X027537Y012725D01*
X027636Y012824D02*
X031875Y012824D01*
X031875Y012922D02*
X027734Y012922D01*
X027833Y013021D02*
X031875Y013021D01*
X031875Y013119D02*
X027931Y013119D01*
X028030Y013218D02*
X031875Y013218D01*
X031875Y013316D02*
X028128Y013316D01*
X028227Y013415D02*
X031875Y013415D01*
X031875Y013513D02*
X028325Y013513D01*
X028424Y013612D02*
X031875Y013612D01*
X031875Y013710D02*
X028522Y013710D01*
X028621Y013809D02*
X031875Y013809D01*
X031875Y013907D02*
X028719Y013907D01*
X028818Y014006D02*
X031875Y014006D01*
X031875Y014104D02*
X028916Y014104D01*
X029015Y014203D02*
X031875Y014203D01*
X031875Y014301D02*
X029113Y014301D01*
X029212Y014400D02*
X031875Y014400D01*
X031875Y014498D02*
X029310Y014498D01*
X029409Y014597D02*
X031875Y014597D01*
X031875Y014695D02*
X029507Y014695D01*
X029606Y014794D02*
X031875Y014794D01*
X031875Y014892D02*
X029704Y014892D01*
X029803Y014991D02*
X031875Y014991D01*
X031875Y015089D02*
X029901Y015089D01*
X030000Y015188D02*
X031875Y015188D01*
X031875Y015286D02*
X030098Y015286D01*
X030197Y015385D02*
X031875Y015385D01*
X031875Y015483D02*
X030295Y015483D01*
X030394Y015582D02*
X031875Y015582D01*
X031875Y015680D02*
X030492Y015680D01*
X030591Y015779D02*
X031875Y015779D01*
X031875Y015877D02*
X030689Y015877D01*
X030788Y015976D02*
X031875Y015976D01*
X031875Y016074D02*
X030886Y016074D01*
X030985Y016173D02*
X031875Y016173D01*
X031875Y016271D02*
X031083Y016271D01*
X031100Y016370D02*
X031875Y016370D01*
X031875Y016468D02*
X031100Y016468D01*
X031100Y016567D02*
X031875Y016567D01*
X031875Y016665D02*
X031100Y016665D01*
X030548Y016961D02*
X030373Y016961D01*
X030450Y016862D02*
X030274Y016862D01*
X030351Y016764D02*
X030176Y016764D01*
X030253Y016665D02*
X030077Y016665D01*
X030154Y016567D02*
X029979Y016567D01*
X030056Y016468D02*
X029880Y016468D01*
X029957Y016370D02*
X029782Y016370D01*
X029859Y016271D02*
X029683Y016271D01*
X029760Y016173D02*
X029585Y016173D01*
X029662Y016074D02*
X029486Y016074D01*
X029563Y015976D02*
X029388Y015976D01*
X029465Y015877D02*
X029289Y015877D01*
X029366Y015779D02*
X029191Y015779D01*
X029268Y015680D02*
X029092Y015680D01*
X029169Y015582D02*
X028994Y015582D01*
X029071Y015483D02*
X028895Y015483D01*
X028972Y015385D02*
X028797Y015385D01*
X028874Y015286D02*
X028698Y015286D01*
X028775Y015188D02*
X028600Y015188D01*
X028677Y015089D02*
X028501Y015089D01*
X028578Y014991D02*
X028403Y014991D01*
X028480Y014892D02*
X028304Y014892D01*
X028381Y014794D02*
X028206Y014794D01*
X028283Y014695D02*
X028107Y014695D01*
X028184Y014597D02*
X028009Y014597D01*
X028086Y014498D02*
X027910Y014498D01*
X027987Y014400D02*
X027812Y014400D01*
X027889Y014301D02*
X027713Y014301D01*
X027790Y014203D02*
X027615Y014203D01*
X027692Y014104D02*
X027516Y014104D01*
X027593Y014006D02*
X027418Y014006D01*
X027495Y013907D02*
X027319Y013907D01*
X027396Y013809D02*
X027221Y013809D01*
X027298Y013710D02*
X027122Y013710D01*
X027199Y013612D02*
X027024Y013612D01*
X027101Y013513D02*
X026925Y013513D01*
X027002Y013415D02*
X026827Y013415D01*
X026904Y013316D02*
X026728Y013316D01*
X026805Y013218D02*
X026630Y013218D01*
X026707Y013119D02*
X026531Y013119D01*
X026608Y013021D02*
X026433Y013021D01*
X026510Y012922D02*
X026334Y012922D01*
X026411Y012824D02*
X026236Y012824D01*
X026313Y012725D02*
X026137Y012725D01*
X026214Y012627D02*
X026039Y012627D01*
X025940Y012528D02*
X026200Y012528D01*
X026200Y012430D02*
X025900Y012430D01*
X025900Y012331D02*
X026200Y012331D01*
X026200Y012233D02*
X025900Y012233D01*
X025900Y012134D02*
X026200Y012134D01*
X026200Y012036D02*
X025900Y012036D01*
X025900Y011937D02*
X026200Y011937D01*
X026200Y011839D02*
X025900Y011839D01*
X025900Y011740D02*
X026200Y011740D01*
X026200Y011642D02*
X025900Y011642D01*
X025900Y011543D02*
X026200Y011543D01*
X026200Y011445D02*
X025900Y011445D01*
X025900Y011346D02*
X026200Y011346D01*
X026200Y011248D02*
X025900Y011248D01*
X025900Y011149D02*
X026200Y011149D01*
X026200Y011051D02*
X025900Y011051D01*
X025900Y010952D02*
X026200Y010952D01*
X026200Y010854D02*
X025900Y010854D01*
X025900Y010755D02*
X026200Y010755D01*
X026200Y010657D02*
X025900Y010657D01*
X025900Y010558D02*
X026200Y010558D01*
X026200Y010460D02*
X025900Y010460D01*
X025900Y010361D02*
X026200Y010361D01*
X026200Y010263D02*
X025900Y010263D01*
X025900Y010164D02*
X026200Y010164D01*
X026200Y010066D02*
X025900Y010066D01*
X025900Y009967D02*
X026200Y009967D01*
X026200Y009869D02*
X025900Y009869D01*
X025900Y009770D02*
X026200Y009770D01*
X026200Y009672D02*
X025900Y009672D01*
X025900Y009573D02*
X026200Y009573D01*
X026200Y009475D02*
X025900Y009475D01*
X025900Y009376D02*
X026200Y009376D01*
X026200Y009278D02*
X025900Y009278D01*
X025900Y009179D02*
X026200Y009179D01*
X026200Y009081D02*
X025900Y009081D01*
X025900Y008982D02*
X026200Y008982D01*
X026200Y008884D02*
X025900Y008884D01*
X025900Y008785D02*
X026200Y008785D01*
X026200Y008687D02*
X025900Y008687D01*
X025900Y008588D02*
X026200Y008588D01*
X026200Y008490D02*
X025900Y008490D01*
X025900Y008391D02*
X026200Y008391D01*
X026200Y008293D02*
X025900Y008293D01*
X025900Y008194D02*
X026200Y008194D01*
X026200Y008096D02*
X025900Y008096D01*
X025900Y007997D02*
X026291Y007997D01*
X026389Y007899D02*
X025900Y007899D01*
X025900Y007800D02*
X026488Y007800D01*
X026586Y007702D02*
X025911Y007702D01*
X026009Y007603D02*
X026685Y007603D01*
X026783Y007505D02*
X026108Y007505D01*
X026206Y007406D02*
X026882Y007406D01*
X026980Y007308D02*
X026305Y007308D01*
X026403Y007209D02*
X027079Y007209D01*
X027177Y007111D02*
X026502Y007111D01*
X026600Y007012D02*
X027276Y007012D01*
X027374Y006914D02*
X026699Y006914D01*
X026797Y006815D02*
X027473Y006815D01*
X027571Y006717D02*
X026896Y006717D01*
X026994Y006618D02*
X027670Y006618D01*
X027768Y006520D02*
X027093Y006520D01*
X027191Y006421D02*
X027867Y006421D01*
X027965Y006323D02*
X027290Y006323D01*
X027388Y006224D02*
X028064Y006224D01*
X028162Y006126D02*
X027487Y006126D01*
X027585Y006027D02*
X028261Y006027D01*
X028359Y005929D02*
X027684Y005929D01*
X027782Y005830D02*
X028458Y005830D01*
X028556Y005732D02*
X027881Y005732D01*
X027653Y005535D02*
X025300Y005535D01*
X025300Y005633D02*
X027555Y005633D01*
X027456Y005732D02*
X025300Y005732D01*
X025300Y005830D02*
X027358Y005830D01*
X027259Y005929D02*
X025300Y005929D01*
X025300Y006027D02*
X027161Y006027D01*
X027062Y006126D02*
X025300Y006126D01*
X025300Y006224D02*
X026964Y006224D01*
X026865Y006323D02*
X025300Y006323D01*
X025300Y006421D02*
X026767Y006421D01*
X026668Y006520D02*
X025300Y006520D01*
X025300Y006618D02*
X026570Y006618D01*
X026471Y006717D02*
X025300Y006717D01*
X025300Y006815D02*
X026373Y006815D01*
X026274Y006914D02*
X025300Y006914D01*
X025300Y007012D02*
X026176Y007012D01*
X026077Y007111D02*
X025300Y007111D01*
X025300Y007209D02*
X025979Y007209D01*
X025880Y007308D02*
X025300Y007308D01*
X025300Y007406D02*
X025782Y007406D01*
X025683Y007505D02*
X025300Y007505D01*
X025300Y007603D02*
X025600Y007603D01*
X025600Y007702D02*
X025300Y007702D01*
X025300Y007800D02*
X025600Y007800D01*
X025600Y007899D02*
X025300Y007899D01*
X025300Y007997D02*
X025600Y007997D01*
X025600Y008096D02*
X025300Y008096D01*
X025300Y008194D02*
X025600Y008194D01*
X025600Y008293D02*
X025300Y008293D01*
X025300Y008391D02*
X025600Y008391D01*
X025600Y008490D02*
X025300Y008490D01*
X025300Y008588D02*
X025600Y008588D01*
X025600Y008687D02*
X025300Y008687D01*
X025300Y008785D02*
X025600Y008785D01*
X025600Y008884D02*
X025300Y008884D01*
X025300Y008982D02*
X025600Y008982D01*
X025600Y009081D02*
X025300Y009081D01*
X025300Y009179D02*
X025600Y009179D01*
X025600Y009278D02*
X025300Y009278D01*
X025300Y009376D02*
X025600Y009376D01*
X025600Y009475D02*
X025300Y009475D01*
X025300Y009573D02*
X025600Y009573D01*
X025600Y009672D02*
X025300Y009672D01*
X025300Y009770D02*
X025600Y009770D01*
X025600Y009869D02*
X025300Y009869D01*
X025300Y009967D02*
X025600Y009967D01*
X025600Y010066D02*
X025300Y010066D01*
X025300Y010164D02*
X025600Y010164D01*
X025600Y010263D02*
X025300Y010263D01*
X025300Y010361D02*
X025600Y010361D01*
X025600Y010460D02*
X025300Y010460D01*
X025300Y010558D02*
X025600Y010558D01*
X025600Y010657D02*
X025300Y010657D01*
X025300Y010755D02*
X025600Y010755D01*
X025600Y010854D02*
X025300Y010854D01*
X025300Y010952D02*
X025600Y010952D01*
X025600Y011051D02*
X025300Y011051D01*
X025300Y011149D02*
X025600Y011149D01*
X025600Y011248D02*
X025300Y011248D01*
X025300Y011346D02*
X025600Y011346D01*
X025600Y011445D02*
X025300Y011445D01*
X025300Y011543D02*
X025600Y011543D01*
X025600Y011642D02*
X025300Y011642D01*
X025300Y011740D02*
X025600Y011740D01*
X025600Y011839D02*
X025300Y011839D01*
X025300Y011937D02*
X025600Y011937D01*
X025600Y012036D02*
X025300Y012036D01*
X025300Y012134D02*
X025600Y012134D01*
X025600Y012233D02*
X025300Y012233D01*
X025300Y012331D02*
X025600Y012331D01*
X025600Y012430D02*
X025300Y012430D01*
X025300Y012528D02*
X025600Y012528D01*
X025614Y012627D02*
X025300Y012627D01*
X025337Y012725D02*
X025713Y012725D01*
X025811Y012824D02*
X025436Y012824D01*
X025534Y012922D02*
X025910Y012922D01*
X026008Y013021D02*
X025633Y013021D01*
X025731Y013119D02*
X026107Y013119D01*
X026205Y013218D02*
X025830Y013218D01*
X025928Y013316D02*
X026304Y013316D01*
X026402Y013415D02*
X026027Y013415D01*
X026125Y013513D02*
X026501Y013513D01*
X026599Y013612D02*
X026224Y013612D01*
X026322Y013710D02*
X026698Y013710D01*
X026796Y013809D02*
X026421Y013809D01*
X026519Y013907D02*
X026895Y013907D01*
X026993Y014006D02*
X026618Y014006D01*
X026716Y014104D02*
X027092Y014104D01*
X027190Y014203D02*
X026815Y014203D01*
X026913Y014301D02*
X027289Y014301D01*
X027387Y014400D02*
X027012Y014400D01*
X027110Y014498D02*
X027486Y014498D01*
X027584Y014597D02*
X027209Y014597D01*
X027307Y014695D02*
X027683Y014695D01*
X027781Y014794D02*
X027406Y014794D01*
X027504Y014892D02*
X027880Y014892D01*
X027978Y014991D02*
X027603Y014991D01*
X027701Y015089D02*
X028077Y015089D01*
X028175Y015188D02*
X027800Y015188D01*
X027898Y015286D02*
X028274Y015286D01*
X028372Y015385D02*
X027997Y015385D01*
X028095Y015483D02*
X028471Y015483D01*
X028569Y015582D02*
X028194Y015582D01*
X028292Y015680D02*
X028668Y015680D01*
X028766Y015779D02*
X028391Y015779D01*
X028489Y015877D02*
X028865Y015877D01*
X028963Y015976D02*
X028588Y015976D01*
X028686Y016074D02*
X029062Y016074D01*
X029160Y016173D02*
X028785Y016173D01*
X028883Y016271D02*
X029259Y016271D01*
X029357Y016370D02*
X028982Y016370D01*
X029080Y016468D02*
X029456Y016468D01*
X029554Y016567D02*
X029179Y016567D01*
X029277Y016665D02*
X029653Y016665D01*
X029751Y016764D02*
X029376Y016764D01*
X029474Y016862D02*
X029850Y016862D01*
X029948Y016961D02*
X029573Y016961D01*
X029671Y017059D02*
X030047Y017059D01*
X030145Y017158D02*
X029770Y017158D01*
X029868Y017256D02*
X030244Y017256D01*
X030342Y017355D02*
X029967Y017355D01*
X030065Y017453D02*
X030400Y017453D01*
X030400Y017552D02*
X030164Y017552D01*
X030262Y017650D02*
X030400Y017650D01*
X030400Y017749D02*
X030361Y017749D01*
X030550Y017350D02*
X025750Y012550D01*
X025750Y007650D01*
X028150Y005250D01*
X027670Y005239D02*
X025300Y005239D01*
X025300Y005141D02*
X027670Y005141D01*
X027679Y005042D02*
X025300Y005042D01*
X025300Y004944D02*
X027778Y004944D01*
X027876Y004845D02*
X025300Y004845D01*
X025300Y004747D02*
X028584Y004747D01*
X028683Y004845D02*
X028424Y004845D01*
X028522Y004944D02*
X028781Y004944D01*
X028800Y005042D02*
X028621Y005042D01*
X028630Y005141D02*
X028800Y005141D01*
X028800Y005239D02*
X028630Y005239D01*
X028630Y005338D02*
X028800Y005338D01*
X028800Y005436D02*
X028630Y005436D01*
X028544Y005535D02*
X028753Y005535D01*
X028655Y005633D02*
X028446Y005633D01*
X027670Y005436D02*
X025300Y005436D01*
X025300Y005338D02*
X027670Y005338D01*
X028387Y004550D02*
X025300Y004550D01*
X025300Y004648D02*
X028486Y004648D01*
X028289Y004451D02*
X025300Y004451D01*
X025300Y004353D02*
X028190Y004353D01*
X027625Y004254D02*
X025300Y004254D01*
X025268Y004156D02*
X027527Y004156D01*
X027428Y004057D02*
X025169Y004057D01*
X025071Y003959D02*
X027420Y003959D01*
X028207Y003269D02*
X024381Y003269D01*
X024283Y003171D02*
X028108Y003171D01*
X028010Y003072D02*
X024184Y003072D01*
X024086Y002974D02*
X027911Y002974D01*
X030754Y001496D02*
X015900Y001496D01*
X015900Y001451D02*
X015900Y001749D01*
X015785Y002025D01*
X015575Y002235D01*
X015299Y002350D01*
X015001Y002350D01*
X014725Y002235D01*
X014515Y002025D01*
X014400Y001749D01*
X014400Y001451D01*
X014515Y001175D01*
X014725Y000965D01*
X015001Y000850D01*
X015299Y000850D01*
X015575Y000965D01*
X015785Y001175D01*
X015900Y001451D01*
X015877Y001398D02*
X030713Y001398D01*
X030672Y001299D02*
X015837Y001299D01*
X015796Y001201D02*
X030667Y001201D01*
X030667Y001102D02*
X015712Y001102D01*
X015614Y001004D02*
X030671Y001004D01*
X030712Y000905D02*
X015431Y000905D01*
X014869Y000905D02*
X001788Y000905D01*
X001829Y001004D02*
X014686Y001004D01*
X014588Y001102D02*
X001833Y001102D01*
X001833Y001201D02*
X014504Y001201D01*
X014463Y001299D02*
X001828Y001299D01*
X001787Y001398D02*
X014423Y001398D01*
X014400Y001496D02*
X001746Y001496D01*
X001671Y001595D02*
X014400Y001595D01*
X014400Y001693D02*
X001573Y001693D01*
X001386Y001792D02*
X014418Y001792D01*
X014459Y001890D02*
X000625Y001890D01*
X000625Y001792D02*
X000914Y001792D01*
X000727Y001693D02*
X000625Y001693D01*
X000625Y001595D02*
X000629Y001595D01*
X000625Y001989D02*
X014500Y001989D01*
X014577Y002087D02*
X000625Y002087D01*
X000625Y002186D02*
X014675Y002186D01*
X014843Y002284D02*
X000625Y002284D01*
X000625Y002383D02*
X018470Y002383D01*
X018470Y002481D02*
X000625Y002481D01*
X000625Y002580D02*
X018470Y002580D01*
X018549Y002678D02*
X000625Y002678D01*
X000625Y002777D02*
X018648Y002777D01*
X018746Y002875D02*
X000625Y002875D01*
X001747Y000807D02*
X030753Y000807D01*
X030826Y000708D02*
X001674Y000708D01*
X010832Y009081D02*
X011007Y009081D01*
X010930Y008982D02*
X011106Y008982D01*
X011029Y008884D02*
X011204Y008884D01*
X011127Y008785D02*
X011303Y008785D01*
X011226Y008687D02*
X011401Y008687D01*
X011324Y008588D02*
X011500Y008588D01*
X011423Y008490D02*
X011598Y008490D01*
X011521Y008391D02*
X011697Y008391D01*
X011620Y008293D02*
X011795Y008293D01*
X011718Y008194D02*
X011894Y008194D01*
X011817Y008096D02*
X011992Y008096D01*
X011915Y007997D02*
X012091Y007997D01*
X012014Y007899D02*
X012189Y007899D01*
X012112Y007800D02*
X012288Y007800D01*
X012211Y007702D02*
X012386Y007702D01*
X012309Y007603D02*
X012485Y007603D01*
X012408Y007505D02*
X012583Y007505D01*
X012506Y007406D02*
X012682Y007406D01*
X012605Y007308D02*
X012780Y007308D01*
X012703Y007209D02*
X012879Y007209D01*
X012802Y007111D02*
X012977Y007111D01*
X013000Y007088D02*
X002300Y017788D01*
X002300Y017612D01*
X012812Y007100D01*
X012900Y007012D01*
X012900Y006914D02*
X013000Y006914D01*
X013000Y006815D02*
X012900Y006815D01*
X012900Y006717D02*
X013000Y006717D01*
X013070Y006618D02*
X012900Y006618D01*
X012900Y006520D02*
X013168Y006520D01*
X013267Y006421D02*
X012900Y006421D01*
X012990Y006323D02*
X013365Y006323D01*
X013464Y006224D02*
X013088Y006224D01*
X013187Y006126D02*
X013562Y006126D01*
X013661Y006027D02*
X013285Y006027D01*
X013384Y005929D02*
X013657Y005929D01*
X013655Y005830D02*
X013482Y005830D01*
X013581Y005732D02*
X013673Y005732D01*
X013679Y005633D02*
X013717Y005633D01*
X013778Y005535D02*
X013815Y005535D01*
X013876Y005436D02*
X014410Y005436D01*
X014405Y005338D02*
X013975Y005338D01*
X014073Y005239D02*
X014420Y005239D01*
X014461Y005141D02*
X014272Y005141D01*
X014358Y005042D02*
X014558Y005042D01*
X014399Y004944D02*
X015163Y004944D01*
X015155Y004845D02*
X014406Y004845D01*
X014395Y004747D02*
X015167Y004747D01*
X015208Y004648D02*
X015014Y004648D01*
X015105Y004550D02*
X015300Y004550D01*
X015236Y004451D02*
X015146Y004451D01*
X015665Y004254D02*
X015914Y004254D01*
X015905Y004353D02*
X015866Y004353D01*
X015827Y004156D02*
X015955Y004156D01*
X015903Y004057D02*
X016043Y004057D01*
X015943Y003959D02*
X018770Y003959D01*
X018770Y003999D02*
X018770Y003601D01*
X019051Y003320D01*
X019449Y003320D01*
X019730Y003601D01*
X019730Y003999D01*
X019449Y004280D01*
X019051Y004280D01*
X018770Y003999D01*
X018828Y004057D02*
X016519Y004057D01*
X016607Y004156D02*
X018927Y004156D01*
X019025Y004254D02*
X016648Y004254D01*
X015956Y003821D02*
X015560Y003821D01*
X015560Y003424D01*
X015564Y003424D01*
X015631Y003435D01*
X015694Y003456D01*
X015754Y003486D01*
X015808Y003525D01*
X015856Y003573D01*
X015895Y003627D01*
X015925Y003687D01*
X015946Y003750D01*
X015956Y003817D01*
X015956Y003821D01*
X015948Y003762D02*
X018770Y003762D01*
X018770Y003860D02*
X015560Y003860D01*
X015502Y003860D02*
X015072Y003860D01*
X015105Y003821D02*
X015105Y003817D01*
X015116Y003750D01*
X015136Y003687D01*
X015167Y003627D01*
X015206Y003573D01*
X015254Y003525D01*
X015308Y003486D01*
X015368Y003456D01*
X015431Y003435D01*
X015497Y003424D01*
X015502Y003424D01*
X015502Y003821D01*
X015105Y003821D01*
X015114Y003762D02*
X014974Y003762D01*
X014875Y003663D02*
X015149Y003663D01*
X015215Y003565D02*
X014777Y003565D01*
X014678Y003466D02*
X015347Y003466D01*
X015502Y003466D02*
X015560Y003466D01*
X015560Y003565D02*
X015502Y003565D01*
X015502Y003663D02*
X015560Y003663D01*
X015560Y003762D02*
X015502Y003762D01*
X015715Y003466D02*
X018905Y003466D01*
X018807Y003565D02*
X015847Y003565D01*
X015913Y003663D02*
X018770Y003663D01*
X019004Y003368D02*
X014580Y003368D01*
X014481Y003269D02*
X023957Y003269D01*
X024055Y003368D02*
X023796Y003368D01*
X023895Y003466D02*
X024154Y003466D01*
X024252Y003565D02*
X023980Y003565D01*
X023980Y003663D02*
X024351Y003663D01*
X023858Y003171D02*
X014383Y003171D01*
X014284Y003072D02*
X023760Y003072D01*
X023204Y003368D02*
X019496Y003368D01*
X019595Y003466D02*
X023105Y003466D01*
X023020Y003565D02*
X019693Y003565D01*
X019730Y003663D02*
X023020Y003663D01*
X023020Y003762D02*
X019730Y003762D01*
X019730Y003860D02*
X023020Y003860D01*
X023030Y003959D02*
X019730Y003959D01*
X019672Y004057D02*
X023128Y004057D01*
X023227Y004156D02*
X019573Y004156D01*
X019475Y004254D02*
X023792Y004254D01*
X023476Y004845D02*
X019811Y004845D01*
X019909Y004944D02*
X023378Y004944D01*
X023279Y005042D02*
X020008Y005042D01*
X020046Y005141D02*
X023220Y005141D01*
X023220Y005239D02*
X020046Y005239D01*
X020046Y005436D02*
X023220Y005436D01*
X023220Y005338D02*
X019566Y005338D01*
X019566Y005436D02*
X019466Y005436D01*
X019466Y005338D02*
X017550Y005338D01*
X017648Y005436D02*
X018986Y005436D01*
X019001Y005535D02*
X017747Y005535D01*
X017845Y005633D02*
X019100Y005633D01*
X019198Y005732D02*
X017944Y005732D01*
X018042Y005830D02*
X022958Y005830D01*
X023056Y005732D02*
X019834Y005732D01*
X019933Y005633D02*
X023155Y005633D01*
X023253Y005535D02*
X020031Y005535D01*
X019566Y005535D02*
X019466Y005535D01*
X019466Y005633D02*
X019566Y005633D01*
X019566Y005732D02*
X019466Y005732D01*
X018986Y005239D02*
X017451Y005239D01*
X017353Y005141D02*
X018986Y005141D01*
X019025Y005042D02*
X017254Y005042D01*
X017156Y004944D02*
X019123Y004944D01*
X018141Y005929D02*
X022859Y005929D01*
X022761Y006027D02*
X018239Y006027D01*
X018683Y006421D02*
X021329Y006421D01*
X021231Y006520D02*
X018700Y006520D01*
X018700Y006618D02*
X021220Y006618D01*
X021220Y006815D02*
X018700Y006815D01*
X018700Y006717D02*
X021700Y006717D01*
X021700Y006815D02*
X021800Y006815D01*
X021800Y006914D02*
X021700Y006914D01*
X021700Y007012D02*
X021800Y007012D01*
X021800Y007111D02*
X021700Y007111D01*
X021700Y007209D02*
X021800Y007209D01*
X022041Y007209D02*
X022400Y007209D01*
X022400Y007111D02*
X022139Y007111D01*
X022238Y007012D02*
X022400Y007012D01*
X022400Y006914D02*
X022280Y006914D01*
X022400Y007308D02*
X018720Y007308D01*
X018700Y007209D02*
X021459Y007209D01*
X021361Y007111D02*
X018700Y007111D01*
X018700Y007012D02*
X021262Y007012D01*
X021220Y006914D02*
X018700Y006914D01*
X018550Y006550D02*
X018550Y007350D01*
X022750Y011550D01*
X022750Y022700D01*
X022471Y022378D02*
X022400Y022378D01*
X022400Y022280D02*
X022600Y022280D01*
X022600Y022181D02*
X022400Y022181D01*
X022400Y022083D02*
X022600Y022083D01*
X022600Y021984D02*
X022400Y021984D01*
X022400Y021886D02*
X022600Y021886D01*
X022600Y021787D02*
X022400Y021787D01*
X022400Y021689D02*
X022600Y021689D01*
X022600Y021590D02*
X022400Y021590D01*
X022400Y021492D02*
X022600Y021492D01*
X022600Y021393D02*
X022400Y021393D01*
X022400Y021295D02*
X022600Y021295D01*
X022600Y021196D02*
X022400Y021196D01*
X022400Y021098D02*
X022600Y021098D01*
X022600Y020999D02*
X022400Y020999D01*
X022400Y020901D02*
X022600Y020901D01*
X022600Y020802D02*
X022400Y020802D01*
X022400Y020704D02*
X022600Y020704D01*
X022600Y020605D02*
X022400Y020605D01*
X022400Y020507D02*
X022600Y020507D01*
X022600Y020408D02*
X022400Y020408D01*
X022400Y020310D02*
X022600Y020310D01*
X022600Y020211D02*
X022400Y020211D01*
X022400Y020113D02*
X022600Y020113D01*
X022600Y020014D02*
X022400Y020014D01*
X022400Y019916D02*
X022600Y019916D01*
X022600Y019817D02*
X022400Y019817D01*
X022400Y019719D02*
X022600Y019719D01*
X022600Y019620D02*
X022400Y019620D01*
X022400Y019522D02*
X022600Y019522D01*
X022600Y019423D02*
X022400Y019423D01*
X022400Y019325D02*
X022600Y019325D01*
X022600Y019226D02*
X022400Y019226D01*
X022400Y019128D02*
X022600Y019128D01*
X022600Y019029D02*
X022400Y019029D01*
X022400Y018931D02*
X022600Y018931D01*
X022600Y018832D02*
X022344Y018832D01*
X022230Y018734D02*
X022600Y018734D01*
X022600Y018635D02*
X022230Y018635D01*
X022230Y018537D02*
X022600Y018537D01*
X022600Y018438D02*
X022230Y018438D01*
X022218Y018340D02*
X022600Y018340D01*
X022600Y018241D02*
X022120Y018241D01*
X022021Y018143D02*
X022600Y018143D01*
X023500Y017749D02*
X023600Y017749D01*
X023600Y017650D02*
X023500Y017650D01*
X023500Y017552D02*
X023600Y017552D01*
X023600Y017453D02*
X023500Y017453D01*
X023500Y017355D02*
X023600Y017355D01*
X024350Y017550D02*
X023750Y018150D01*
X023750Y022700D01*
X024139Y022871D02*
X024361Y022871D01*
X024325Y022772D02*
X024175Y022772D01*
X024175Y022674D02*
X024325Y022674D01*
X024342Y022575D02*
X024158Y022575D01*
X024117Y022477D02*
X024383Y022477D01*
X024471Y022378D02*
X024029Y022378D01*
X023900Y022280D02*
X024600Y022280D01*
X024600Y022181D02*
X023900Y022181D01*
X023900Y022083D02*
X024600Y022083D01*
X024572Y021984D02*
X023900Y021984D01*
X023900Y021886D02*
X024473Y021886D01*
X024375Y021787D02*
X023900Y021787D01*
X023900Y021689D02*
X024276Y021689D01*
X024200Y021590D02*
X023900Y021590D01*
X023900Y021492D02*
X024200Y021492D01*
X024200Y021393D02*
X023900Y021393D01*
X023900Y021295D02*
X024200Y021295D01*
X024200Y021196D02*
X023900Y021196D01*
X023900Y021098D02*
X024200Y021098D01*
X024200Y020999D02*
X023900Y020999D01*
X023900Y020901D02*
X024200Y020901D01*
X024200Y020802D02*
X023900Y020802D01*
X023900Y020704D02*
X024200Y020704D01*
X024200Y020605D02*
X023900Y020605D01*
X023900Y020507D02*
X024200Y020507D01*
X024200Y020408D02*
X023900Y020408D01*
X023900Y020310D02*
X024200Y020310D01*
X024200Y020211D02*
X023900Y020211D01*
X023900Y020113D02*
X024200Y020113D01*
X024200Y020014D02*
X023900Y020014D01*
X023900Y019916D02*
X024200Y019916D01*
X024200Y019817D02*
X023900Y019817D01*
X023900Y019719D02*
X024200Y019719D01*
X022100Y019719D02*
X020900Y019719D01*
X020900Y019817D02*
X022100Y019817D01*
X022100Y019916D02*
X020900Y019916D01*
X020900Y020014D02*
X022100Y020014D01*
X022100Y020113D02*
X020900Y020113D01*
X020900Y020211D02*
X022100Y020211D01*
X022100Y020310D02*
X020900Y020310D01*
X020900Y020408D02*
X022100Y020408D01*
X022100Y020507D02*
X020900Y020507D01*
X020900Y020605D02*
X022100Y020605D01*
X022100Y020704D02*
X020900Y020704D01*
X020900Y020802D02*
X022100Y020802D01*
X022100Y020901D02*
X020900Y020901D01*
X020900Y020999D02*
X022100Y020999D01*
X022100Y021098D02*
X020900Y021098D01*
X020900Y021196D02*
X022100Y021196D01*
X022100Y021295D02*
X020900Y021295D01*
X020900Y021393D02*
X022100Y021393D01*
X022100Y021492D02*
X020900Y021492D01*
X020900Y021590D02*
X022100Y021590D01*
X022100Y021689D02*
X020900Y021689D01*
X020900Y021787D02*
X022100Y021787D01*
X022100Y021886D02*
X020900Y021886D01*
X020900Y021984D02*
X022100Y021984D01*
X022100Y022083D02*
X020900Y022083D01*
X020900Y022181D02*
X022100Y022181D01*
X022100Y022280D02*
X021971Y022280D01*
X022100Y022378D02*
X022100Y022378D01*
X021800Y022378D02*
X021700Y022378D01*
X021700Y022280D02*
X021800Y022280D01*
X021700Y022227D02*
X021700Y022650D01*
X021277Y022650D01*
X021287Y022589D01*
X021310Y022518D01*
X021344Y022451D01*
X021388Y022391D01*
X021441Y022338D01*
X021501Y022294D01*
X021568Y022260D01*
X021639Y022237D01*
X021700Y022227D01*
X021529Y022280D02*
X020900Y022280D01*
X021029Y022378D02*
X021400Y022378D01*
X021331Y022477D02*
X021117Y022477D01*
X021158Y022575D02*
X021291Y022575D01*
X021175Y022674D02*
X021700Y022674D01*
X021750Y022700D02*
X021750Y019750D01*
X020950Y018950D01*
X020900Y019029D02*
X021550Y019029D01*
X021950Y019029D02*
X022100Y019029D01*
X022100Y019128D02*
X020900Y019128D01*
X020900Y019226D02*
X022100Y019226D01*
X022100Y019325D02*
X020900Y019325D01*
X020900Y019423D02*
X022100Y019423D01*
X022100Y019522D02*
X020900Y019522D01*
X020900Y019620D02*
X022100Y019620D01*
X020750Y018350D02*
X020750Y022700D01*
X021082Y022969D02*
X021359Y022969D01*
X021306Y022871D02*
X021139Y022871D01*
X021175Y022772D02*
X021281Y022772D01*
X021700Y022575D02*
X021800Y022575D01*
X021800Y022477D02*
X021700Y022477D01*
X022148Y023265D02*
X025823Y023265D01*
X025750Y023550D02*
X026350Y022950D01*
X026350Y021750D01*
X027950Y020150D01*
X029750Y020150D01*
X030550Y019350D01*
X030550Y017350D01*
X030570Y017158D02*
X030600Y017158D01*
X030600Y017059D02*
X030471Y017059D01*
X030797Y019916D02*
X030800Y019916D01*
X030800Y020014D02*
X030698Y020014D01*
X030775Y020113D02*
X030600Y020113D01*
X030677Y020211D02*
X030501Y020211D01*
X030578Y020310D02*
X030403Y020310D01*
X030480Y020408D02*
X030304Y020408D01*
X030381Y020507D02*
X030206Y020507D01*
X030283Y020605D02*
X030107Y020605D01*
X028150Y020550D02*
X026750Y021950D01*
X026750Y023350D01*
X025750Y024350D01*
X025750Y023700D02*
X025750Y023550D01*
X024527Y023068D02*
X023973Y023068D01*
X024082Y022969D02*
X024418Y022969D01*
X023900Y023700D02*
X023750Y023700D01*
X021275Y025038D02*
X031875Y025038D01*
X031875Y025136D02*
X021176Y025136D01*
X021078Y025235D02*
X031875Y025235D01*
X031875Y025333D02*
X020979Y025333D01*
X020881Y025432D02*
X031875Y025432D01*
X031875Y025530D02*
X020782Y025530D01*
X020684Y025629D02*
X031875Y025629D01*
X031875Y025727D02*
X020585Y025727D01*
X020487Y025826D02*
X031875Y025826D01*
X031875Y025924D02*
X020388Y025924D01*
X020290Y026023D02*
X031875Y026023D01*
X031875Y026121D02*
X020191Y026121D01*
X020093Y026220D02*
X031875Y026220D01*
X031875Y026318D02*
X019994Y026318D01*
X019896Y026417D02*
X031875Y026417D01*
X031875Y026515D02*
X019797Y026515D01*
X019699Y026614D02*
X031875Y026614D01*
X031875Y026712D02*
X019600Y026712D01*
X019502Y026811D02*
X031875Y026811D01*
X031875Y026909D02*
X019403Y026909D01*
X019305Y027008D02*
X031875Y027008D01*
X031875Y027106D02*
X019206Y027106D01*
X019108Y027205D02*
X031875Y027205D01*
X031875Y027303D02*
X019009Y027303D01*
X018911Y027402D02*
X031875Y027402D01*
X031875Y027500D02*
X031566Y027500D01*
X031765Y027599D02*
X031875Y027599D01*
X031863Y027697D02*
X031875Y027697D01*
X020750Y023700D02*
X020400Y023700D01*
X017350Y026750D01*
X003750Y026750D01*
X003150Y026150D01*
X003150Y022150D01*
X002150Y021150D01*
X002150Y017550D01*
X012750Y006950D01*
X012750Y006350D01*
X013950Y005150D01*
X013950Y004931D01*
X014031Y004850D01*
X014262Y004550D02*
X014457Y004550D01*
X014548Y004648D02*
X014354Y004648D01*
X014257Y004156D02*
X014455Y004156D01*
X014155Y003368D02*
X013945Y003368D01*
X015457Y002284D02*
X018470Y002284D01*
X018486Y002186D02*
X015625Y002186D01*
X015723Y002087D02*
X018584Y002087D01*
X018683Y001989D02*
X015800Y001989D01*
X015841Y001890D02*
X031875Y001890D01*
X031875Y001792D02*
X031586Y001792D01*
X031773Y001693D02*
X031875Y001693D01*
X031871Y001595D02*
X031875Y001595D01*
X031114Y001792D02*
X015882Y001792D01*
X015900Y001693D02*
X030927Y001693D01*
X030829Y001595D02*
X015900Y001595D01*
X019217Y001989D02*
X023033Y001989D01*
X022934Y002087D02*
X019316Y002087D01*
X019414Y002186D02*
X022836Y002186D01*
X022820Y002284D02*
X019430Y002284D01*
X015951Y005535D02*
X015747Y005535D01*
X015845Y005633D02*
X016033Y005633D01*
X015888Y005732D02*
X017519Y005732D01*
X016809Y006421D02*
X016656Y006421D01*
X016656Y006323D02*
X016710Y006323D01*
X016617Y006520D02*
X016907Y006520D01*
X017006Y006618D02*
X016544Y006618D01*
X016378Y006717D02*
X017104Y006717D01*
X017027Y006815D02*
X017203Y006815D01*
X016184Y006717D02*
X015882Y006717D01*
X015830Y006618D02*
X016018Y006618D01*
X015945Y006520D02*
X015715Y006520D01*
X015275Y006126D02*
X015088Y006126D01*
X014983Y006027D02*
X015198Y006027D01*
X014781Y006350D02*
X013950Y006350D01*
X013550Y006750D01*
X013550Y007350D01*
X002550Y018350D01*
X002550Y020750D01*
X003550Y021750D01*
X003550Y025750D01*
X004150Y026350D01*
X015750Y026350D01*
X018400Y023700D01*
X018750Y023700D01*
X018750Y022700D02*
X018750Y018150D01*
X019550Y017350D01*
X019350Y017150D02*
X019350Y010750D01*
X017150Y008550D01*
X017100Y008888D02*
X017100Y008888D01*
X015973Y009573D02*
X015785Y009573D01*
X015889Y009967D02*
X017155Y009967D01*
X016946Y010558D02*
X016601Y010558D01*
X016506Y010657D02*
X017044Y010657D01*
X017131Y011543D02*
X016607Y011543D01*
X017051Y011839D02*
X017426Y011839D01*
X017525Y011937D02*
X017149Y011937D01*
X017248Y012036D02*
X017623Y012036D01*
X017722Y012134D02*
X017346Y012134D01*
X017445Y012233D02*
X017820Y012233D01*
X017919Y012331D02*
X017543Y012331D01*
X017642Y012430D02*
X018017Y012430D01*
X018116Y012528D02*
X017740Y012528D01*
X017839Y012627D02*
X018214Y012627D01*
X018313Y012725D02*
X017937Y012725D01*
X018036Y012824D02*
X018400Y012824D01*
X018400Y012922D02*
X018134Y012922D01*
X018233Y013021D02*
X018400Y013021D01*
X018400Y013119D02*
X018331Y013119D01*
X018540Y012528D02*
X018600Y012528D01*
X018600Y012430D02*
X018442Y012430D01*
X018343Y012331D02*
X018600Y012331D01*
X018600Y012233D02*
X018245Y012233D01*
X017414Y012627D02*
X016536Y012627D01*
X016614Y012528D02*
X017316Y012528D01*
X017217Y012430D02*
X016654Y012430D01*
X016656Y012331D02*
X017119Y012331D01*
X017020Y012233D02*
X016639Y012233D01*
X016596Y012134D02*
X016922Y012134D01*
X015966Y012134D02*
X015778Y012134D01*
X015327Y012528D02*
X015114Y012528D01*
X015195Y013021D02*
X014967Y013021D01*
X015081Y013119D02*
X015269Y013119D01*
X015699Y013513D02*
X015942Y013513D01*
X016011Y013612D02*
X015824Y013612D01*
X016431Y014006D02*
X017393Y014006D01*
X017492Y014104D02*
X016566Y014104D01*
X016281Y014350D02*
X017350Y014350D01*
X017750Y014750D01*
X017750Y015550D01*
X015950Y017150D01*
X013150Y017150D01*
X008750Y021950D01*
X008750Y022700D01*
X008361Y022871D02*
X008139Y022871D01*
X008175Y022772D02*
X008325Y022772D01*
X008325Y022674D02*
X008175Y022674D01*
X008158Y022575D02*
X008342Y022575D01*
X008383Y022477D02*
X008117Y022477D01*
X008029Y022378D02*
X008471Y022378D01*
X008600Y022280D02*
X007900Y022280D01*
X007900Y022181D02*
X008600Y022181D01*
X008600Y022083D02*
X007900Y022083D01*
X007925Y021984D02*
X008600Y021984D01*
X008602Y021886D02*
X008020Y021886D01*
X008114Y021787D02*
X008696Y021787D01*
X008786Y021689D02*
X008209Y021689D01*
X008303Y021590D02*
X008876Y021590D01*
X008967Y021492D02*
X008398Y021492D01*
X008493Y021393D02*
X009057Y021393D01*
X009147Y021295D02*
X008587Y021295D01*
X008682Y021196D02*
X009238Y021196D01*
X009328Y021098D02*
X008776Y021098D01*
X008871Y020999D02*
X009418Y020999D01*
X009509Y020901D02*
X008965Y020901D01*
X009060Y020802D02*
X009599Y020802D01*
X009689Y020704D02*
X009155Y020704D01*
X009249Y020605D02*
X009779Y020605D01*
X009870Y020507D02*
X009344Y020507D01*
X009438Y020408D02*
X009960Y020408D01*
X010050Y020310D02*
X009533Y020310D01*
X009627Y020211D02*
X010141Y020211D01*
X010231Y020113D02*
X009722Y020113D01*
X009816Y020014D02*
X010321Y020014D01*
X010411Y019916D02*
X009911Y019916D01*
X010006Y019817D02*
X010502Y019817D01*
X010592Y019719D02*
X010100Y019719D01*
X010195Y019620D02*
X010682Y019620D01*
X010773Y019522D02*
X010289Y019522D01*
X010384Y019423D02*
X010863Y019423D01*
X010953Y019325D02*
X010478Y019325D01*
X010573Y019226D02*
X011043Y019226D01*
X011134Y019128D02*
X010667Y019128D01*
X010762Y019029D02*
X011224Y019029D01*
X011314Y018931D02*
X010857Y018931D01*
X010951Y018832D02*
X011405Y018832D01*
X011495Y018734D02*
X011046Y018734D01*
X011140Y018635D02*
X011585Y018635D01*
X011676Y018537D02*
X011235Y018537D01*
X011329Y018438D02*
X011766Y018438D01*
X011856Y018340D02*
X011424Y018340D01*
X011519Y018241D02*
X011946Y018241D01*
X012037Y018143D02*
X011613Y018143D01*
X011708Y018044D02*
X012127Y018044D01*
X012217Y017946D02*
X011802Y017946D01*
X011897Y017847D02*
X012308Y017847D01*
X012398Y017749D02*
X011991Y017749D01*
X012086Y017650D02*
X012488Y017650D01*
X012578Y017552D02*
X012180Y017552D01*
X012275Y017453D02*
X012669Y017453D01*
X012759Y017355D02*
X012370Y017355D01*
X012464Y017256D02*
X012849Y017256D01*
X012940Y017158D02*
X012559Y017158D01*
X012550Y016950D02*
X007750Y021950D01*
X007750Y022700D01*
X008082Y022969D02*
X008418Y022969D01*
X008527Y023068D02*
X007973Y023068D01*
X008014Y023363D02*
X008486Y023363D01*
X008389Y023462D02*
X008111Y023462D01*
X008152Y023560D02*
X008328Y023560D01*
X008229Y023659D02*
X008175Y023659D01*
X008400Y023700D02*
X008750Y023700D01*
X008838Y024250D02*
X008063Y024250D01*
X007964Y024348D02*
X008740Y024348D01*
X008750Y024550D02*
X009600Y023700D01*
X009750Y023700D01*
X010263Y024250D02*
X010838Y024250D01*
X010740Y024348D02*
X010164Y024348D01*
X010066Y024447D02*
X010641Y024447D01*
X010543Y024545D02*
X009967Y024545D01*
X009869Y024644D02*
X010444Y024644D01*
X010346Y024742D02*
X009770Y024742D01*
X009550Y024750D02*
X005750Y024750D01*
X005150Y024150D01*
X005150Y020750D01*
X004950Y020350D02*
X013350Y011950D01*
X014031Y011950D01*
X014031Y011850D01*
X013670Y011740D02*
X013172Y011740D01*
X013249Y011839D02*
X013074Y011839D01*
X013151Y011937D02*
X012975Y011937D01*
X013052Y012036D02*
X012877Y012036D01*
X012954Y012134D02*
X012778Y012134D01*
X012855Y012233D02*
X012680Y012233D01*
X012757Y012331D02*
X012581Y012331D01*
X012658Y012430D02*
X012483Y012430D01*
X012560Y012528D02*
X012384Y012528D01*
X012461Y012627D02*
X012286Y012627D01*
X012363Y012725D02*
X012187Y012725D01*
X012264Y012824D02*
X012089Y012824D01*
X012166Y012922D02*
X011990Y012922D01*
X012067Y013021D02*
X011892Y013021D01*
X011969Y013119D02*
X011793Y013119D01*
X011870Y013218D02*
X011695Y013218D01*
X011772Y013316D02*
X011596Y013316D01*
X011673Y013415D02*
X011498Y013415D01*
X011575Y013513D02*
X011399Y013513D01*
X011476Y013612D02*
X011301Y013612D01*
X011378Y013710D02*
X011202Y013710D01*
X011279Y013809D02*
X011104Y013809D01*
X011181Y013907D02*
X011005Y013907D01*
X011082Y014006D02*
X010907Y014006D01*
X010984Y014104D02*
X010808Y014104D01*
X010885Y014203D02*
X010710Y014203D01*
X010787Y014301D02*
X010611Y014301D01*
X010688Y014400D02*
X010513Y014400D01*
X010590Y014498D02*
X010414Y014498D01*
X010491Y014597D02*
X010316Y014597D01*
X010393Y014695D02*
X010217Y014695D01*
X010294Y014794D02*
X010119Y014794D01*
X010196Y014892D02*
X010020Y014892D01*
X010097Y014991D02*
X009922Y014991D01*
X009999Y015089D02*
X009823Y015089D01*
X009900Y015188D02*
X009725Y015188D01*
X009802Y015286D02*
X009626Y015286D01*
X009703Y015385D02*
X009528Y015385D01*
X009605Y015483D02*
X009429Y015483D01*
X009506Y015582D02*
X009331Y015582D01*
X009408Y015680D02*
X009232Y015680D01*
X009309Y015779D02*
X009134Y015779D01*
X009211Y015877D02*
X009035Y015877D01*
X009112Y015976D02*
X008937Y015976D01*
X009014Y016074D02*
X008838Y016074D01*
X008915Y016173D02*
X008740Y016173D01*
X008817Y016271D02*
X008641Y016271D01*
X008718Y016370D02*
X008543Y016370D01*
X008620Y016468D02*
X008444Y016468D01*
X008521Y016567D02*
X008346Y016567D01*
X008423Y016665D02*
X008247Y016665D01*
X008324Y016764D02*
X008149Y016764D01*
X008226Y016862D02*
X008050Y016862D01*
X008127Y016961D02*
X007952Y016961D01*
X008029Y017059D02*
X007853Y017059D01*
X007930Y017158D02*
X007755Y017158D01*
X007832Y017256D02*
X007656Y017256D01*
X007733Y017355D02*
X007558Y017355D01*
X007635Y017453D02*
X007459Y017453D01*
X007536Y017552D02*
X007361Y017552D01*
X007438Y017650D02*
X007262Y017650D01*
X007339Y017749D02*
X007164Y017749D01*
X007241Y017847D02*
X007065Y017847D01*
X007142Y017946D02*
X006967Y017946D01*
X007044Y018044D02*
X006868Y018044D01*
X006945Y018143D02*
X006770Y018143D01*
X006847Y018241D02*
X006671Y018241D01*
X006748Y018340D02*
X006573Y018340D01*
X006650Y018438D02*
X006474Y018438D01*
X006551Y018537D02*
X006376Y018537D01*
X006453Y018635D02*
X006277Y018635D01*
X006354Y018734D02*
X006179Y018734D01*
X006256Y018832D02*
X006080Y018832D01*
X006157Y018931D02*
X005982Y018931D01*
X006059Y019029D02*
X005883Y019029D01*
X005960Y019128D02*
X005785Y019128D01*
X005862Y019226D02*
X005686Y019226D01*
X005763Y019325D02*
X005588Y019325D01*
X005665Y019423D02*
X005489Y019423D01*
X005566Y019522D02*
X005391Y019522D01*
X005468Y019620D02*
X005292Y019620D01*
X005369Y019719D02*
X005194Y019719D01*
X005271Y019817D02*
X005095Y019817D01*
X005172Y019916D02*
X004997Y019916D01*
X005074Y020014D02*
X004900Y020014D01*
X004900Y020113D02*
X004975Y020113D01*
X004950Y020350D02*
X004950Y024350D01*
X005550Y024950D01*
X010350Y024950D01*
X011600Y023700D01*
X011750Y023700D01*
X012014Y023363D02*
X012125Y023363D01*
X012223Y023265D02*
X006527Y023265D01*
X006750Y022700D02*
X006750Y022150D01*
X012150Y016750D01*
X014950Y016750D01*
X014950Y016427D01*
X015527Y015850D01*
X015264Y015582D02*
X015079Y015582D01*
X014594Y015680D02*
X014401Y015680D01*
X013864Y015188D02*
X012725Y015188D01*
X012750Y014950D02*
X014031Y014950D01*
X014031Y014850D01*
X014373Y014695D02*
X014632Y014695D01*
X014496Y014597D02*
X014309Y014597D01*
X014436Y014498D02*
X014163Y014498D01*
X013754Y014104D02*
X013208Y014104D01*
X012750Y014950D02*
X005750Y021950D01*
X007097Y023954D02*
X007334Y023954D01*
X009550Y024750D02*
X010600Y023700D01*
X010750Y023700D01*
X011145Y023856D02*
X011232Y023856D01*
X011175Y023757D02*
X011325Y023757D01*
X011325Y023659D02*
X011175Y023659D01*
X011152Y023560D02*
X011348Y023560D01*
X011389Y023462D02*
X011111Y023462D01*
X011014Y023363D02*
X011486Y023363D01*
X011527Y023068D02*
X010973Y023068D01*
X011082Y022969D02*
X011418Y022969D01*
X011750Y022700D02*
X011750Y021550D01*
X013350Y019950D01*
X012550Y019150D02*
X015550Y019150D01*
X015950Y018750D01*
X015950Y017750D01*
X017950Y015750D01*
X017950Y014350D01*
X017787Y014400D02*
X017612Y014400D01*
X017689Y014301D02*
X017513Y014301D01*
X017590Y014203D02*
X017415Y014203D01*
X017384Y014597D02*
X016566Y014597D01*
X017104Y014892D02*
X017600Y014892D01*
X017600Y014991D02*
X017203Y014991D01*
X017301Y015089D02*
X017600Y015089D01*
X017600Y015188D02*
X017400Y015188D01*
X017498Y015286D02*
X017600Y015286D01*
X017600Y015385D02*
X017500Y015385D01*
X017500Y015483D02*
X017600Y015483D01*
X017608Y015877D02*
X017611Y015877D01*
X017512Y015976D02*
X017497Y015976D01*
X017414Y016074D02*
X017386Y016074D01*
X017315Y016173D02*
X017275Y016173D01*
X017217Y016271D02*
X017165Y016271D01*
X017118Y016370D02*
X017054Y016370D01*
X017020Y016468D02*
X016943Y016468D01*
X016921Y016567D02*
X016832Y016567D01*
X016823Y016665D02*
X016721Y016665D01*
X016724Y016764D02*
X016611Y016764D01*
X016626Y016862D02*
X016500Y016862D01*
X016527Y016961D02*
X016389Y016961D01*
X016429Y017059D02*
X016278Y017059D01*
X016330Y017158D02*
X016167Y017158D01*
X016232Y017256D02*
X016056Y017256D01*
X016133Y017355D02*
X015309Y017355D01*
X015547Y017453D02*
X016035Y017453D01*
X015936Y017552D02*
X015662Y017552D01*
X015760Y017650D02*
X015838Y017650D01*
X014991Y017355D02*
X013166Y017355D01*
X013076Y017453D02*
X014753Y017453D01*
X014638Y017552D02*
X012985Y017552D01*
X012895Y017650D02*
X014540Y017650D01*
X014484Y017749D02*
X012805Y017749D01*
X012715Y017847D02*
X014443Y017847D01*
X014403Y017946D02*
X012624Y017946D01*
X012534Y018044D02*
X014400Y018044D01*
X014400Y018143D02*
X012444Y018143D01*
X012353Y018241D02*
X014400Y018241D01*
X014438Y018340D02*
X012263Y018340D01*
X012173Y018438D02*
X014479Y018438D01*
X014526Y018537D02*
X012082Y018537D01*
X011992Y018635D02*
X014625Y018635D01*
X014723Y018734D02*
X011902Y018734D01*
X011812Y018832D02*
X014959Y018832D01*
X015686Y019226D02*
X015862Y019226D01*
X015785Y019128D02*
X015960Y019128D01*
X016000Y019029D02*
X015883Y019029D01*
X015982Y018931D02*
X016000Y018931D01*
X015800Y018537D02*
X015774Y018537D01*
X017150Y018950D02*
X019150Y016950D01*
X019150Y011150D01*
X020296Y008884D02*
X023471Y008884D01*
X023373Y008785D02*
X020197Y008785D01*
X020099Y008687D02*
X023274Y008687D01*
X023176Y008588D02*
X020000Y008588D01*
X019902Y008490D02*
X023077Y008490D01*
X022979Y008391D02*
X019803Y008391D01*
X019705Y008293D02*
X022880Y008293D01*
X022782Y008194D02*
X019606Y008194D01*
X019508Y008096D02*
X022683Y008096D01*
X022585Y007997D02*
X019409Y007997D01*
X019311Y007899D02*
X022486Y007899D01*
X022400Y007800D02*
X019212Y007800D01*
X019114Y007702D02*
X022400Y007702D01*
X022400Y007603D02*
X019015Y007603D01*
X018917Y007505D02*
X022400Y007505D01*
X022400Y007406D02*
X018818Y007406D01*
X021700Y006618D02*
X021800Y006618D01*
X021800Y006520D02*
X021700Y006520D01*
X021700Y006421D02*
X021800Y006421D01*
X021800Y006323D02*
X021700Y006323D01*
X021700Y006224D02*
X021800Y006224D01*
X022550Y006450D02*
X023700Y005300D01*
X022550Y006450D02*
X022550Y007750D01*
X024350Y009550D01*
X024350Y017550D01*
X020800Y017552D02*
X020700Y017552D01*
X020700Y017650D02*
X020800Y017650D01*
X020800Y017453D02*
X020700Y017453D01*
X020700Y017355D02*
X020800Y017355D01*
X020800Y017256D02*
X020700Y017256D01*
X019350Y017150D02*
X017750Y018750D01*
X017750Y022700D01*
X017750Y023700D02*
X017400Y023700D01*
X016750Y022700D02*
X016750Y021550D01*
X017150Y021150D01*
X017150Y018950D01*
X015343Y016764D02*
X015100Y016764D01*
X015100Y016665D02*
X015466Y016665D01*
X015589Y016567D02*
X015100Y016567D01*
X015121Y016468D02*
X015712Y016468D01*
X015835Y016370D02*
X015220Y016370D01*
X015318Y016271D02*
X015959Y016271D01*
X016082Y016173D02*
X015730Y016173D01*
X015834Y016074D02*
X016205Y016074D01*
X015942Y015188D02*
X015697Y015188D01*
X014894Y016271D02*
X012241Y016271D01*
X012340Y016173D02*
X013655Y016173D01*
X013649Y016074D02*
X012438Y016074D01*
X012537Y015976D02*
X013649Y015976D01*
X013649Y015877D02*
X012635Y015877D01*
X012734Y015779D02*
X013649Y015779D01*
X013649Y015680D02*
X012832Y015680D01*
X012993Y013119D02*
X013769Y013119D01*
X013695Y013021D02*
X013092Y013021D01*
X013190Y012922D02*
X013655Y012922D01*
X013655Y012824D02*
X013289Y012824D01*
X013387Y012725D02*
X013676Y012725D01*
X013723Y012627D02*
X013486Y012627D01*
X013584Y012528D02*
X013827Y012528D01*
X013711Y011642D02*
X013271Y011642D01*
X013369Y011543D02*
X013807Y011543D01*
X013566Y011346D02*
X014405Y011346D01*
X014414Y011445D02*
X013468Y011445D01*
X013665Y011248D02*
X014417Y011248D01*
X014458Y011149D02*
X014263Y011149D01*
X014354Y011051D02*
X014549Y011051D01*
X014454Y011543D02*
X014255Y011543D01*
X014351Y011642D02*
X014541Y011642D01*
X013799Y011149D02*
X013763Y011149D01*
X014248Y010164D02*
X014451Y010164D01*
X014534Y010066D02*
X014347Y010066D01*
X015748Y010164D02*
X015951Y010164D01*
X016034Y010066D02*
X015847Y010066D01*
X016620Y013513D02*
X016901Y013513D01*
X017710Y014498D02*
X017800Y014498D01*
X012550Y019150D02*
X009750Y021950D01*
X009750Y022700D01*
X011097Y023954D02*
X011134Y023954D01*
X011035Y024053D02*
X010998Y024053D01*
X010937Y024151D02*
X010361Y024151D01*
X010460Y024053D02*
X010502Y024053D01*
X012750Y023700D02*
X012800Y023700D01*
X013350Y023150D01*
X004802Y015286D02*
X004626Y015286D01*
X004703Y015385D02*
X004528Y015385D01*
X004605Y015483D02*
X004429Y015483D01*
X004506Y015582D02*
X004331Y015582D01*
X004408Y015680D02*
X004232Y015680D01*
X004309Y015779D02*
X004134Y015779D01*
X004211Y015877D02*
X004035Y015877D01*
X004112Y015976D02*
X003937Y015976D01*
X004014Y016074D02*
X003838Y016074D01*
X003915Y016173D02*
X003740Y016173D01*
X003817Y016271D02*
X003641Y016271D01*
X003718Y016370D02*
X003543Y016370D01*
X003620Y016468D02*
X003444Y016468D01*
X003521Y016567D02*
X003346Y016567D01*
X003423Y016665D02*
X003247Y016665D01*
X003324Y016764D02*
X003149Y016764D01*
X003226Y016862D02*
X003050Y016862D01*
X003127Y016961D02*
X002952Y016961D01*
X003029Y017059D02*
X002853Y017059D01*
X002930Y017158D02*
X002755Y017158D01*
X002832Y017256D02*
X002656Y017256D01*
X002733Y017355D02*
X002558Y017355D01*
X002635Y017453D02*
X002459Y017453D01*
X002536Y017552D02*
X002361Y017552D01*
X002300Y017650D02*
X002438Y017650D01*
X002339Y017749D02*
X002300Y017749D01*
X004725Y015188D02*
X004900Y015188D01*
X004823Y015089D02*
X004999Y015089D01*
X004922Y014991D02*
X005097Y014991D01*
X005020Y014892D02*
X005196Y014892D01*
X005119Y014794D02*
X005294Y014794D01*
X005217Y014695D02*
X005393Y014695D01*
X005316Y014597D02*
X005491Y014597D01*
X005414Y014498D02*
X005590Y014498D01*
X005513Y014400D02*
X005688Y014400D01*
X005611Y014301D02*
X005787Y014301D01*
X005710Y014203D02*
X005885Y014203D01*
X005808Y014104D02*
X005984Y014104D01*
X005907Y014006D02*
X006082Y014006D01*
X006005Y013907D02*
X006181Y013907D01*
X006104Y013809D02*
X006279Y013809D01*
X006202Y013710D02*
X006378Y013710D01*
X006301Y013612D02*
X006476Y013612D01*
X006399Y013513D02*
X006575Y013513D01*
X006498Y013415D02*
X006673Y013415D01*
X006596Y013316D02*
X006772Y013316D01*
X006695Y013218D02*
X006870Y013218D01*
X006793Y013119D02*
X006969Y013119D01*
X006892Y013021D02*
X007067Y013021D01*
X006990Y012922D02*
X007166Y012922D01*
X007089Y012824D02*
X007264Y012824D01*
X007187Y012725D02*
X007363Y012725D01*
X007286Y012627D02*
X007461Y012627D01*
X007384Y012528D02*
X007560Y012528D01*
X007483Y012430D02*
X007658Y012430D01*
X007581Y012331D02*
X007757Y012331D01*
X007680Y012233D02*
X007855Y012233D01*
X007778Y012134D02*
X007954Y012134D01*
X007877Y012036D02*
X008052Y012036D01*
X007975Y011937D02*
X008151Y011937D01*
X008074Y011839D02*
X008249Y011839D01*
X008172Y011740D02*
X008348Y011740D01*
X008271Y011642D02*
X008446Y011642D01*
X008369Y011543D02*
X008545Y011543D01*
X008468Y011445D02*
X008643Y011445D01*
X008566Y011346D02*
X008742Y011346D01*
X008665Y011248D02*
X008840Y011248D01*
X008763Y011149D02*
X008939Y011149D01*
X008862Y011051D02*
X009037Y011051D01*
X008960Y010952D02*
X009136Y010952D01*
X009059Y010854D02*
X009234Y010854D01*
X009157Y010755D02*
X009333Y010755D01*
X009256Y010657D02*
X009431Y010657D01*
X009354Y010558D02*
X009530Y010558D01*
X009453Y010460D02*
X009628Y010460D01*
X009551Y010361D02*
X009727Y010361D01*
X009650Y010263D02*
X009825Y010263D01*
X009748Y010164D02*
X009924Y010164D01*
X009847Y010066D02*
X010022Y010066D01*
X009945Y009967D02*
X010121Y009967D01*
X010044Y009869D02*
X010219Y009869D01*
X010142Y009770D02*
X010318Y009770D01*
X010241Y009672D02*
X010416Y009672D01*
X010339Y009573D02*
X010515Y009573D01*
X010438Y009475D02*
X010613Y009475D01*
X010536Y009376D02*
X010712Y009376D01*
X010635Y009278D02*
X010810Y009278D01*
X010733Y009179D02*
X010909Y009179D01*
X008909Y009179D02*
X008526Y009179D01*
X008623Y009278D02*
X008810Y009278D01*
X014215Y006520D02*
X014445Y006520D01*
X014518Y006618D02*
X014330Y006618D01*
X014345Y005633D02*
X014533Y005633D01*
X014451Y005535D02*
X014247Y005535D01*
X015004Y005042D02*
X015204Y005042D01*
X015290Y005141D02*
X015101Y005141D01*
D18*
X003150Y026950D03*
D19*
X003850Y019950D03*
X008350Y009450D03*
M02*
