%
M48
M72
T01C0.0236
T02C0.0276
T03C0.0315
T04C0.0400
T05C0.0433
T06C0.0866
%
T01
X3150Y26950
T02
X3850Y19950
X8350Y9450
T03
X14031Y9850
X14781Y9350
X15531Y9850
X14781Y10350
X15531Y10850
X14781Y11350
X15531Y11850
X14781Y12350
X15531Y12850
X14781Y13350
X15531Y13850
X14781Y14350
X15531Y14850
X14779Y15350
X15527Y15850
X16281Y15350
X16281Y14350
X16281Y13350
X16281Y12350
X16281Y11350
X16281Y10350
X16281Y9350
X15531Y8850
X14781Y8350
X15531Y7850
X14781Y7350
X15531Y6850
X14781Y6350
X15531Y5850
X14781Y5350
X15531Y4850
X14781Y4350
X15531Y3850
X16281Y4350
X16281Y5350
X16281Y6350
X16281Y7350
X16281Y8350
X14031Y7850
X14031Y6850
X14031Y5850
X14031Y4850
X14031Y3850
X14031Y8850
X14031Y10850
X14031Y11850
X14031Y12850
X14031Y13850
X14031Y14850
X14025Y15850
T04
X20750Y17150
X21750Y18550
X23550Y17250
X21750Y6750
X23700Y5300
X23500Y3750
X23300Y2400
X19516Y5300
X19250Y3800
X18950Y2400
X27600Y2450
X27900Y3850
X28150Y5250
T05
X25750Y22700
X25750Y23700
X24750Y23700
X24750Y22700
X23750Y22700
X23750Y23700
X22750Y23700
X22750Y22700
X21750Y22700
X21750Y23700
X20750Y23700
X20750Y22700
X19750Y22700
X19750Y23700
X18750Y23700
X18750Y22700
X17750Y22700
X17750Y23700
X16750Y23700
X16750Y22700
X15750Y22700
X15750Y23700
X14750Y23700
X14750Y22700
X13750Y22700
X13750Y23700
X12750Y23700
X12750Y22700
X11750Y22700
X11750Y23700
X10750Y23700
X10750Y22700
X9750Y22700
X9750Y23700
X8750Y23700
X8750Y22700
X7750Y22700
X7750Y23700
X6750Y23700
X6750Y22700
T06
X1150Y1150
X15150Y1600
X31350Y1150
X15150Y18100
X1150Y28150
X31350Y28150
M30
