G75*
%MOIN*%
%OFA0B0*%
%FSLAX24Y24*%
%IPPOS*%
%LPD*%
%AMOC8*
5,1,8,0,0,1.08239X$1,22.5*
%
%ADD10C,0.0050*%
%ADD11C,0.0000*%
%ADD12C,0.0926*%
%ADD13C,0.0189*%
%ADD14OC8,0.0820*%
%ADD15C,0.0710*%
%ADD16R,0.0611X0.0611*%
%ADD17C,0.0611*%
%ADD18C,0.1359*%
%ADD19C,0.0456*%
%ADD20C,0.0496*%
%ADD21R,0.0456X0.0456*%
D10*
X000350Y000350D02*
X000350Y028950D01*
X032150Y028950D01*
X032150Y000350D01*
X000350Y000350D01*
D11*
X000717Y001150D02*
X000719Y001191D01*
X000725Y001232D01*
X000735Y001272D01*
X000748Y001311D01*
X000765Y001348D01*
X000786Y001384D01*
X000810Y001418D01*
X000837Y001449D01*
X000866Y001477D01*
X000899Y001503D01*
X000933Y001525D01*
X000970Y001544D01*
X001008Y001559D01*
X001048Y001571D01*
X001088Y001579D01*
X001129Y001583D01*
X001171Y001583D01*
X001212Y001579D01*
X001252Y001571D01*
X001292Y001559D01*
X001330Y001544D01*
X001366Y001525D01*
X001401Y001503D01*
X001434Y001477D01*
X001463Y001449D01*
X001490Y001418D01*
X001514Y001384D01*
X001535Y001348D01*
X001552Y001311D01*
X001565Y001272D01*
X001575Y001232D01*
X001581Y001191D01*
X001583Y001150D01*
X001581Y001109D01*
X001575Y001068D01*
X001565Y001028D01*
X001552Y000989D01*
X001535Y000952D01*
X001514Y000916D01*
X001490Y000882D01*
X001463Y000851D01*
X001434Y000823D01*
X001401Y000797D01*
X001367Y000775D01*
X001330Y000756D01*
X001292Y000741D01*
X001252Y000729D01*
X001212Y000721D01*
X001171Y000717D01*
X001129Y000717D01*
X001088Y000721D01*
X001048Y000729D01*
X001008Y000741D01*
X000970Y000756D01*
X000934Y000775D01*
X000899Y000797D01*
X000866Y000823D01*
X000837Y000851D01*
X000810Y000882D01*
X000786Y000916D01*
X000765Y000952D01*
X000748Y000989D01*
X000735Y001028D01*
X000725Y001068D01*
X000719Y001109D01*
X000717Y001150D01*
X000717Y028150D02*
X000719Y028191D01*
X000725Y028232D01*
X000735Y028272D01*
X000748Y028311D01*
X000765Y028348D01*
X000786Y028384D01*
X000810Y028418D01*
X000837Y028449D01*
X000866Y028477D01*
X000899Y028503D01*
X000933Y028525D01*
X000970Y028544D01*
X001008Y028559D01*
X001048Y028571D01*
X001088Y028579D01*
X001129Y028583D01*
X001171Y028583D01*
X001212Y028579D01*
X001252Y028571D01*
X001292Y028559D01*
X001330Y028544D01*
X001366Y028525D01*
X001401Y028503D01*
X001434Y028477D01*
X001463Y028449D01*
X001490Y028418D01*
X001514Y028384D01*
X001535Y028348D01*
X001552Y028311D01*
X001565Y028272D01*
X001575Y028232D01*
X001581Y028191D01*
X001583Y028150D01*
X001581Y028109D01*
X001575Y028068D01*
X001565Y028028D01*
X001552Y027989D01*
X001535Y027952D01*
X001514Y027916D01*
X001490Y027882D01*
X001463Y027851D01*
X001434Y027823D01*
X001401Y027797D01*
X001367Y027775D01*
X001330Y027756D01*
X001292Y027741D01*
X001252Y027729D01*
X001212Y027721D01*
X001171Y027717D01*
X001129Y027717D01*
X001088Y027721D01*
X001048Y027729D01*
X001008Y027741D01*
X000970Y027756D01*
X000934Y027775D01*
X000899Y027797D01*
X000866Y027823D01*
X000837Y027851D01*
X000810Y027882D01*
X000786Y027916D01*
X000765Y027952D01*
X000748Y027989D01*
X000735Y028028D01*
X000725Y028068D01*
X000719Y028109D01*
X000717Y028150D01*
X030917Y028150D02*
X030919Y028191D01*
X030925Y028232D01*
X030935Y028272D01*
X030948Y028311D01*
X030965Y028348D01*
X030986Y028384D01*
X031010Y028418D01*
X031037Y028449D01*
X031066Y028477D01*
X031099Y028503D01*
X031133Y028525D01*
X031170Y028544D01*
X031208Y028559D01*
X031248Y028571D01*
X031288Y028579D01*
X031329Y028583D01*
X031371Y028583D01*
X031412Y028579D01*
X031452Y028571D01*
X031492Y028559D01*
X031530Y028544D01*
X031566Y028525D01*
X031601Y028503D01*
X031634Y028477D01*
X031663Y028449D01*
X031690Y028418D01*
X031714Y028384D01*
X031735Y028348D01*
X031752Y028311D01*
X031765Y028272D01*
X031775Y028232D01*
X031781Y028191D01*
X031783Y028150D01*
X031781Y028109D01*
X031775Y028068D01*
X031765Y028028D01*
X031752Y027989D01*
X031735Y027952D01*
X031714Y027916D01*
X031690Y027882D01*
X031663Y027851D01*
X031634Y027823D01*
X031601Y027797D01*
X031567Y027775D01*
X031530Y027756D01*
X031492Y027741D01*
X031452Y027729D01*
X031412Y027721D01*
X031371Y027717D01*
X031329Y027717D01*
X031288Y027721D01*
X031248Y027729D01*
X031208Y027741D01*
X031170Y027756D01*
X031134Y027775D01*
X031099Y027797D01*
X031066Y027823D01*
X031037Y027851D01*
X031010Y027882D01*
X030986Y027916D01*
X030965Y027952D01*
X030948Y027989D01*
X030935Y028028D01*
X030925Y028068D01*
X030919Y028109D01*
X030917Y028150D01*
X030917Y001150D02*
X030919Y001191D01*
X030925Y001232D01*
X030935Y001272D01*
X030948Y001311D01*
X030965Y001348D01*
X030986Y001384D01*
X031010Y001418D01*
X031037Y001449D01*
X031066Y001477D01*
X031099Y001503D01*
X031133Y001525D01*
X031170Y001544D01*
X031208Y001559D01*
X031248Y001571D01*
X031288Y001579D01*
X031329Y001583D01*
X031371Y001583D01*
X031412Y001579D01*
X031452Y001571D01*
X031492Y001559D01*
X031530Y001544D01*
X031566Y001525D01*
X031601Y001503D01*
X031634Y001477D01*
X031663Y001449D01*
X031690Y001418D01*
X031714Y001384D01*
X031735Y001348D01*
X031752Y001311D01*
X031765Y001272D01*
X031775Y001232D01*
X031781Y001191D01*
X031783Y001150D01*
X031781Y001109D01*
X031775Y001068D01*
X031765Y001028D01*
X031752Y000989D01*
X031735Y000952D01*
X031714Y000916D01*
X031690Y000882D01*
X031663Y000851D01*
X031634Y000823D01*
X031601Y000797D01*
X031567Y000775D01*
X031530Y000756D01*
X031492Y000741D01*
X031452Y000729D01*
X031412Y000721D01*
X031371Y000717D01*
X031329Y000717D01*
X031288Y000721D01*
X031248Y000729D01*
X031208Y000741D01*
X031170Y000756D01*
X031134Y000775D01*
X031099Y000797D01*
X031066Y000823D01*
X031037Y000851D01*
X031010Y000882D01*
X030986Y000916D01*
X030965Y000952D01*
X030948Y000989D01*
X030935Y001028D01*
X030925Y001068D01*
X030919Y001109D01*
X030917Y001150D01*
D12*
X031350Y001150D03*
X031350Y028150D03*
X001150Y028150D03*
X001150Y001150D03*
D13*
X025139Y018114D02*
X025161Y018114D01*
X025139Y018114D02*
X025139Y018386D01*
X025161Y018386D01*
X025161Y018114D01*
X025161Y018302D02*
X025139Y018302D01*
X025389Y018114D02*
X025411Y018114D01*
X025389Y018114D02*
X025389Y018386D01*
X025411Y018386D01*
X025411Y018114D01*
X025411Y018302D02*
X025389Y018302D01*
X025639Y018114D02*
X025661Y018114D01*
X025639Y018114D02*
X025639Y018386D01*
X025661Y018386D01*
X025661Y018114D01*
X025661Y018302D02*
X025639Y018302D01*
X025889Y018114D02*
X025911Y018114D01*
X025889Y018114D02*
X025889Y018386D01*
X025911Y018386D01*
X025911Y018114D01*
X025911Y018302D02*
X025889Y018302D01*
X026139Y018114D02*
X026161Y018114D01*
X026139Y018114D02*
X026139Y018386D01*
X026161Y018386D01*
X026161Y018114D01*
X026161Y018302D02*
X026139Y018302D01*
X026389Y018114D02*
X026411Y018114D01*
X026389Y018114D02*
X026389Y018386D01*
X026411Y018386D01*
X026411Y018114D01*
X026411Y018302D02*
X026389Y018302D01*
X026639Y018114D02*
X026661Y018114D01*
X026639Y018114D02*
X026639Y018386D01*
X026661Y018386D01*
X026661Y018114D01*
X026661Y018302D02*
X026639Y018302D01*
X026889Y018114D02*
X026911Y018114D01*
X026889Y018114D02*
X026889Y018386D01*
X026911Y018386D01*
X026911Y018114D01*
X026911Y018302D02*
X026889Y018302D01*
X027139Y018114D02*
X027161Y018114D01*
X027139Y018114D02*
X027139Y018386D01*
X027161Y018386D01*
X027161Y018114D01*
X027161Y018302D02*
X027139Y018302D01*
X027389Y018114D02*
X027411Y018114D01*
X027389Y018114D02*
X027389Y018386D01*
X027411Y018386D01*
X027411Y018114D01*
X027411Y018302D02*
X027389Y018302D01*
X027639Y018114D02*
X027661Y018114D01*
X027639Y018114D02*
X027639Y018386D01*
X027661Y018386D01*
X027661Y018114D01*
X027661Y018302D02*
X027639Y018302D01*
X027889Y018114D02*
X027911Y018114D01*
X027889Y018114D02*
X027889Y018386D01*
X027911Y018386D01*
X027911Y018114D01*
X027911Y018302D02*
X027889Y018302D01*
X028139Y018114D02*
X028161Y018114D01*
X028139Y018114D02*
X028139Y018386D01*
X028161Y018386D01*
X028161Y018114D01*
X028161Y018302D02*
X028139Y018302D01*
X028389Y018114D02*
X028411Y018114D01*
X028389Y018114D02*
X028389Y018386D01*
X028411Y018386D01*
X028411Y018114D01*
X028411Y018302D02*
X028389Y018302D01*
X028639Y018114D02*
X028661Y018114D01*
X028639Y018114D02*
X028639Y018386D01*
X028661Y018386D01*
X028661Y018114D01*
X028661Y018302D02*
X028639Y018302D01*
X028889Y018114D02*
X028911Y018114D01*
X028889Y018114D02*
X028889Y018386D01*
X028911Y018386D01*
X028911Y018114D01*
X028911Y018302D02*
X028889Y018302D01*
X029139Y018114D02*
X029161Y018114D01*
X029139Y018114D02*
X029139Y018386D01*
X029161Y018386D01*
X029161Y018114D01*
X029161Y018302D02*
X029139Y018302D01*
X029389Y018114D02*
X029411Y018114D01*
X029389Y018114D02*
X029389Y018386D01*
X029411Y018386D01*
X029411Y018114D01*
X029411Y018302D02*
X029389Y018302D01*
X029411Y018614D02*
X029389Y018614D01*
X029389Y018886D01*
X029411Y018886D01*
X029411Y018614D01*
X029411Y018802D02*
X029389Y018802D01*
X029161Y018614D02*
X029139Y018614D01*
X029139Y018886D01*
X029161Y018886D01*
X029161Y018614D01*
X029161Y018802D02*
X029139Y018802D01*
X028911Y018614D02*
X028889Y018614D01*
X028889Y018886D01*
X028911Y018886D01*
X028911Y018614D01*
X028911Y018802D02*
X028889Y018802D01*
X028661Y018614D02*
X028639Y018614D01*
X028639Y018886D01*
X028661Y018886D01*
X028661Y018614D01*
X028661Y018802D02*
X028639Y018802D01*
X028411Y018614D02*
X028389Y018614D01*
X028389Y018886D01*
X028411Y018886D01*
X028411Y018614D01*
X028411Y018802D02*
X028389Y018802D01*
X028161Y018614D02*
X028139Y018614D01*
X028139Y018886D01*
X028161Y018886D01*
X028161Y018614D01*
X028161Y018802D02*
X028139Y018802D01*
X027911Y018614D02*
X027889Y018614D01*
X027889Y018886D01*
X027911Y018886D01*
X027911Y018614D01*
X027911Y018802D02*
X027889Y018802D01*
X027661Y018614D02*
X027639Y018614D01*
X027639Y018886D01*
X027661Y018886D01*
X027661Y018614D01*
X027661Y018802D02*
X027639Y018802D01*
X027411Y018614D02*
X027389Y018614D01*
X027389Y018886D01*
X027411Y018886D01*
X027411Y018614D01*
X027411Y018802D02*
X027389Y018802D01*
X027161Y018614D02*
X027139Y018614D01*
X027139Y018886D01*
X027161Y018886D01*
X027161Y018614D01*
X027161Y018802D02*
X027139Y018802D01*
X026911Y018614D02*
X026889Y018614D01*
X026889Y018886D01*
X026911Y018886D01*
X026911Y018614D01*
X026911Y018802D02*
X026889Y018802D01*
X026661Y018614D02*
X026639Y018614D01*
X026639Y018886D01*
X026661Y018886D01*
X026661Y018614D01*
X026661Y018802D02*
X026639Y018802D01*
X026411Y018614D02*
X026389Y018614D01*
X026389Y018886D01*
X026411Y018886D01*
X026411Y018614D01*
X026411Y018802D02*
X026389Y018802D01*
X026161Y018614D02*
X026139Y018614D01*
X026139Y018886D01*
X026161Y018886D01*
X026161Y018614D01*
X026161Y018802D02*
X026139Y018802D01*
X025911Y018614D02*
X025889Y018614D01*
X025889Y018886D01*
X025911Y018886D01*
X025911Y018614D01*
X025911Y018802D02*
X025889Y018802D01*
X025661Y018614D02*
X025639Y018614D01*
X025639Y018886D01*
X025661Y018886D01*
X025661Y018614D01*
X025661Y018802D02*
X025639Y018802D01*
X025411Y018614D02*
X025389Y018614D01*
X025389Y018886D01*
X025411Y018886D01*
X025411Y018614D01*
X025411Y018802D02*
X025389Y018802D01*
X025161Y018614D02*
X025139Y018614D01*
X025139Y018886D01*
X025161Y018886D01*
X025161Y018614D01*
X025161Y018802D02*
X025139Y018802D01*
D14*
X023550Y017250D03*
X021750Y018550D03*
X020750Y017150D03*
X021750Y006750D03*
X023700Y005300D03*
X023500Y003750D03*
X023300Y002400D03*
X019516Y005300D03*
X019250Y003800D03*
X018950Y002400D03*
X027600Y002450D03*
X027900Y003850D03*
X028150Y005250D03*
D15*
X025750Y022700D03*
X025750Y023700D03*
X024750Y023700D03*
X024750Y022700D03*
X023750Y022700D03*
X023750Y023700D03*
X022750Y023700D03*
X022750Y022700D03*
X021750Y022700D03*
X021750Y023700D03*
X020750Y023700D03*
X020750Y022700D03*
X019750Y022700D03*
X019750Y023700D03*
X018750Y023700D03*
X018750Y022700D03*
X017750Y022700D03*
X017750Y023700D03*
X016750Y023700D03*
X016750Y022700D03*
X015750Y022700D03*
X015750Y023700D03*
X014750Y023700D03*
X014750Y022700D03*
X013750Y022700D03*
X013750Y023700D03*
X012750Y023700D03*
X012750Y022700D03*
X011750Y022700D03*
X011750Y023700D03*
X010750Y023700D03*
X010750Y022700D03*
X009750Y022700D03*
X009750Y023700D03*
X008750Y023700D03*
X008750Y022700D03*
X007750Y022700D03*
X007750Y023700D03*
X006750Y023700D03*
X006750Y022700D03*
D16*
X014025Y015850D03*
D17*
X014779Y015350D03*
X015527Y015850D03*
X016281Y015350D03*
X015531Y014850D03*
X014781Y014350D03*
X015531Y013850D03*
X014781Y013350D03*
X015531Y012850D03*
X014781Y012350D03*
X015531Y011850D03*
X014781Y011350D03*
X015531Y010850D03*
X014781Y010350D03*
X015531Y009850D03*
X014781Y009350D03*
X015531Y008850D03*
X014781Y008350D03*
X015531Y007850D03*
X014781Y007350D03*
X015531Y006850D03*
X014781Y006350D03*
X015531Y005850D03*
X014781Y005350D03*
X015531Y004850D03*
X014781Y004350D03*
X015531Y003850D03*
X016281Y004350D03*
X016281Y005350D03*
X016281Y006350D03*
X016281Y007350D03*
X016281Y008350D03*
X016281Y009350D03*
X016281Y010350D03*
X016281Y011350D03*
X016281Y012350D03*
X016281Y013350D03*
X016281Y014350D03*
X014031Y013850D03*
X014031Y014850D03*
X014031Y012850D03*
X014031Y011850D03*
X014031Y010850D03*
X014031Y009850D03*
X014031Y008850D03*
X014031Y007850D03*
X014031Y006850D03*
X014031Y005850D03*
X014031Y004850D03*
X014031Y003850D03*
D18*
X015150Y001600D03*
X015150Y018100D03*
D19*
X003150Y026950D03*
D20*
X003850Y019950D03*
X008350Y009450D03*
D21*
X023250Y018450D03*
X023250Y027550D03*
X023250Y027550D03*
M02*
