%
M48
M72
T01C0.0197
T02C0.0315
T03C0.0360
T04C0.0512
T05C0.0866
%
T01
X23277Y2124
X23277Y2616
X28395Y2616
X28395Y2025
X29281Y1730
X29281Y2320
X29281Y2911
X29281Y3502
X29281Y4092
X29281Y4683
X29281Y5273
X29281Y5864
X29281Y6454
X28395Y6159
X28395Y5569
X28395Y4978
X28395Y4387
X28395Y3797
X28395Y3206
X28395Y6750
X25246Y6946
X28395Y9998
X28395Y10588
X28395Y11179
X28395Y11769
X28395Y12360
X28395Y12950
X28395Y13541
X28395Y14131
X28395Y14722
X29281Y14427
X29281Y13836
X29281Y13246
X29281Y12655
X29281Y12065
X29281Y11474
X29281Y10883
X29281Y10293
X29281Y9702
X31840Y10096
X32332Y10096
X32824Y10096
X33317Y10096
X25246Y14919
X29183Y18167
X29183Y18757
X29183Y19348
X29183Y19939
X29183Y20529
X29183Y21120
X29183Y21710
X29183Y22301
X29183Y22891
X28297Y22596
X28297Y22006
X28297Y21415
X28297Y20824
X28297Y20234
X28297Y19643
X28297Y19053
X28297Y18462
X28297Y23187
X29183Y25549
X29183Y26139
X29183Y26730
X29183Y27320
X29183Y27911
X29183Y28502
X29183Y29092
X28297Y28797
X28297Y29387
X28297Y28206
X28297Y27616
X28297Y27025
X28297Y26435
X28297Y25844
X25246Y23482
X25246Y30962
X28297Y31061
X28789Y31061
X29281Y31061
X29773Y31061
T02
X6139Y29758
X6639Y29008
X7139Y29758
X7639Y29008
X8139Y29758
X8639Y29008
X9139Y29758
X9639Y29008
X10139Y29758
X10639Y29008
X11139Y29758
X11639Y29008
X12139Y29758
X12639Y29008
X13139Y29758
X13639Y29008
X14139Y29758
X14639Y29008
X15139Y29758
X15639Y29008
X16139Y29758
X16639Y29008
X17139Y29758
X17639Y29010
X18139Y29764
X18139Y28262
X17639Y27508
X17139Y28258
X16639Y27508
X16139Y28258
X15639Y27508
X15139Y28258
X14639Y27508
X14139Y28258
X13639Y27508
X13139Y28258
X12639Y27508
X12139Y28258
X11639Y27508
X11139Y28258
X10639Y27508
X10139Y28258
X9639Y27508
X9139Y28258
X8639Y27508
X8139Y28258
X7639Y27508
X7139Y28258
X6639Y27508
X6139Y28258
X6139Y22258
X6639Y21508
X6139Y20758
X6639Y20008
X7139Y20758
X7639Y20008
X8139Y20758
X8639Y20008
X9139Y20758
X9639Y20008
X10139Y20758
X10639Y20008
X11139Y20758
X11639Y20008
X12139Y20758
X12639Y20008
X13139Y20758
X13639Y20008
X14139Y20758
X14639Y20008
X15139Y20758
X15639Y20008
X16139Y20758
X16639Y20008
X17139Y20758
X17639Y20008
X18139Y20762
X17639Y21510
X17139Y22258
X16639Y21508
X16139Y22258
X15639Y21508
X15139Y22258
X14639Y21508
X14139Y22258
X13639Y21508
X13139Y22258
X12639Y21508
X12139Y22258
X11639Y21508
X11139Y22258
X10639Y21508
X10139Y22258
X9639Y21508
X9139Y22258
X8639Y21508
X8139Y22258
X7639Y21508
X7139Y22258
X7139Y14258
X6639Y13508
X6139Y12758
X6639Y12008
X7139Y12758
X7639Y12008
X8139Y12758
X8639Y12008
X9139Y12758
X9639Y12008
X10139Y12758
X10639Y12008
X11139Y12758
X11639Y12008
X12139Y12758
X12639Y12008
X13139Y12758
X13639Y12008
X14139Y12758
X14639Y12008
X15139Y12758
X15639Y12008
X16139Y12758
X16639Y12008
X17139Y12758
X17639Y12008
X18139Y12762
X17639Y13510
X17139Y14258
X16639Y13508
X16139Y14258
X15639Y13508
X15139Y14258
X14639Y13508
X14139Y14258
X13639Y13508
X13139Y14258
X12639Y13508
X12139Y14258
X11639Y13508
X11139Y14258
X10639Y13508
X10139Y14258
X9639Y13508
X9139Y14258
X8639Y13508
X8139Y14258
X7639Y13508
X6139Y14258
X6139Y6258
X6639Y5508
X6139Y4758
X6639Y4008
X7139Y4758
X7639Y4008
X8139Y4758
X8639Y4008
X9139Y4758
X9639Y4008
X10139Y4758
X10639Y4008
X11139Y4758
X11639Y4008
X12139Y4758
X12639Y4008
X13139Y4758
X13639Y4008
X14139Y4758
X14639Y4008
X15139Y4758
X15639Y4008
X16139Y4758
X16639Y4008
X17139Y4758
X17639Y4008
X18139Y4762
X17639Y5510
X17139Y6258
X16639Y5508
X16139Y6258
X15639Y5508
X15139Y6258
X14639Y5508
X14139Y6258
X13639Y5508
X13139Y6258
X12639Y5508
X12139Y6258
X11639Y5508
X11139Y6258
X10639Y5508
X10139Y6258
X9639Y5508
X9139Y6258
X8639Y5508
X8139Y6258
X7639Y5508
X7139Y6258
X18139Y6264
X18139Y14264
X18139Y22264
T03
X32139Y19889
X32139Y20889
X32139Y21889
X34139Y21889
X34139Y20889
X34139Y19889
X36139Y19889
X36139Y20889
X36139Y21889
X38139Y21889
X38139Y20889
X38139Y19889
X37639Y14389
X37639Y13389
X37639Y12389
X37639Y11389
X36639Y11389
X36639Y12389
X36639Y13389
X36639Y14389
X33639Y14389
X32639Y14389
X32639Y13389
X33639Y13389
X33639Y12389
X32639Y12389
X32639Y11389
X33639Y11389
X38139Y27389
X38139Y28389
X38139Y29389
X36139Y29389
X36139Y28389
X36139Y27389
X34139Y27389
X34139Y28389
X34139Y29389
X32139Y29389
X32139Y28389
X32139Y27389
T04
X1139Y32139
X1139Y1639
X39439Y1639
X39439Y32139
T05
X3889Y28639
X3889Y21139
X3889Y13139
X3889Y5139
X20389Y5139
X20389Y13139
X20389Y21139
X20389Y28639
M30
