G75*
%MOIN*%
%OFA0B0*%
%FSLAX24Y24*%
%IPPOS*%
%LPD*%
%AMOC8*
5,1,8,0,0,1.08239X$1,22.5*
%
%ADD10C,0.0000*%
%ADD11C,0.0135*%
D10*
X000639Y001139D02*
X000639Y032635D01*
X040009Y032635D01*
X040009Y001139D01*
X000639Y001139D01*
X000883Y001639D02*
X000885Y001670D01*
X000891Y001701D01*
X000900Y001731D01*
X000913Y001760D01*
X000930Y001787D01*
X000950Y001811D01*
X000972Y001833D01*
X000998Y001852D01*
X001025Y001868D01*
X001054Y001880D01*
X001084Y001889D01*
X001115Y001894D01*
X001147Y001895D01*
X001178Y001892D01*
X001209Y001885D01*
X001239Y001875D01*
X001267Y001861D01*
X001293Y001843D01*
X001317Y001823D01*
X001338Y001799D01*
X001357Y001774D01*
X001372Y001746D01*
X001383Y001717D01*
X001391Y001686D01*
X001395Y001655D01*
X001395Y001623D01*
X001391Y001592D01*
X001383Y001561D01*
X001372Y001532D01*
X001357Y001504D01*
X001338Y001479D01*
X001317Y001455D01*
X001293Y001435D01*
X001267Y001417D01*
X001239Y001403D01*
X001209Y001393D01*
X001178Y001386D01*
X001147Y001383D01*
X001115Y001384D01*
X001084Y001389D01*
X001054Y001398D01*
X001025Y001410D01*
X000998Y001426D01*
X000972Y001445D01*
X000950Y001467D01*
X000930Y001491D01*
X000913Y001518D01*
X000900Y001547D01*
X000891Y001577D01*
X000885Y001608D01*
X000883Y001639D01*
X000883Y032139D02*
X000885Y032170D01*
X000891Y032201D01*
X000900Y032231D01*
X000913Y032260D01*
X000930Y032287D01*
X000950Y032311D01*
X000972Y032333D01*
X000998Y032352D01*
X001025Y032368D01*
X001054Y032380D01*
X001084Y032389D01*
X001115Y032394D01*
X001147Y032395D01*
X001178Y032392D01*
X001209Y032385D01*
X001239Y032375D01*
X001267Y032361D01*
X001293Y032343D01*
X001317Y032323D01*
X001338Y032299D01*
X001357Y032274D01*
X001372Y032246D01*
X001383Y032217D01*
X001391Y032186D01*
X001395Y032155D01*
X001395Y032123D01*
X001391Y032092D01*
X001383Y032061D01*
X001372Y032032D01*
X001357Y032004D01*
X001338Y031979D01*
X001317Y031955D01*
X001293Y031935D01*
X001267Y031917D01*
X001239Y031903D01*
X001209Y031893D01*
X001178Y031886D01*
X001147Y031883D01*
X001115Y031884D01*
X001084Y031889D01*
X001054Y031898D01*
X001025Y031910D01*
X000998Y031926D01*
X000972Y031945D01*
X000950Y031967D01*
X000930Y031991D01*
X000913Y032018D01*
X000900Y032047D01*
X000891Y032077D01*
X000885Y032108D01*
X000883Y032139D01*
X039183Y032139D02*
X039185Y032170D01*
X039191Y032201D01*
X039200Y032231D01*
X039213Y032260D01*
X039230Y032287D01*
X039250Y032311D01*
X039272Y032333D01*
X039298Y032352D01*
X039325Y032368D01*
X039354Y032380D01*
X039384Y032389D01*
X039415Y032394D01*
X039447Y032395D01*
X039478Y032392D01*
X039509Y032385D01*
X039539Y032375D01*
X039567Y032361D01*
X039593Y032343D01*
X039617Y032323D01*
X039638Y032299D01*
X039657Y032274D01*
X039672Y032246D01*
X039683Y032217D01*
X039691Y032186D01*
X039695Y032155D01*
X039695Y032123D01*
X039691Y032092D01*
X039683Y032061D01*
X039672Y032032D01*
X039657Y032004D01*
X039638Y031979D01*
X039617Y031955D01*
X039593Y031935D01*
X039567Y031917D01*
X039539Y031903D01*
X039509Y031893D01*
X039478Y031886D01*
X039447Y031883D01*
X039415Y031884D01*
X039384Y031889D01*
X039354Y031898D01*
X039325Y031910D01*
X039298Y031926D01*
X039272Y031945D01*
X039250Y031967D01*
X039230Y031991D01*
X039213Y032018D01*
X039200Y032047D01*
X039191Y032077D01*
X039185Y032108D01*
X039183Y032139D01*
X039183Y001639D02*
X039185Y001670D01*
X039191Y001701D01*
X039200Y001731D01*
X039213Y001760D01*
X039230Y001787D01*
X039250Y001811D01*
X039272Y001833D01*
X039298Y001852D01*
X039325Y001868D01*
X039354Y001880D01*
X039384Y001889D01*
X039415Y001894D01*
X039447Y001895D01*
X039478Y001892D01*
X039509Y001885D01*
X039539Y001875D01*
X039567Y001861D01*
X039593Y001843D01*
X039617Y001823D01*
X039638Y001799D01*
X039657Y001774D01*
X039672Y001746D01*
X039683Y001717D01*
X039691Y001686D01*
X039695Y001655D01*
X039695Y001623D01*
X039691Y001592D01*
X039683Y001561D01*
X039672Y001532D01*
X039657Y001504D01*
X039638Y001479D01*
X039617Y001455D01*
X039593Y001435D01*
X039567Y001417D01*
X039539Y001403D01*
X039509Y001393D01*
X039478Y001386D01*
X039447Y001383D01*
X039415Y001384D01*
X039384Y001389D01*
X039354Y001398D01*
X039325Y001410D01*
X039298Y001426D01*
X039272Y001445D01*
X039250Y001467D01*
X039230Y001491D01*
X039213Y001518D01*
X039200Y001547D01*
X039191Y001577D01*
X039185Y001608D01*
X039183Y001639D01*
D11*
X026506Y002381D02*
X026506Y002397D01*
X026772Y002397D01*
X026772Y002381D01*
X026506Y002381D01*
X026506Y002631D02*
X026506Y002647D01*
X026772Y002647D01*
X026772Y002631D01*
X026506Y002631D01*
X026506Y002881D02*
X026506Y002897D01*
X026772Y002897D01*
X026772Y002881D01*
X026506Y002881D01*
X026506Y003131D02*
X026506Y003147D01*
X026772Y003147D01*
X026772Y003131D01*
X026506Y003131D01*
X026506Y003381D02*
X026506Y003397D01*
X026772Y003397D01*
X026772Y003381D01*
X026506Y003381D01*
X026506Y003631D02*
X026506Y003647D01*
X026772Y003647D01*
X026772Y003631D01*
X026506Y003631D01*
X026506Y003881D02*
X026506Y003897D01*
X026772Y003897D01*
X026772Y003881D01*
X026506Y003881D01*
X026506Y004131D02*
X026506Y004147D01*
X026772Y004147D01*
X026772Y004131D01*
X026506Y004131D01*
X026506Y004381D02*
X026506Y004397D01*
X026772Y004397D01*
X026772Y004381D01*
X026506Y004381D01*
X026506Y004631D02*
X026506Y004647D01*
X026772Y004647D01*
X026772Y004631D01*
X026506Y004631D01*
X026506Y004881D02*
X026506Y004897D01*
X026772Y004897D01*
X026772Y004881D01*
X026506Y004881D01*
X026506Y005131D02*
X026506Y005147D01*
X026772Y005147D01*
X026772Y005131D01*
X026506Y005131D01*
X026506Y005381D02*
X026506Y005397D01*
X026772Y005397D01*
X026772Y005381D01*
X026506Y005381D01*
X026506Y005631D02*
X026506Y005647D01*
X026772Y005647D01*
X026772Y005631D01*
X026506Y005631D01*
X026506Y005881D02*
X026506Y005897D01*
X026772Y005897D01*
X026772Y005881D01*
X026506Y005881D01*
X026506Y006131D02*
X026506Y006147D01*
X026772Y006147D01*
X026772Y006131D01*
X026506Y006131D01*
X026506Y006381D02*
X026506Y006397D01*
X026772Y006397D01*
X026772Y006381D01*
X026506Y006381D01*
X026506Y006631D02*
X026506Y006647D01*
X026772Y006647D01*
X026772Y006631D01*
X026506Y006631D01*
X026006Y006631D02*
X026006Y006647D01*
X026272Y006647D01*
X026272Y006631D01*
X026006Y006631D01*
X026006Y006397D02*
X026006Y006381D01*
X026006Y006397D02*
X026272Y006397D01*
X026272Y006381D01*
X026006Y006381D01*
X026006Y006147D02*
X026006Y006131D01*
X026006Y006147D02*
X026272Y006147D01*
X026272Y006131D01*
X026006Y006131D01*
X026006Y005897D02*
X026006Y005881D01*
X026006Y005897D02*
X026272Y005897D01*
X026272Y005881D01*
X026006Y005881D01*
X026006Y005647D02*
X026006Y005631D01*
X026006Y005647D02*
X026272Y005647D01*
X026272Y005631D01*
X026006Y005631D01*
X026006Y005397D02*
X026006Y005381D01*
X026006Y005397D02*
X026272Y005397D01*
X026272Y005381D01*
X026006Y005381D01*
X026006Y005147D02*
X026006Y005131D01*
X026006Y005147D02*
X026272Y005147D01*
X026272Y005131D01*
X026006Y005131D01*
X026006Y004897D02*
X026006Y004881D01*
X026006Y004897D02*
X026272Y004897D01*
X026272Y004881D01*
X026006Y004881D01*
X026006Y004647D02*
X026006Y004631D01*
X026006Y004647D02*
X026272Y004647D01*
X026272Y004631D01*
X026006Y004631D01*
X026006Y004397D02*
X026006Y004381D01*
X026006Y004397D02*
X026272Y004397D01*
X026272Y004381D01*
X026006Y004381D01*
X026006Y004147D02*
X026006Y004131D01*
X026006Y004147D02*
X026272Y004147D01*
X026272Y004131D01*
X026006Y004131D01*
X026006Y003897D02*
X026006Y003881D01*
X026006Y003897D02*
X026272Y003897D01*
X026272Y003881D01*
X026006Y003881D01*
X026006Y003647D02*
X026006Y003631D01*
X026006Y003647D02*
X026272Y003647D01*
X026272Y003631D01*
X026006Y003631D01*
X026006Y003397D02*
X026006Y003381D01*
X026006Y003397D02*
X026272Y003397D01*
X026272Y003381D01*
X026006Y003381D01*
X026006Y003147D02*
X026006Y003131D01*
X026006Y003147D02*
X026272Y003147D01*
X026272Y003131D01*
X026006Y003131D01*
X026006Y002897D02*
X026006Y002881D01*
X026006Y002897D02*
X026272Y002897D01*
X026272Y002881D01*
X026006Y002881D01*
X026006Y002647D02*
X026006Y002631D01*
X026006Y002647D02*
X026272Y002647D01*
X026272Y002631D01*
X026006Y002631D01*
X026006Y002397D02*
X026006Y002381D01*
X026006Y002397D02*
X026272Y002397D01*
X026272Y002381D01*
X026006Y002381D01*
X026006Y010381D02*
X026006Y010397D01*
X026272Y010397D01*
X026272Y010381D01*
X026006Y010381D01*
X026006Y010631D02*
X026006Y010647D01*
X026272Y010647D01*
X026272Y010631D01*
X026006Y010631D01*
X026006Y010881D02*
X026006Y010897D01*
X026272Y010897D01*
X026272Y010881D01*
X026006Y010881D01*
X026006Y011131D02*
X026006Y011147D01*
X026272Y011147D01*
X026272Y011131D01*
X026006Y011131D01*
X026006Y011381D02*
X026006Y011397D01*
X026272Y011397D01*
X026272Y011381D01*
X026006Y011381D01*
X026006Y011631D02*
X026006Y011647D01*
X026272Y011647D01*
X026272Y011631D01*
X026006Y011631D01*
X026006Y011881D02*
X026006Y011897D01*
X026272Y011897D01*
X026272Y011881D01*
X026006Y011881D01*
X026006Y012131D02*
X026006Y012147D01*
X026272Y012147D01*
X026272Y012131D01*
X026006Y012131D01*
X026006Y012381D02*
X026006Y012397D01*
X026272Y012397D01*
X026272Y012381D01*
X026006Y012381D01*
X026006Y012631D02*
X026006Y012647D01*
X026272Y012647D01*
X026272Y012631D01*
X026006Y012631D01*
X026006Y012881D02*
X026006Y012897D01*
X026272Y012897D01*
X026272Y012881D01*
X026006Y012881D01*
X026006Y013131D02*
X026006Y013147D01*
X026272Y013147D01*
X026272Y013131D01*
X026006Y013131D01*
X026006Y013381D02*
X026006Y013397D01*
X026272Y013397D01*
X026272Y013381D01*
X026006Y013381D01*
X026006Y013631D02*
X026006Y013647D01*
X026272Y013647D01*
X026272Y013631D01*
X026006Y013631D01*
X026006Y013881D02*
X026006Y013897D01*
X026272Y013897D01*
X026272Y013881D01*
X026006Y013881D01*
X026006Y014131D02*
X026006Y014147D01*
X026272Y014147D01*
X026272Y014131D01*
X026006Y014131D01*
X026006Y014381D02*
X026006Y014397D01*
X026272Y014397D01*
X026272Y014381D01*
X026006Y014381D01*
X026006Y014631D02*
X026006Y014647D01*
X026272Y014647D01*
X026272Y014631D01*
X026006Y014631D01*
X026506Y014631D02*
X026506Y014647D01*
X026772Y014647D01*
X026772Y014631D01*
X026506Y014631D01*
X026506Y014397D02*
X026506Y014381D01*
X026506Y014397D02*
X026772Y014397D01*
X026772Y014381D01*
X026506Y014381D01*
X026506Y014147D02*
X026506Y014131D01*
X026506Y014147D02*
X026772Y014147D01*
X026772Y014131D01*
X026506Y014131D01*
X026506Y013897D02*
X026506Y013881D01*
X026506Y013897D02*
X026772Y013897D01*
X026772Y013881D01*
X026506Y013881D01*
X026506Y013647D02*
X026506Y013631D01*
X026506Y013647D02*
X026772Y013647D01*
X026772Y013631D01*
X026506Y013631D01*
X026506Y013397D02*
X026506Y013381D01*
X026506Y013397D02*
X026772Y013397D01*
X026772Y013381D01*
X026506Y013381D01*
X026506Y013147D02*
X026506Y013131D01*
X026506Y013147D02*
X026772Y013147D01*
X026772Y013131D01*
X026506Y013131D01*
X026506Y012897D02*
X026506Y012881D01*
X026506Y012897D02*
X026772Y012897D01*
X026772Y012881D01*
X026506Y012881D01*
X026506Y012647D02*
X026506Y012631D01*
X026506Y012647D02*
X026772Y012647D01*
X026772Y012631D01*
X026506Y012631D01*
X026506Y012397D02*
X026506Y012381D01*
X026506Y012397D02*
X026772Y012397D01*
X026772Y012381D01*
X026506Y012381D01*
X026506Y012147D02*
X026506Y012131D01*
X026506Y012147D02*
X026772Y012147D01*
X026772Y012131D01*
X026506Y012131D01*
X026506Y011897D02*
X026506Y011881D01*
X026506Y011897D02*
X026772Y011897D01*
X026772Y011881D01*
X026506Y011881D01*
X026506Y011647D02*
X026506Y011631D01*
X026506Y011647D02*
X026772Y011647D01*
X026772Y011631D01*
X026506Y011631D01*
X026506Y011397D02*
X026506Y011381D01*
X026506Y011397D02*
X026772Y011397D01*
X026772Y011381D01*
X026506Y011381D01*
X026506Y011147D02*
X026506Y011131D01*
X026506Y011147D02*
X026772Y011147D01*
X026772Y011131D01*
X026506Y011131D01*
X026506Y010897D02*
X026506Y010881D01*
X026506Y010897D02*
X026772Y010897D01*
X026772Y010881D01*
X026506Y010881D01*
X026506Y010647D02*
X026506Y010631D01*
X026506Y010647D02*
X026772Y010647D01*
X026772Y010631D01*
X026506Y010631D01*
X026506Y010397D02*
X026506Y010381D01*
X026506Y010397D02*
X026772Y010397D01*
X026772Y010381D01*
X026506Y010381D01*
X026506Y018881D02*
X026506Y018897D01*
X026772Y018897D01*
X026772Y018881D01*
X026506Y018881D01*
X026506Y019131D02*
X026506Y019147D01*
X026772Y019147D01*
X026772Y019131D01*
X026506Y019131D01*
X026506Y019381D02*
X026506Y019397D01*
X026772Y019397D01*
X026772Y019381D01*
X026506Y019381D01*
X026506Y019631D02*
X026506Y019647D01*
X026772Y019647D01*
X026772Y019631D01*
X026506Y019631D01*
X026506Y019881D02*
X026506Y019897D01*
X026772Y019897D01*
X026772Y019881D01*
X026506Y019881D01*
X026506Y020131D02*
X026506Y020147D01*
X026772Y020147D01*
X026772Y020131D01*
X026506Y020131D01*
X026506Y020381D02*
X026506Y020397D01*
X026772Y020397D01*
X026772Y020381D01*
X026506Y020381D01*
X026506Y020631D02*
X026506Y020647D01*
X026772Y020647D01*
X026772Y020631D01*
X026506Y020631D01*
X026506Y020881D02*
X026506Y020897D01*
X026772Y020897D01*
X026772Y020881D01*
X026506Y020881D01*
X026506Y021131D02*
X026506Y021147D01*
X026772Y021147D01*
X026772Y021131D01*
X026506Y021131D01*
X026506Y021381D02*
X026506Y021397D01*
X026772Y021397D01*
X026772Y021381D01*
X026506Y021381D01*
X026506Y021631D02*
X026506Y021647D01*
X026772Y021647D01*
X026772Y021631D01*
X026506Y021631D01*
X026506Y021881D02*
X026506Y021897D01*
X026772Y021897D01*
X026772Y021881D01*
X026506Y021881D01*
X026506Y022131D02*
X026506Y022147D01*
X026772Y022147D01*
X026772Y022131D01*
X026506Y022131D01*
X026506Y022381D02*
X026506Y022397D01*
X026772Y022397D01*
X026772Y022381D01*
X026506Y022381D01*
X026506Y022631D02*
X026506Y022647D01*
X026772Y022647D01*
X026772Y022631D01*
X026506Y022631D01*
X026506Y022881D02*
X026506Y022897D01*
X026772Y022897D01*
X026772Y022881D01*
X026506Y022881D01*
X026506Y023131D02*
X026506Y023147D01*
X026772Y023147D01*
X026772Y023131D01*
X026506Y023131D01*
X026006Y023131D02*
X026006Y023147D01*
X026272Y023147D01*
X026272Y023131D01*
X026006Y023131D01*
X026006Y022897D02*
X026006Y022881D01*
X026006Y022897D02*
X026272Y022897D01*
X026272Y022881D01*
X026006Y022881D01*
X026006Y022647D02*
X026006Y022631D01*
X026006Y022647D02*
X026272Y022647D01*
X026272Y022631D01*
X026006Y022631D01*
X026006Y022397D02*
X026006Y022381D01*
X026006Y022397D02*
X026272Y022397D01*
X026272Y022381D01*
X026006Y022381D01*
X026006Y022147D02*
X026006Y022131D01*
X026006Y022147D02*
X026272Y022147D01*
X026272Y022131D01*
X026006Y022131D01*
X026006Y021897D02*
X026006Y021881D01*
X026006Y021897D02*
X026272Y021897D01*
X026272Y021881D01*
X026006Y021881D01*
X026006Y021647D02*
X026006Y021631D01*
X026006Y021647D02*
X026272Y021647D01*
X026272Y021631D01*
X026006Y021631D01*
X026006Y021397D02*
X026006Y021381D01*
X026006Y021397D02*
X026272Y021397D01*
X026272Y021381D01*
X026006Y021381D01*
X026006Y021147D02*
X026006Y021131D01*
X026006Y021147D02*
X026272Y021147D01*
X026272Y021131D01*
X026006Y021131D01*
X026006Y020897D02*
X026006Y020881D01*
X026006Y020897D02*
X026272Y020897D01*
X026272Y020881D01*
X026006Y020881D01*
X026006Y020647D02*
X026006Y020631D01*
X026006Y020647D02*
X026272Y020647D01*
X026272Y020631D01*
X026006Y020631D01*
X026006Y020397D02*
X026006Y020381D01*
X026006Y020397D02*
X026272Y020397D01*
X026272Y020381D01*
X026006Y020381D01*
X026006Y020147D02*
X026006Y020131D01*
X026006Y020147D02*
X026272Y020147D01*
X026272Y020131D01*
X026006Y020131D01*
X026006Y019897D02*
X026006Y019881D01*
X026006Y019897D02*
X026272Y019897D01*
X026272Y019881D01*
X026006Y019881D01*
X026006Y019647D02*
X026006Y019631D01*
X026006Y019647D02*
X026272Y019647D01*
X026272Y019631D01*
X026006Y019631D01*
X026006Y019397D02*
X026006Y019381D01*
X026006Y019397D02*
X026272Y019397D01*
X026272Y019381D01*
X026006Y019381D01*
X026006Y019147D02*
X026006Y019131D01*
X026006Y019147D02*
X026272Y019147D01*
X026272Y019131D01*
X026006Y019131D01*
X026006Y018897D02*
X026006Y018881D01*
X026006Y018897D02*
X026272Y018897D01*
X026272Y018881D01*
X026006Y018881D01*
X026006Y026381D02*
X026006Y026397D01*
X026272Y026397D01*
X026272Y026381D01*
X026006Y026381D01*
X026006Y026631D02*
X026006Y026647D01*
X026272Y026647D01*
X026272Y026631D01*
X026006Y026631D01*
X026006Y026881D02*
X026006Y026897D01*
X026272Y026897D01*
X026272Y026881D01*
X026006Y026881D01*
X026006Y027131D02*
X026006Y027147D01*
X026272Y027147D01*
X026272Y027131D01*
X026006Y027131D01*
X026006Y027381D02*
X026006Y027397D01*
X026272Y027397D01*
X026272Y027381D01*
X026006Y027381D01*
X026006Y027631D02*
X026006Y027647D01*
X026272Y027647D01*
X026272Y027631D01*
X026006Y027631D01*
X026006Y027881D02*
X026006Y027897D01*
X026272Y027897D01*
X026272Y027881D01*
X026006Y027881D01*
X026006Y028131D02*
X026006Y028147D01*
X026272Y028147D01*
X026272Y028131D01*
X026006Y028131D01*
X026006Y028381D02*
X026006Y028397D01*
X026272Y028397D01*
X026272Y028381D01*
X026006Y028381D01*
X026006Y028631D02*
X026006Y028647D01*
X026272Y028647D01*
X026272Y028631D01*
X026006Y028631D01*
X026006Y028881D02*
X026006Y028897D01*
X026272Y028897D01*
X026272Y028881D01*
X026006Y028881D01*
X026006Y029131D02*
X026006Y029147D01*
X026272Y029147D01*
X026272Y029131D01*
X026006Y029131D01*
X026006Y029381D02*
X026006Y029397D01*
X026272Y029397D01*
X026272Y029381D01*
X026006Y029381D01*
X026006Y029631D02*
X026006Y029647D01*
X026272Y029647D01*
X026272Y029631D01*
X026006Y029631D01*
X026006Y029881D02*
X026006Y029897D01*
X026272Y029897D01*
X026272Y029881D01*
X026006Y029881D01*
X026006Y030131D02*
X026006Y030147D01*
X026272Y030147D01*
X026272Y030131D01*
X026006Y030131D01*
X026006Y030381D02*
X026006Y030397D01*
X026272Y030397D01*
X026272Y030381D01*
X026006Y030381D01*
X026006Y030631D02*
X026006Y030647D01*
X026272Y030647D01*
X026272Y030631D01*
X026006Y030631D01*
X026506Y030631D02*
X026506Y030647D01*
X026772Y030647D01*
X026772Y030631D01*
X026506Y030631D01*
X026506Y030397D02*
X026506Y030381D01*
X026506Y030397D02*
X026772Y030397D01*
X026772Y030381D01*
X026506Y030381D01*
X026506Y030147D02*
X026506Y030131D01*
X026506Y030147D02*
X026772Y030147D01*
X026772Y030131D01*
X026506Y030131D01*
X026506Y029897D02*
X026506Y029881D01*
X026506Y029897D02*
X026772Y029897D01*
X026772Y029881D01*
X026506Y029881D01*
X026506Y029647D02*
X026506Y029631D01*
X026506Y029647D02*
X026772Y029647D01*
X026772Y029631D01*
X026506Y029631D01*
X026506Y029397D02*
X026506Y029381D01*
X026506Y029397D02*
X026772Y029397D01*
X026772Y029381D01*
X026506Y029381D01*
X026506Y029147D02*
X026506Y029131D01*
X026506Y029147D02*
X026772Y029147D01*
X026772Y029131D01*
X026506Y029131D01*
X026506Y028897D02*
X026506Y028881D01*
X026506Y028897D02*
X026772Y028897D01*
X026772Y028881D01*
X026506Y028881D01*
X026506Y028647D02*
X026506Y028631D01*
X026506Y028647D02*
X026772Y028647D01*
X026772Y028631D01*
X026506Y028631D01*
X026506Y028397D02*
X026506Y028381D01*
X026506Y028397D02*
X026772Y028397D01*
X026772Y028381D01*
X026506Y028381D01*
X026506Y028147D02*
X026506Y028131D01*
X026506Y028147D02*
X026772Y028147D01*
X026772Y028131D01*
X026506Y028131D01*
X026506Y027897D02*
X026506Y027881D01*
X026506Y027897D02*
X026772Y027897D01*
X026772Y027881D01*
X026506Y027881D01*
X026506Y027647D02*
X026506Y027631D01*
X026506Y027647D02*
X026772Y027647D01*
X026772Y027631D01*
X026506Y027631D01*
X026506Y027397D02*
X026506Y027381D01*
X026506Y027397D02*
X026772Y027397D01*
X026772Y027381D01*
X026506Y027381D01*
X026506Y027147D02*
X026506Y027131D01*
X026506Y027147D02*
X026772Y027147D01*
X026772Y027131D01*
X026506Y027131D01*
X026506Y026897D02*
X026506Y026881D01*
X026506Y026897D02*
X026772Y026897D01*
X026772Y026881D01*
X026506Y026881D01*
X026506Y026647D02*
X026506Y026631D01*
X026506Y026647D02*
X026772Y026647D01*
X026772Y026631D01*
X026506Y026631D01*
X026506Y026397D02*
X026506Y026381D01*
X026506Y026397D02*
X026772Y026397D01*
X026772Y026381D01*
X026506Y026381D01*
M02*
