G75*
%MOIN*%
%OFA0B0*%
%FSLAX24Y24*%
%IPPOS*%
%LPD*%
%AMOC8*
5,1,8,0,0,1.08239X$1,22.5*
%
%ADD10C,0.0000*%
D10*
X000639Y001139D02*
X000639Y032635D01*
X040009Y032635D01*
X040009Y001139D01*
X000639Y001139D01*
X000883Y001639D02*
X000885Y001670D01*
X000891Y001701D01*
X000900Y001731D01*
X000913Y001760D01*
X000930Y001787D01*
X000950Y001811D01*
X000972Y001833D01*
X000998Y001852D01*
X001025Y001868D01*
X001054Y001880D01*
X001084Y001889D01*
X001115Y001894D01*
X001147Y001895D01*
X001178Y001892D01*
X001209Y001885D01*
X001239Y001875D01*
X001267Y001861D01*
X001293Y001843D01*
X001317Y001823D01*
X001338Y001799D01*
X001357Y001774D01*
X001372Y001746D01*
X001383Y001717D01*
X001391Y001686D01*
X001395Y001655D01*
X001395Y001623D01*
X001391Y001592D01*
X001383Y001561D01*
X001372Y001532D01*
X001357Y001504D01*
X001338Y001479D01*
X001317Y001455D01*
X001293Y001435D01*
X001267Y001417D01*
X001239Y001403D01*
X001209Y001393D01*
X001178Y001386D01*
X001147Y001383D01*
X001115Y001384D01*
X001084Y001389D01*
X001054Y001398D01*
X001025Y001410D01*
X000998Y001426D01*
X000972Y001445D01*
X000950Y001467D01*
X000930Y001491D01*
X000913Y001518D01*
X000900Y001547D01*
X000891Y001577D01*
X000885Y001608D01*
X000883Y001639D01*
X000883Y032139D02*
X000885Y032170D01*
X000891Y032201D01*
X000900Y032231D01*
X000913Y032260D01*
X000930Y032287D01*
X000950Y032311D01*
X000972Y032333D01*
X000998Y032352D01*
X001025Y032368D01*
X001054Y032380D01*
X001084Y032389D01*
X001115Y032394D01*
X001147Y032395D01*
X001178Y032392D01*
X001209Y032385D01*
X001239Y032375D01*
X001267Y032361D01*
X001293Y032343D01*
X001317Y032323D01*
X001338Y032299D01*
X001357Y032274D01*
X001372Y032246D01*
X001383Y032217D01*
X001391Y032186D01*
X001395Y032155D01*
X001395Y032123D01*
X001391Y032092D01*
X001383Y032061D01*
X001372Y032032D01*
X001357Y032004D01*
X001338Y031979D01*
X001317Y031955D01*
X001293Y031935D01*
X001267Y031917D01*
X001239Y031903D01*
X001209Y031893D01*
X001178Y031886D01*
X001147Y031883D01*
X001115Y031884D01*
X001084Y031889D01*
X001054Y031898D01*
X001025Y031910D01*
X000998Y031926D01*
X000972Y031945D01*
X000950Y031967D01*
X000930Y031991D01*
X000913Y032018D01*
X000900Y032047D01*
X000891Y032077D01*
X000885Y032108D01*
X000883Y032139D01*
X039183Y032139D02*
X039185Y032170D01*
X039191Y032201D01*
X039200Y032231D01*
X039213Y032260D01*
X039230Y032287D01*
X039250Y032311D01*
X039272Y032333D01*
X039298Y032352D01*
X039325Y032368D01*
X039354Y032380D01*
X039384Y032389D01*
X039415Y032394D01*
X039447Y032395D01*
X039478Y032392D01*
X039509Y032385D01*
X039539Y032375D01*
X039567Y032361D01*
X039593Y032343D01*
X039617Y032323D01*
X039638Y032299D01*
X039657Y032274D01*
X039672Y032246D01*
X039683Y032217D01*
X039691Y032186D01*
X039695Y032155D01*
X039695Y032123D01*
X039691Y032092D01*
X039683Y032061D01*
X039672Y032032D01*
X039657Y032004D01*
X039638Y031979D01*
X039617Y031955D01*
X039593Y031935D01*
X039567Y031917D01*
X039539Y031903D01*
X039509Y031893D01*
X039478Y031886D01*
X039447Y031883D01*
X039415Y031884D01*
X039384Y031889D01*
X039354Y031898D01*
X039325Y031910D01*
X039298Y031926D01*
X039272Y031945D01*
X039250Y031967D01*
X039230Y031991D01*
X039213Y032018D01*
X039200Y032047D01*
X039191Y032077D01*
X039185Y032108D01*
X039183Y032139D01*
X039183Y001639D02*
X039185Y001670D01*
X039191Y001701D01*
X039200Y001731D01*
X039213Y001760D01*
X039230Y001787D01*
X039250Y001811D01*
X039272Y001833D01*
X039298Y001852D01*
X039325Y001868D01*
X039354Y001880D01*
X039384Y001889D01*
X039415Y001894D01*
X039447Y001895D01*
X039478Y001892D01*
X039509Y001885D01*
X039539Y001875D01*
X039567Y001861D01*
X039593Y001843D01*
X039617Y001823D01*
X039638Y001799D01*
X039657Y001774D01*
X039672Y001746D01*
X039683Y001717D01*
X039691Y001686D01*
X039695Y001655D01*
X039695Y001623D01*
X039691Y001592D01*
X039683Y001561D01*
X039672Y001532D01*
X039657Y001504D01*
X039638Y001479D01*
X039617Y001455D01*
X039593Y001435D01*
X039567Y001417D01*
X039539Y001403D01*
X039509Y001393D01*
X039478Y001386D01*
X039447Y001383D01*
X039415Y001384D01*
X039384Y001389D01*
X039354Y001398D01*
X039325Y001410D01*
X039298Y001426D01*
X039272Y001445D01*
X039250Y001467D01*
X039230Y001491D01*
X039213Y001518D01*
X039200Y001547D01*
X039191Y001577D01*
X039185Y001608D01*
X039183Y001639D01*
M02*
